<?xml version="1.0" encoding="UTF-8"?>
<svg id="Layer_2" data-name="Layer 2" xmlns="http://www.w3.org/2000/svg" viewBox="0 0 231.49 197.25">
  <defs>
    <style>
      .cls-1 {
        fill: #dacbcc;
      }

      .cls-2 {
        fill: #d9cacb;
      }

      .cls-3 {
        fill: #534144;
      }

      .cls-4 {
        fill: #5c5456;
      }

      .cls-5 {
        fill: #7d5e64;
      }

      .cls-6 {
        fill: #fdfafa;
      }

      .cls-7 {
        fill: #d9c9c9;
      }

      .cls-8 {
        fill: #7e6066;
      }

      .cls-9 {
        fill: #575556;
      }

      .cls-10 {
        fill: #fefbfc;
      }

      .cls-11 {
        fill: #fdfcfc;
      }

      .cls-12 {
        fill: #5b5756;
      }

      .cls-13 {
        fill: #fff;
      }

      .cls-14 {
        fill: #68474e;
      }

      .cls-15 {
        fill: #fffefe;
      }

      .cls-16 {
        fill: #d9caca;
      }

      .cls-17 {
        fill: #0a0807;
      }

      .cls-18 {
        fill: #5a5556;
      }

      .cls-19 {
        fill: #565354;
      }

      .cls-20 {
        fill: #dbcccd;
      }
    </style>
  </defs>
  <g id="Layer_1-2" data-name="Layer 1">
    <g id="Generative_Object" data-name="Generative Object">
      <path class="cls-18" d="M231.41,33.54c-.04,2.32.23,4.66-.06,6.96-.77.28-1.65.1-2.44-.03.99-2.04,1.21-4.65,1.74-6.82l.77-.12Z"/>
      <path class="cls-4" d="M142.12,5.41c-.38,1.01-1.29,1.86-2.29,2.27,0-.57-.45-1.69.06-2.21s1.65.02,2.22-.05Z"/>
      <g>
        <path class="cls-9" d="M114.55,54.59c.55-2.35.92-4.78,2.16-6.92.53.14,1.09-.09,1.74.18l-.06,6.73c-1.42.16-2.65.17-3.84.01Z"/>
        <g>
          <path class="cls-8" d="M12.85.08l6.5-.02,7.53-.06,6.6.06,7.63-.02h6.51s7.62.02,7.62.02h6.51c2.51-.02,5.05.41,7.2,1.7,1.49.89,2.41,2.6,3.79,3.6.59,1.79,1.89,4.87,1.79,7.03s-.45,4.52-.04,6.97c2.73-1.09,1.18,4.68,1.58,6.95-.68.24-1.03.11-1.7.23-.04,2.26-.21,4.5.07,6.73.16.55,1.51.2,1.77-.06,2.11.83,4.72.1,6.89.01-1.37.06,6.61.47,6.85.61.41.24-.02,1.06.19,1.31,1.38,1.61,2.52,3.37,2.49,5.37l-.12,7.49v6.54c.01,2.41.42,4.88-.71,7.17-.53.67-1.53,1.26-1.74,2.19-2.18.89-4.48,1.76-6.89,1.58-2.97-.23-5.96-.2-8.93-.08-1.51.06-3.26-.36-4.79.02-.16.04-.02.69-.35.51.88-1.11-7.2-.51-7.67-.4-1.7.4-2.63,2.45-3.74,3.41-1.8,1.55-3.62,3.14-5.23,4.9-.72-.13-2.38.11-2.41-1l-.2-7.55c-4.29.52-8.83-2.05-8.86-6.6l-.12-15.49c-.01-1.71.07-3.27.21-4.79,1.31-2.29,3.22-4.72,6.22-4.74l21.76-.11.08-21.03c.02-4.11-2.86-7.37-7.03-7.33l-5.16.04c-.51,0-.93-.06-1.25.28-.41.43-.31,5.14-4.38,5.14h-28.11c-2.42.01-3.94-2.18-3.96-4.29-.01-.8-.55-1.22-1.25-1.18-2.18.1-4.39-.15-6.52.07-3.85.4-5.99,3.58-5.98,7.34l.05,122.22c0,3.76,3.01,6.46,6.63,6.46h50.26c3.82,0,6.65-2.92,6.65-6.8v-65.44s5.18-.08,5.18-.08l.18,6.98c.59.07,1.6-.2,1.61.22.09,2.43.04,4.5,0,6.69-.67.18-1.11-.04-1.68.18v6.96c.47.17.92.05,1.66.1l.06,6.59c0,.3-.43.29-.53.37-.32.25-.7-.16-1.18.12l.02,6.87c.51.26.97.08,1.65.19l.18,6.54c-.45.4-.96.54-1.78.36l-.08,7.13c.53.19,1.1-.09,1.72.28l.04,6.52c-.5.46-1.18.11-1.7.34-.38,2.5.12,4.85.04,7.13s-.02,4.75-.93,6.87c-1.81,4.23-4.89,4.33-4.68,7.19-2.34-.47-4.6.04-6.82.03l-7.07-.04-7.03.05c-2.37.02-4.77-.3-7.14,0-.8.1-1.72-.3-2.65.04-.14,2.44.2,4.77.94,6.93.49,1.43.14,3.4,1.5,4.37-.03,1.05,1.2,1.96,1.59,2.74.74,1.52,4.05,5.96,5.5,5.58.34,1.03,1.38,1.53,2.38,1.66-.89.73,6.07,3.27,4.87,2.51,2.08,1.33,4.55,1.47,6.9,1.99,2.51.55,4.96.67,7.54.62,2.4-.05,4.59-.54,6.88-.94,2.49-.44,4.97-.53,7.3-1.81,1.47-.81,3.01-1.37,4.4-2.37l2.44-1.76c2.09-1.5,3.95-3.32,5.41-5.47.43-.62,1-1.49,1.49-2.03,1.32-1.44,2.13-3.2,3.08-4.91,1.28-2.33,2.46-4.63,3.13-7.18.43-1.62,1.56-3.48.85-5.49-.14-.4.08-1.47.29-1.52l1.15-.3c1.53-.4.85-4.5,1.58-6.48.88-2.41.92-4.96,1.26-7.49.3-2.27,1.19-4.58,1.06-6.99-.04-.83.47-2.02.51-3.09l.16-4.1.63-6.64.15-7.89.16-6.28c.07-2.64-.18-5.29-.16-7.85.02-2.24-.44-4.44-.35-6.55l.3-7.27c.09-2.11.39-4.37.38-6.49,0-.4.55-.9.3-1.41-.14-1.86.25-3.69.69-5.51.09-.39.5-1.04.38-1.73l1.66-5.81c1.52-5.33,5.8-9.49,10.86-12.34.43-.43.02-1.23.33-1.87,2.53.63,4.58-.46,6.83-.77l7.08-.96c.24-1.87.11-3.75.11-5.51l-.03-6.87-.04-7.16c0-1.49.21-3.03.21-4.52.99-.41,1.91-1.25,2.29-2.27,1.5-.19,2.94-.91,4.48-.91h7.16s6.99,0,6.99,0h7.14s6.98,0,6.98,0c2.44,0,4.84-.16,7.2-.23,2.21-.06,4.6.44,6.94.24s4.79,0,7.14,0h7.01s7.13-.02,7.13-.02c2.31,0,4.68.3,6.99,0,.89-.12,1.91.56,2.68.96,2.44,1.26,3.21,4.08,3.12,6.74-.16,4.8-.09,9.62,0,14.43.04,2.29-.3,4.61,0,6.9.11.85-.35,2.09.09,2.95.16.21,1.06-.02,1.14-.32.2-.7-.12-1.45.05-2.51,2.15-.08,4.28.31,6.28.01-.53,2.17-.75,4.78-1.74,6.82-1.11,2.29-2.15,4.6-2.73,7.15-.34,1.47-1.64,2.91-1.91,4.5-.11.69-.56,1.78-.85,2.42-1.06,2.31-1.73,4.79-2.69,7.15l-2.22,5.48c-.15.36-.57.69-.81.79-1.25.48-2.69-5.59-3.92-6.75-3.36.61-6.94-.32-10.25-.14-.18.27-.08.62-.05.76-.1.09-.18.11-.3-.01l-6.66-.14c-.3,0-.34.27-.34.44-.22.03-.36-.13-.32-.34.04-.24.12-.7-.31-.7-2.3.04-4.41-.08-6.54.39-5.24,1.17-8.77-1.19-12.91-.16-.36.09-.48-.02-.76-.14-.2-.09-.52.43-.48.65-1.98-.13-4.09.18-6.24-.25-1.89-.38-6.15-.68-8.28-.04-1.99.6-4.38.22-6.52.25.33-.53-.18-.81-.62-.38l-5.92-.02c-3.3-.01-6.46-.94-7.33-4.11.05-.78-.47-1.88-.29-2.66.53-2.31-.37-4.8-.28-6.97.11-2.36.27-4.74.26-7.17l-.03-6.55c-2.21-.03-4.93.07-6.95,1.04-2.15-.3-5.71,1.68-7.35,2.75-1.35.88-2.9,1.7-3.91,3.07-.37.5-.77.93-1.31,1.44-.76.71-1.11,1.71-1.74,2.41-.79.88-1.07,2.06-1.65,3.06-1.24,2.15-1.61,4.58-2.16,6.92-.5,2.13-.81,4.25-1.09,6.43-.34,2.58-.53,5.25-.57,7.94l-.09,6.6c0-.27.06,8.46.31,7.28-.51,2.37.02,4.86.02,7.23v6.89s-.36,7.21-.36,7.21c-.11,2.3-.12,4.63-.38,6.94l-.73,6.48c-.14,1.22-.74,2.5-.61,3.82.11,1.04-.1,2.39-.4,3.42-.7,2.39-.45,5.11-1.03,7.57-.53,2.29-1.1,4.72-1.83,7.01l-1.37,4.29c-.3.96-.78,1.84-.58,2.8-1.43,1.8-1.85,4.15-1.39,6.72-.62.42-1.2.17-1.88.37-1.18,2.62-2.72,4.78-4.14,7.03-.29.46-.77,1.15-1.13,1.53-1.44,1.51-4.07,4.17-5.54,5.43-.36.31-1.12.78-1.46,1.13-2.28,1.5-4.9,2.67-7.24,4.02.73-.33-7.42,1.73-5.47,1.73-.42.01-1.1-.06-1.72-.04l-2.4.07c-1.43-.33-3.01.56-4.44.37-2.24-.29-4.59.06-6.88-.44-2.41-.53-4.81-.86-7.02-1.63-2.48-.87-4.82-2.15-7.15-3.38-.93-.49-1.75-1.59-2.79-1.82.03-.8-.86-1.09-1.41-1.66-.99-1.01-1.65-2.56-3-2.88,0-.96-.48-2.04-1.37-2.47.04-.51-.1-1.03-.4-1.6-1.02-1.93-1.54-3.95-2.07-5.9s-.52-4.24-.72-6.45c-.89-.4-1.73.04-2.44-.06-2.37-.33-4.77-.03-7.14-.03h-6.99c-2.37.01-4.77.1-7.13,0l-3.78-.17c-.7-1.02-2.24-1.01-3.23-1.56-1.75-1.56-3.55-3.27-4.45-5.5s-.79-4.85-.69-7.25-.33-4.6-.26-6.84l.22-7.26c.07-2.18-.07-4.43-.05-6.63l.08-7.58-.06-6.55-.08-7.43-.1-6.93.21-7.28-.26-6.65c-.1-2.48.36-4.92.15-7.41-.18-2.18.1-4.5.06-6.7-.05-2.49-.06-5.03.05-7.52.09-2.16-.34-4.48-.1-6.62.27-2.39-.26-4.84-.17-7.12s.11-4.65.01-7.02.47-4.7,0-7.12c-.41-2.12.72-4.77.14-7.01-.52-2.03,1.19-5.38,1.84-7.06,1.3-.94,2.13-2.81,3.55-3.61C7.86.48,10.35.08,12.85.08ZM184.16,33.6l33.59-26.37h-72.87s33.82,26.45,33.82,26.45c1.68,1.24,3.64,1.31,5.45-.08ZM142.41,11.54l-.08,43.31c0,2,1.28,3.92,3.64,3.87,21.65-.4,43.33.51,64.59-.43.35.55,1.74.65,2.12.1-.47-1.58-1.24-3.23-1.84-4.66l-8.14-3.04c-1.22-.46-5.96-2.11-6.08-2.9-.05-.32.1-.96.67-1.18l23.06-8.81-.06-26.32c0-.72.32-1.78-.69-2.31l-34.15,26.61c-2.49,1.94-5.64,2.01-8.2.01l-34.22-26.69c-.88.43-.71,1.51-.62,2.43ZM219.27,46.67l-6.53,6.45,4.84,11.14,10.24-27.16-27.44,10.48,10.88,4.22,7.03-6.87c.67-.31,1.31-.16,1.5.46.1.32-.09.79-.52,1.28ZM82.83,44.19c.69,0,.94-.9.84-1.18s-.29-.82-.91-.82l-31.65-.05c-.7,0-1.08.41-1.17.83-.07.34.12,1.22.87,1.22h32.01ZM82.76,50.23c.61,0,.89-.72.89-1.03s-.28-.97-.89-.97h-31.65c-.72-.01-1.13.44-1.17.93-.03.35.25,1.06.88,1.07h31.94ZM70.46,56.26c.67,0,.9-.86.81-1.16-.08-.28-.3-.83-.9-.83l-19.62.03c-.63,0-.91.79-.84,1.12.06.28.35.87.87.87l19.68-.02Z"/>
          <path class="cls-13" d="M41.08,38.38c-1.89.7-3.45,2.86-3.47,5.16l-.16,17.62c-.02,2.37.72,4.47,2.31,5.96,1.73,1.62,4.02,1.96,6.5,1.83.51,2.28-.68,7.35.68,8.23,1.69,1.08,4.29-2.02,5.51-3.35,1.61-1.76,3.43-3.35,5.23-4.9l11.37.08v65.44c0,3.88-2.82,6.8-6.64,6.8H12.16c-3.62,0-6.63-2.7-6.63-6.46l-.05-122.22c0-3.75,2.13-6.93,5.98-7.34,2.13-.22,4.34.03,6.52-.07.69-.03,1.24.38,1.25,1.18.03,2.11,1.54,4.3,3.96,4.3h28.11c4.07-.01,3.97-4.72,4.38-5.15.32-.34.73-.27,1.25-.28l5.16-.04c4.17-.03,7.05,3.22,7.03,7.33l-.08,21.03-21.76.11c-3,.02-4.91,2.45-6.22,4.74Z"/>
          <path class="cls-2" d="M41.08,38.38c-.13,1.52-.22,3.08-.21,4.79l.12,15.49c.04,4.55,4.57,7.12,8.86,6.6l.2,7.55c.03,1.11,1.69.87,2.41,1-1.22,1.33-3.82,4.44-5.51,3.35-1.37-.88-.17-5.95-.68-8.23-2.48.14-4.77-.21-6.5-1.83-1.59-1.49-2.34-3.59-2.31-5.96l.16-17.62c.02-2.3,1.58-4.47,3.47-5.16Z"/>
          <g>
            <path class="cls-6" d="M82.83,44.19h-32.01c-.75,0-.94-.87-.87-1.21.09-.42.47-.84,1.17-.83l31.65.05c.62,0,.81.55.91.82s-.15,1.18-.84,1.18Z"/>
            <path class="cls-11" d="M82.76,50.23h-31.94c-.64,0-.91-.72-.88-1.07.04-.49.45-.94,1.17-.94h31.65c.61.01.89.68.89.99s-.28,1.03-.89,1.03Z"/>
            <path class="cls-10" d="M70.46,56.26l-19.68.02c-.52,0-.82-.59-.87-.87-.07-.33.22-1.12.84-1.12l19.62-.03c.6,0,.82.54.9.83.09.31-.14,1.16-.81,1.16Z"/>
          </g>
          <path class="cls-1" d="M69.1,65.91l-.03,3.09-11.37-.08c1.11-.95,2.04-3,3.74-3.41.47-.11,8.55-.71,7.67.4Z"/>
          <path class="cls-14" d="M74.24,65.37c.2,1.17-.02,2.38,0,3.55l-5.19.08.03-3.09c.33.18.19-.47.35-.51,1.53-.38,3.28.04,4.79-.02Z"/>
        </g>
        <path class="cls-19" d="M114.47,47.68l-1.66,5.81c.13.69-.28,1.35-.38,1.73.05-.11-.07-.38-.14-.47s-.23-.07-.76-.14l-.08-6.83c.98-.29,2.02,0,3.02-.1Z"/>
        <path class="cls-12" d="M111.45,132.37c-.6,0-1.22-.08-1.81.03.57-2.46.32-5.18,1.03-7.57-.28.45.66.66.67.94l.12,6.61Z"/>
        <path class="cls-17" d="M87.93,167.9c-1.4,1.01-2.93,1.57-4.4,2.37-.57-.76-.32-1.7-.33-2.6,1.58,0,3.22-.22,4.73.23Z"/>
        <g>
          <path class="cls-3" d="M220.73,61.7c.96-2.37,1.64-4.85,2.69-7.15.31.05.91.27.91.72v6.36c-1.32.21-2.47.09-3.6.07Z"/>
          <g>
            <path class="cls-15" d="M220.3,11.49l.06,26.32-23.06,8.81c-.57.22-.72.86-.67,1.18.12.79,4.86,2.44,6.08,2.9l-3.93,2.19,10.96,4.26c.54.21.58.8.82,1.14-21.26.94-42.94.03-64.59.43-2.36.04-3.64-1.88-3.64-3.87l.08-43.31c.6.19,1.06.53,1.7,1.05l32.64,26.56c2.68,2.18,6.16,2.42,8.84.26l8.81-7.08,25.9-20.83Z"/>
            <path class="cls-13" d="M184.16,33.6c-1.81,1.38-3.77,1.32-5.45.08l-33.82-26.45h72.87s-33.59,26.37-33.59,26.37Z"/>
            <path class="cls-1" d="M220.3,11.49l-25.9,20.83-8.81,7.08c-2.68,2.15-6.16,1.92-8.84-.26l-32.64-26.56c-.63-.52-1.09-.86-1.7-1.05-.09-.92-.26-2,.62-2.43l34.22,26.69c2.56,1.99,5.71,1.93,8.2-.01l34.15-26.61c1.01.52.69,1.58.69,2.31Z"/>
            <path class="cls-16" d="M219.27,46.67c.43-.49.62-.96.52-1.28-.19-.61-.83-.76-1.5-.46l-7.03,6.87-10.88-4.22,27.44-10.48-10.24,27.16-4.84-11.14,6.53-6.45Z"/>
            <path class="cls-20" d="M210.56,58.3c-.24-.34-.28-.93-.82-1.14l-10.96-4.26,3.93-2.19,8.14,3.04c.59,1.43,1.36,3.07,1.84,4.66-.38.55-1.77.45-2.12-.1Z"/>
          </g>
          <g>
            <path class="cls-5" d="M202.76,100c2.21,1.15,4.07,2.94,6.24,4.22.38.23.75.74,1.04.95,2.45,1.77,4.38,3.91,6.21,6.16.46.57.97,1.55,1.07,2.12.28,1.57,2.02,3.23,2.02,4.84,0,2.31,1.2,4.97.91,6.98l-1.01,7.09-1.98,7.02c-.06.23-.18.43-.24.59l-2.54,6.53c-.97,2.49-2.76,4.54-3.47,6.98-.53.28-.91.89-.75,1.34-1.5,1.64-2.47,3.75-3.63,5.55-1.04,1.62-2.44,2.99-3.21,4.76-.36.82-1.78,1.41-1.69,2.45-4.09,4.55-8.06,9.41-12.42,13.77-.34-.07-.45.2-.33.39l-7.18,5.87c-.12.31-.03.78-.25.82-2.06.4-7.07,4.17-6.69,3.99-4.68,2.19-9.18,4.1-14.12,4.76-2.29.3-4.8-.82-6.99-.93-.57-.03-1.2-.47-1.59-.61-1.8-.66-3.71-1.41-5.3-2.54-2.23-1.6-5.46-4.53-7.25-5.19l-2.09-2.14c-1.28-1.31-1.87-2.99-1.92-4.75-.06-2.14.86-4.27,2.28-5.88.74-.84,1.31-1.94,2.11-2.75,1.36-1.38,2.13-3.3,3.39-4.73s2.1-2.94,3.21-4.29l2.28-2.75c1.53-1.2,3.11-2.06,4.86-2.14,2.23-.09,4.32.69,6.25,2.18l7.65,5.86c2.47,1.89,5.22,1.01,7.44-.72,2.07-1.62,4.1-2.98,5.68-4.91.42-.51,1.37-.86,1.37-1.63,1.64-1.5,3.11-3.57,4.38-5.3l-.23-.38c1.46-.54,1.96-2.06,2.67-3.17.75-1.17,1.7-2.25,2.38-3.49,1.75-3.15,2.47-3.78,3.08-7.55.4-2.47-.25-4.39-2.42-5.97l-7.93-5.8c-.77-.56-1.24-1.56-1.95-2,.02-.27-.05-.9-.35-.77-.88-2.05-.9-4.41-.12-6.53.13-.35.47-.82.63-1.04l4.2-5.91c.78-1.09,1.99-2.35,2.73-3.37l2.74-3.82c1.32-1.47,2.48-3.37,4.24-4.15,2.02-.89,4.63-1.01,6.56,0ZM187.85,126.72l16.64-22.13c-.97-1.41-2.77-2.4-4.36-2.55-1.92-.18-3.67.68-4.84,2.23-3.64,4.8-7.33,9.43-10.68,14.49-2.01,3.02.16,6.96,3.25,7.97ZM146.95,184.53c-.99.81-1.6,1.9-2.64,3.17,10.36,9.59,20.73,7.9,31.89.6,14.62-9.56,27.63-26.19,35.14-41.74,4.11-8.5,9.03-23.54,3.44-31.75-1.34-3.64-4.56-6.27-7.98-8.85l-16.97,22.41c1.18,1.24,2.58,2,3.89,2.98,5.47,4.06,3.65,10.45.64,15.48-4.24,7.1-11.85,17.76-18.95,22-5.97,3.56-9.63-.38-14.04-3.6l-14.43,19.29ZM139.4,183.79c.78,1.04,1.71,1.84,2.78,2.32l17.14-22.56c-.93-.83-1.8-1.46-2.84-1.94-2.15-1-4.61-.44-6.12,1.55l-10.84,14.28c-1.42,1.87-1.6,4.41-.13,6.35Z"/>
            <path class="cls-15" d="M214.79,114.82c1.86,10.55-4.54,25.36-10.27,34.51-8.8,14.04-21.71,29.21-36.92,36.2-7.24,3.33-14.34,3.61-20.63-1l14.43-19.29c4.41,3.23,8.07,7.16,14.04,3.6,7.11-4.24,14.72-14.9,18.95-22,3.01-5.04,4.83-11.42-.64-15.48-1.31-.98-2.71-1.74-3.89-2.98l16.97-22.41c3.41,2.58,6.64,5.21,7.98,8.85Z"/>
            <path class="cls-16" d="M146.95,184.53c6.3,4.61,13.39,4.33,20.63,1,15.21-7,28.13-22.17,36.92-36.2,5.74-9.15,12.14-23.96,10.27-34.51,5.59,8.21.67,23.24-3.44,31.75-7.52,15.55-20.53,32.18-35.14,41.74-11.16,7.3-21.53,8.99-31.89-.6,1.04-1.27,1.65-2.36,2.64-3.17Z"/>
            <path class="cls-7" d="M187.85,126.72c-3.08-1.01-5.25-4.94-3.25-7.97,3.36-5.06,7.04-9.68,10.68-14.49,1.18-1.55,2.92-2.41,4.84-2.23,1.59.15,3.39,1.14,4.36,2.55l-16.64,22.13Z"/>
            <path class="cls-7" d="M139.4,183.79c-1.47-1.95-1.29-4.48.13-6.35l10.84-14.28c1.51-1.99,3.97-2.55,6.12-1.55,1.04.48,1.91,1.12,2.84,1.94l-17.14,22.56c-1.08-.49-2-1.29-2.78-2.32Z"/>
          </g>
        </g>
      </g>
    </g>
  </g>
</svg>