<?xml version="1.0" encoding="UTF-8"?>
<svg id="Layer_2" data-name="Layer 2" xmlns="http://www.w3.org/2000/svg" xmlns:xlink="http://www.w3.org/1999/xlink" viewBox="0 0 292.71 231.49">
  <defs>
    <style>
      .cls-1 {
        fill: #93233c;
      }

      .cls-2 {
        fill: #1c2d5b;
      }

      .cls-3 {
        fill: #ec244d;
      }

      .cls-4 {
        fill: #fec3c2;
      }

      .cls-5 {
        fill: #f03856;
      }

      .cls-6 {
        fill: #fbc763;
      }

      .cls-7 {
        fill: #96213a;
      }

      .cls-8 {
        fill: #f58786;
      }

      .cls-9 {
        fill: #fdebb8;
      }

      .cls-10 {
        fill: #4c2912;
      }

      .cls-11 {
        fill: #fdd0cf;
      }

      .cls-12 {
        fill: #fdd4c7;
      }

      .cls-13 {
        fill: #e3d9cf;
      }

      .cls-14 {
        fill: #e8bdbb;
      }

      .cls-15 {
        fill: #fbbcb8;
      }

      .cls-16 {
        fill: #fdf4f9;
      }

      .cls-17 {
        fill: url(#linear-gradient);
      }

      .cls-18 {
        fill: #fccecf;
      }

      .cls-19 {
        fill: #ef3159;
      }

      .cls-20 {
        fill: #ccacaf;
      }

      .cls-21 {
        fill: #941f3a;
      }

      .cls-22 {
        fill: #eebbb6;
      }

      .cls-23 {
        fill: #e4e3e4;
      }

      .cls-24 {
        fill: #fee2e2;
      }

      .cls-25 {
        fill: #e2c5c2;
      }

      .cls-26 {
        fill: #744f27;
      }

      .cls-27 {
        fill: #fef2f1;
      }

      .cls-28 {
        fill: #fbefac;
      }

      .cls-29 {
        fill: #e6e4e5;
      }

      .cls-30 {
        fill: #fcda97;
      }

      .cls-31 {
        fill: #fef2a8;
      }

      .cls-32 {
        fill: #4b2812;
      }

      .cls-33 {
        fill: #f0b4b4;
      }

      .cls-34 {
        fill: #fdf2f3;
      }

      .cls-35 {
        fill: #fef6f6;
      }

      .cls-36 {
        fill: #eb9b2c;
      }

      .cls-37 {
        fill: #fde6e6;
      }

      .cls-38 {
        fill: #4b2912;
      }

      .cls-39 {
        fill: #febfbf;
      }

      .cls-40 {
        fill: #fdf1bc;
      }

      .cls-41 {
        fill: #1b2c5b;
      }

      .cls-42 {
        fill: #fdd7d7;
      }

      .cls-43 {
        fill: #e0dcd9;
      }

      .cls-44 {
        fill: #fed6d4;
      }

      .cls-45 {
        fill: #e4bdbe;
      }

      .cls-46 {
        fill: #fdbcbd;
      }

      .cls-47 {
        fill: #fdefa9;
      }

      .cls-48 {
        fill: #1b2c59;
      }

      .cls-49 {
        fill: #fbafb5;
      }

      .cls-50 {
        fill: #941f39;
      }

      .cls-51 {
        fill: #f1c0a6;
      }

      .cls-52 {
        fill: #f68392;
      }

      .cls-53 {
        fill: #fcda95;
      }

      .cls-54 {
        fill: #e5e6e5;
      }

      .cls-55 {
        fill: #e6e5e6;
      }

      .cls-56 {
        fill: #f57182;
      }

      .cls-57 {
        fill: #93223b;
      }

      .cls-58 {
        fill: #8c1f38;
      }

      .cls-59 {
        fill: #fee9e8;
      }

      .cls-60 {
        fill: #fedcd9;
      }

      .cls-61 {
        fill: #f25e73;
      }

      .cls-62 {
        fill: #fdccca;
      }

      .cls-63 {
        fill: #e3e4e3;
      }

      .cls-64 {
        fill: #ec7d87;
      }

      .cls-65 {
        fill: #fdd8d6;
      }

      .cls-66 {
        fill: #e1e4e3;
      }

      .cls-67 {
        fill: #fbaaaf;
      }

      .cls-68 {
        fill: #e1e1e1;
      }

      .cls-69 {
        fill: #fffcfd;
      }

      .cls-70 {
        fill: #fed5d4;
      }

      .cls-71 {
        fill: #94223b;
      }

      .cls-72 {
        fill: #fde3e2;
      }

      .cls-73 {
        fill: #dfe0e0;
      }

      .cls-74 {
        fill: #fbd993;
      }

      .cls-75 {
        fill: #680917;
      }

      .cls-76 {
        fill: #fefdfe;
      }

      .cls-77 {
        fill: #fdd4d2;
      }

      .cls-78 {
        fill: #fdd8d8;
      }

      .cls-79 {
        fill: #4e2912;
      }

      .cls-80 {
        fill: #e5c1be;
      }

      .cls-81 {
        fill: #fcda90;
      }

      .cls-82 {
        fill: #fedad9;
      }

      .cls-83 {
        fill: #fcefb9;
      }
    </style>
    <linearGradient id="linear-gradient" x1="-2197.12" y1="294.1" x2="-2120.3" y2="299.39" gradientTransform="translate(1030.19 14.26) scale(.35)" gradientUnits="userSpaceOnUse">
      <stop offset="0" stop-color="#feeae8"/>
      <stop offset="1" stop-color="#fffefe"/>
    </linearGradient>
  </defs>
  <g id="Layer_1-2" data-name="Layer 1">
    <g id="Generative_Object" data-name="Generative Object">
      <path class="cls-59" d="M155.94,171.49c-.17.61.36,1.51-.56,1.72l-3.33.68c-.83.17-3.32-.84-3.11.69.33,2.31,5.34,1.13,6.68.67l-.3,14.73c-.19-.1-.3.16-.44.33l-7.23.08-1.12,2.01c-1.83.09-3.51-.1-5.3.79-.74-1.04-1.72-.55-2.74-.48l-3.11.2c-1.14.07-2.29.15-3.3.05l-2.52-.25c-1.64-.16-2.88.21-4.39.25l-2.79.06c-3.54.07-6.97.14-10.51,0-.85-.03-1.62-1.07-2.29-1.42-.35-.18-1.15-.04-1.41-.44-.19-.29-.22-.83-.21-1.14,2.53-2.18,5.41-3.98,7.74-6.61,3.82-4.32,6.66-9.02,8.06-14.4,2.1-.39,4.16.52,6.3.96l5.66,1.17c1.32.27,6.66.64,8.17.49,4.01-.41,8.07-.13,12.05-.13Z"/>
      <path class="cls-77" d="M233.03,116.17c.06.08-.07.25-.01.29-.72.03-1.41-.14-2.1.08-.32.03-.68-.28-.74-.59-.05-.23.37-.59-.08-.92-.36.38-.01.79-.35,1.04-.21.16-.46-.14-.75-.05,1.54-7.26,2.63-20.24-.17-27.65-.7.23-.87,1.03-.89,1.82-.19,7.05-.55,13.97-2.25,20.59-1.37-.6-.42,6.2-3.77,5.92-.02-.05.38-7.43.46-6.01l-.13-2.31c-.05-.84,2.21-8.89,2.13-9.49-.57-4.45.87-4.6.73-5.57-.62-4.15,1.41-6.44-2.48-8.82-.94-.57-.04-1.46-.12-2.03-.45-3.03-.28-6-.02-9.15.06-.73-.63-1.64-.03-2.26-.33-.25-.86-.66-.64-1.11,2.25-.42,3.43.61,7.18-1.09.7.75,1.12,2.25.9,3.44-.32,1.72.53,2.5.78,3.65l1.21,5.52c.19.86.22,5.7,1.51,6.79,1.04.87.9,3.3.49,4.61.49.02.77.36,1.07.55.24.15.35.93.15,1.15-.79.85.32,1.47.25,2.19-.28,3.08-.3,2.82-.35,5.6l-.11,5.07c-.04,2.09-2.9,7.28-1.88,8.72Z"/>
      <path class="cls-46" d="M165.8,32.78c-2.36,4.03-6.14-.83-7.24,1.43-.91,1.86,4.05,1.44,4.61,4.11.3,1.44.34,3.24-.91,3.78.15-.25-8.15-.61-8.01-.66.56-.36.58-1.43-.18-2.14-1.06-.98-3.27-.73-4.78-.53-2.85.38-5.43.15-8.19.13-2.44-.02-5.31.32-7.61-.02-.47-.35-.99-1.47-1.82-.96.35-2.29-.12-4.72-.51-6.97.98.17,1.81-.34,2.72-.62,1.36-.42,2.48.37,3.64.56,1.89.3,3.6-.96,7.03-.73l4.26.27c1.6.1,3.78-.11,5.45.3.49.37.26,2.09.97,2.26,2.14-.51,9.53-.49,10.59-.22Z"/>
      <path class="cls-4" d="M131.96,162.99c1.78-.2,3.61.27,5.44.26,1.56,0,2.96-.4,4.65.07,1.82.5,3.82.63,5.61.22,1.99-.47,3.87.07,5.91.1,1.14.02,2.28-.46,3.34-.27-.04,1.3-.52,2.72-.54,4.2s-.08,2.67-.43,3.92c-3.98,0-8.04-.28-12.05.13-1.51.15-6.85-.22-8.17-.49l-5.66-1.17c-2.14-.44-4.2-1.34-6.3-.96l1.09-4.19c.27.17.43-.02.34-.53,1.4-.62,2.96-.43,4.42-.72.86-.17,1.59-.49,2.36-.58Z"/>
      <path class="cls-9" d="M44.31,26.11c-.03-.12-.03-.8-.2-.71-.23.12-.59.63-.94.38-1.44-2.67-.28-4.72-2.43-6.93-1.38,1.01-1.66,2.69-2.44,3.75-1.2,1.63-2.33,3.37-3.1,5.29-.28.7-1.02,1.38-1.4,2.04s-1.34.54-1.96.81c-1.93.84-1.45,2.71-3.06,3.48-.19.01-.57.41-.62.08-.04-.26-.02-.49-.32-.49.38-1.89,1.89-3.11,2.74-4.77.75-1.46.76-3.6,2.97-4.39-.02-1.67.07-3.2.37-4.78l.55-2.91c.36-1.89-2.42-.47-2.05-1.92.07-.27.58-.54.91-.52,2.79.21,4.17-1.58,5.95-3.17l2.61-2.34c.96-.86.81-6.27,1.83-4.63.16.26.35.64.37.9.21,3.43,1.56,5.65,1.56,5.66.28,1.32,1.28,2.04,2.88,2.36.36.07,4.3,1.44,5.5,1.29.18-.02.73.27.7.44-.09.75-3.23.98-3.89,1.4.54,1.95-.39,3.12-1.36,4.34-2.25,2.81-1.61,2.61-5.2,5.33Z"/>
      <path class="cls-47" d="M207.89,199.14c-.32.86.15,1.4.67,1.97.63.69,1.79.37,2.5.08.44.11.83.47,1.29.46-.7,2.27,3.56,2,5.38,2.61-4.08,2.26-4.7-1.04-8.26,5.22-4.34,2.01-1.85,3.19-3.83,6.47-1.16-3.71-.76-7.41-5.12-9.9-1.69-.97-3.91-.45-5.83-1.69,1.55-1.32,6.01-.18,5.43-3.12.86.01,1.81-.04,2.79-.09,2.27-2.23,1.83-6.66,2.81-7.73.84-.91.82,5.47,2.17,5.71Z"/>
      <path class="cls-81" d="M55.4,187.75c-8.12,1.69-6.26,10.69-7.49,10.13s.06-8.52-7.03-10.07l-3.81-.83c.04-1.2,4.87-.65,7.6-3.21s2.61-7.26,3.11-8.32c.69-1.47.18,4.9,3.24,8.17,2.15,2.29,6.62,1.99,7.94,3.33-1.19.4-2.39.57-3.56.81Z"/>
      <path class="cls-53" d="M240.2,22.98c-.85-3.04-1.04-5.88-2.89-8.17s-6.34-2.44-8.9-3.51c2.84-.57,5.55-.81,7.91-2.22,2.73-1.63,3.13-6.07,3.71-9.08,1.1,2.64,1.17,7.3,4.01,9.07,2.32,1.45,4.94,1.63,7.71,2.22-1.6.84-3.22.85-4.73,1.26-5.84,1.62-5.47,5.88-6.82,10.43Z"/>
      <path class="cls-42" d="M166.01,30.64c.03.66-.01,1.43.17,2.08-.12,0-.26.1-.37.07-1.06-.27-8.45-.29-10.59.22-.71-.17-.48-1.89-.97-2.26-1.66-.41-3.85-.19-5.45-.3l-4.26-.27c-3.43-.22-5.14,1.04-7.03.73-1.17-.19-2.29-.98-3.64-.56-.91.28-1.73.8-2.72.62-.66-.41-.64-1.57-1.04-2.11l1.91-.94c.13-.06,7.65-.25,8.59-.23l11.53.28c2.1.05,4.23.9,6.43.19.18-.06,2.47.92,4.47,1.23,1.07.17,1.81,1.7,2.98,1.26Z"/>
      <path class="cls-12" d="M44.31,26.11c-.03.85-3.07,5.42-3.28,6.27-.22.91.31,2.18-.71,3.17-1.22,1.18-1.54,2.55-1.82,4.17-.3,1.73-1.99,2.99-2.45,4.73-.6,2.26-.47,3.51-2.62,4.01-.36-1.59-.39-4.96,2.41-6.01,0-.83.34-1.82.4-2.46.07-.83-.37-1.87.27-2.62-.51-.69-1.11.45-.99-.38l1.79-4.91c.58-.82,1.14-1.81,1.34-2.81,1.14-1.64,2.37-3.56,3-5.41-.81-.97-2.28-1.58-3.34-1.25.78-1.06,1.06-2.74,2.44-3.75,2.15,2.2.98,4.26,2.43,6.93.35.25.71-.27.94-.38.17-.09.17.59.2.71Z"/>
      <path class="cls-62" d="M33.43,48.45c-.04-.17-.1,4.65-1.93,5.91-.48.33.07,1.38-.25,1.78-.91,1.13-.85,4.89-.89,5.23-.04.37-2.36,6.07-3.2,5.05.28-1.01.12-2.29.31-3.2l1.28-6.09c1.45-6.91,4.38-13.59,6.77-20.15-.12.83.48-.3.99.38-.64.75-.2,1.79-.27,2.62-.06.65-.4,1.64-.4,2.46-2.8,1.05-2.77,4.42-2.41,6.01Z"/>
      <path class="cls-70" d="M154.25,41.45c-1.65.51-3.28-.56-4.88-.48-2.12.11-4.18-.15-6.14.05l-7.31.76c-.08,0-4.69-.66-5.07-.67.26-.96.67-2.16.82-3.16.83-.51,1.34.61,1.82.96,2.3.34,5.17,0,7.61.02,2.76.02,5.34.24,8.19-.13,1.51-.2,3.72-.45,4.78.53.77.71.74,1.78.18,2.14Z"/>
      <path class="cls-74" d="M35.49,173.55c-.43-.37-.79-1.24-.86-1.86-.59-5.28-6.4-3.12-5.15-4.46,1.13-1.2,4.17.41,5.16-4.15.16-.72.26-1.74.97-2.14.31,1.55.41,3.05,1.27,4.25.98,1.37,2.72,1.36,4.44,1.99-1.12,1.11-2.59.62-3.7,1.42-1.49,1.07-1.62,2.86-2.13,4.93Z"/>
      <path class="cls-18" d="M27.09,67.07c.24,2.76-1.56,3.55-.06,4.14-1.8,1.26-3.36,3.1-5.52,3.88-2.34-2.76-.22-1.96-.41-7.35-.02-.57.42-1.28.45-1.73,1.26.36,2.56.85,3.79,1.75.73-.2,1.18-.65,1.76-.68Z"/>
      <path class="cls-30" d="M254.22,36.04c-1.51-.91-.11-4.37-3.79-5.31-.76-.19-1.64-.19-2.32-.66.88-.79,1.85-.72,2.71-.99,2.46-.77,2.35-3.69,3.26-5.51.57,1.55.49,3.19,1.58,4.46s2.99,1.45,4.66,1.73c-3.24,1.91-4.97-.25-6.12,6.29Z"/>
      <path class="cls-65" d="M74.45,82.98c2.5-.93,4.01-2.94,5.29-5.04.5.46.88.94.84,1.61-.29,4.04-2.96,2.54-2.14,6.88.24,1.25.34,2.78-.04,3.95-.44.71-1.53,1.31-2.29,1.76-.85-.12,0-1.18-.03-1.58-.56-8.46-.61-4.33-1.53-5.99-.32-.59.25-1.15-.1-1.57Z"/>
      <path class="cls-44" d="M100.59,186.87c-.59.77-1.23,2.01-.94,3.19-1.03.36-7.56-3.1-8.17-3.54-.28-.2-.72-1-.54-1.27.91-1.3,7.67-.17,9.36.42.15.36-.19,1.24.29,1.2Z"/>
      <path class="cls-39" d="M66.32,36.23c-.58-.06-1.01.43-1.48.94-2.41,2.65-3.14.72-3.04,2.2-.81-1.12-2.3-1.74-3.51-2.27l.72-1.65,4.89-3.78c.48,1.53,1.68,3.1,2.42,4.57Z"/>
      <path class="cls-11" d="M89.49,77.9c.91.19,1.61,1.13,2.45,1.38-.84-.17-.75.82-1.22,1.31-2.88,3.06.21,4.63-2.47,5.83-.14.06-.26.48-.41.57-.98.55-.69-3.84-.68-3.8-.21-.72-.94-1.21-.94-1.91,0-1.36,1.85-3.3,1.99-3.39.39-.24.72-.11,1.27,0Z"/>
      <path class="cls-60" d="M131.96,162.99c-.76.08-1.5.41-2.36.58-1.45.29-3.01.1-4.42.72.09.51-.07.7-.34.53.27-1.04-.17-2.33.36-3.5.47.08.3-.49.56-.56.36-.1.64.45,1.03.44,1.18-.04,3.13-.85,4.1.22.48.54,1.06,1.13,1.06,1.59Z"/>
      <path class="cls-40" d="M237.11,212.9c-4.42,1.35-2.31,4.29-3.81,3.32-.68-.44-.28-2.56-2.57-2.89-.16-.02-.07-.56-.03-.68s.2-.2.5-.33c2.43-1.04,1.19-2.33,2.42-2.34,1.07,0-.69,1.38,3.49,2.92Z"/>
      <path class="cls-49" d="M27.16,66.43c-.05.17-.08.45-.06.64-.58.03-1.03.48-1.76.68-1.23-.89-2.53-1.39-3.79-1.75.04-.74.15-1.38.31-2.12,1.86.86,3.87.35,5.61-.66-.19.91-.03,2.19-.31,3.2Z"/>
      <path class="cls-83" d="M72.72,6.32c-1.33.92-2.45,1.91-2.89,3.81-.4-2.16-1.13-3.26-3.38-3.67,1.97-.8,2.87-1.31,3.38-3.44.51,1.74,1.59,2.42,2.89,3.3Z"/>
      <path class="cls-45" d="M231.78,32.91c.11-.2.64.14.8.22.25.12-.13.4-.25.52-.3.31-.98,0-.55-.74Z"/>
      <path class="cls-20" d="M229.4,26.11c.24-.14.3.85.02.98-.1.05-.28-.3-.39-.34-.24-.1-.06-.4.36-.64Z"/>
      <path class="cls-72" d="M155.38,173.21c.39.54.26,1.36.25,2.04-1.34.46-6.35,1.64-6.68-.67-.22-1.53,2.27-.52,3.11-.69l3.33-.68Z"/>
      <g>
        <g>
          <path class="cls-6" d="M63.13,172.9c-.03,2.32,3.1,3.34,3.94,5.89.11.39-.43.51-.54,1.19,5.44,6.26,12.73,10.12,20.92,10.9.44.04.94.16,1.31.4.35.23.5.8.29,1.33-.78,1.97-19.06.24-28.35-14.81-1.47-2.38-3.17-4.18-5.41-5.79-3.21-2.31-3.83-6.33-1.89-9.7,1.06-1.85,1.81-3.77,1.96-5.97.55-8.33,3.86-15.95,10.04-21.57,2.36-2.15,3.94-4.49,4.7-7.54,1.07-4.32,4.74-7.19,9.21-7.56,5.96-.49,8.59,2.59,13.95,4.14,10.19,2.94,12.64-3.65,22.83.96,4.25,1.92,7.45,5.09,9.23,9.48,4.32,10.65-2.02,15-1.71,22.38.61,14.45-7.11,27.85-20.48,33.8-.7.31-1.57.35-1.84-.21-.2-.41-.34-1.4.4-1.75,8.29-3.84,14.91-10.81,17.73-19.6,4.13-12.88-.62-26.89-11.37-35-4.01-3.02-8.11-4.74-12.97-5.71s-8.98.78-11.52,4.81c-4.05,6.43-10.33,4.5-16.4,7.12-6.38,2.76-8.2,10.64-8.68,16.88-.42,5.4.68,10.75,3.2,15.59.16.3.48.46.65.56.29.17.57-.1.82-.24Z"/>
          <path class="cls-36" d="M125.21,161.31c-.52,1.18-.09,2.46-.36,3.5l-1.09,4.19c-1.4,5.38-4.24,10.08-8.06,14.4-2.33,2.63-5.21,4.43-7.74,6.61l-4.96,2.25c-1.45.66-3.02-.89-3.35-2.2-.3-1.18.35-2.43.94-3.19,12.26-4.56,19.81-17.61,18.46-30.41-1.37-13.03-10.59-23.41-23.19-26.44-9.45-2.27-10.51,5.3-14.8,7.73-2.6,1.47-5.59,2.33-8.5,2.62-5.38.53-9.41,3.65-10.92,9-.75,2.66-1.39,5.21-1.47,7.92-.31,10.32,3.01,13.14,2.98,15.6-.25.15-.53.41-.82.24-.17-.1-.49-.26-.65-.56-2.52-4.84-3.61-10.19-3.2-15.59.48-6.25,2.3-14.12,8.68-16.88s12.35-.69,16.4-7.12c2.54-4.03,6.91-5.73,11.52-4.81,4.85.97,8.96,2.69,12.97,5.71,10.76,8.11,15.5,22.12,11.37,35-2.82,8.79-9.44,15.76-17.73,19.6-.75.35-.6,1.34-.4,1.75.26.55,1.14.52,1.84.21,13.37-5.96,21.1-19.35,20.48-33.8-.31-7.39,6.03-11.74,1.71-22.38-1.78-4.39-4.98-7.56-9.23-9.48-10.19-4.6-12.64,1.99-22.83-.96-5.36-1.55-7.99-4.64-13.95-4.14-4.47.37-8.14,3.24-9.21,7.56-.76,3.05-2.34,5.4-4.7,7.54-6.17,5.62-9.48,13.25-10.04,21.57-.15,2.2-.9,4.11-1.96,5.97-1.94,3.37-1.32,7.39,1.89,9.7,2.24,1.62,3.94,3.41,5.41,5.79,9.29,15.05,27.57,16.77,28.35,14.81.21-.53.06-1.1-.29-1.33-.37-.24-.87-.36-1.31-.4-8.18-.78-15.47-4.64-20.92-10.9.11-.68.64-.79.54-1.19.28.03.65.13.94.44,2.82,3.1,6.07,5.42,9.81,7.34,6.68,3.43,10.9,1.35,12.66,4.42.59,1.03.23,2.32-.51,3.19-.93,1.09-2.19.96-3.42.87-6.96-.54-13.22-2.93-18.88-7.16-4.23-3.17-7.2-7.22-10.1-11.59-1.33-2-10.76-6.41-5.48-15.07.94-1.55,1.42-3.26,1.54-5.04.62-9.31,4.72-17.45,11.69-23.59,1.6-1.41,2.48-3.43,3-5.4,1.22-4.59,4.77-8.19,9.55-8.99,8.9-1.48,15.03,5.79,21.03,4.76l8.5-1.46c6.77-1.17,13.34,2.93,17.21,8.17,4.26,5.78,4.91,13.14,2.25,19.65-2.24,5.5-1.58,6.3-1.65,11.99Z"/>
        </g>
        <g>
          <path class="cls-38" d="M130.11,28.86c.4.54.39,1.7,1.04,2.11.4,2.25.86,4.68.51,6.97-.15,1-.55,2.21-.82,3.16-.97,1.5-2.12,3.01-3.35,4.42-3.34,3.82-3.6,8.78-.94,13.11,1.12,1.82,2.23,3.75,2.2,5.98-.05,3.7-2.68,7.08-6.12,8.25-5.31,1.81-11.07-5.6-18.02,1.33l-2.8,2.8c-2.65,2.65-6.44,3.34-9.88,2.28-.83-.26-1.53-1.2-2.45-1.38-3.86-3.76-2.29-9.62-7.74-12.9s-10.71.87-15.04.21c-3.09-.47-5.29-2.73-6.23-5.11-2.54-6.46,1.6-9,4.17-11.88,3.08-3.46,3.67-8.04,1.68-12-.74-1.47-1.93-3.03-2.42-4.57-1.84-5.85,1.2-12.49,7.31-14.27,5.05-1.48,11.07,3.69,16.95-1.35l3.79-3.24c2.35-2.01,5.34-2.72,8.45-1.93,2.46.62,4.82,2.38,6.27,5.05,2.36,4.33,6.55,6.79,11.52,6.71s9.06,2.37,11.91,6.23ZM72.95,27.45c-.22.91-.82,2.04-.54,3.16.28.66,1.61.38,2.4.3.68.78,1.46,1.39,2.35,1.49.09.44-.14.95.3,1.01.47-1.64.37-3.56,1.61-4.79s3.29-1.11,4.78-1.72c-1.65-.38-3.72-.28-4.89-1.58s-.95-3.05-1.58-4.5c-.15,1.43-.36,3.33-1.49,4.62-1,1.14-2.83.98-4.32,1.45.32.39.95.31,1.37.54Z"/>
          <path class="cls-32" d="M79.75,77.94c-1.28,2.1-2.8,4.11-5.29,5.04-2.8.35-5.86-1.08-6.75-4.01-.79-2.64.74-4.86,2.37-6.74,1.29-1.48,2.34-2.98,4.31-3.55,2.96-.85,6.24.77,6.6,3.98.21,1.82-.36,3.82-1.25,5.28Z"/>
          <path class="cls-10" d="M134.9,59.42c-1.77-.78-3.69-1.92-4.85-3.55s-1-3.48-.12-4.89c1.87-2.99,5.74-1.49,8.58-.37,2.66,1.05,3.62,3.84,2.78,6.2-.93,2.63-3.82,3.75-6.39,2.62Z"/>
          <path class="cls-31" d="M77.16,32.41c-.66-3.3-.66-4.35-4.21-4.96-.43-.23-1.05-.15-1.37-.54,1.49-.47,3.32-.31,4.32-1.45,1.13-1.29,1.34-3.19,1.49-4.62.63,1.44.48,3.26,1.58,4.5,1.16,1.3,3.24,1.2,4.89,1.58-1.49.61-3.51.47-4.78,1.72s-1.15,3.15-1.61,4.79c-.43-.06-.21-.56-.3-1.01Z"/>
          <path class="cls-26" d="M77.16,32.41c-.89-.1-1.67-.71-2.35-1.49-.79.07-2.12.36-2.4-.3-.28-1.12.32-2.24.54-3.16,3.55.61,3.55,1.66,4.21,4.96Z"/>
        </g>
      </g>
      <g>
        <path class="cls-35" d="M209.98,71.21c.54-4.95-1.19-1.65-1.43-5.54.41-.17,1.81-.04,1.8-.64l-.04-3.18c-.02-1.15,1.74-1.34,2.54-2.08.63-.58.96-1.42,1.71-1.6.69-.17,1.68.11,2.21.7.77.87.11,4.65.29,4.49-.16.15-.6.37-.57.82.59.38,2.15,1.69,1.55,2.56-1.12,1.62-3.04,2.95-4.85,3.5l-3.21.97Z"/>
        <g>
          <path class="cls-7" d="M218.71,50.94c-1.81.9-4.77,1.03-4.2,4.35.22,1.29,1.82,2.5,3.63,2.02,1.08-.29,2.1-1.77,2.98-2.46.64.25,1.45-.65,2.2-.61l3.76.21c.27.02.36,1.07.83.5l.53-.64c1.73-2.08,2.67-12,4.68-11.65.65.11.77.58.83,1.26.42,4.87-.65,9.33-3.04,13.66,2.59,6.17.53,1.62,1.38,6.74-3.32,3.64-.77,3.4-3.29,4.54-3.75,1.7-4.93.68-7.18,1.09-.62.11-1,.17-1.63.68-8.33,6.74-10.86,4.73-13.68,7.45-.59.57-1.84,1.92-2.73,1.7l-2.97-.73c-1.76-.43-3.27-1.36-5.21-1.63-4.41-.63-8.48-1.8-12.21-4.11-.53-.33-1.72-1.09-2.07-.62l-.68.93c-1.35,1.84-.26-2.21-2.04-3.47-.98-.69-1.92-1.18-3.32-.91-1.94.37-1.03-2.16-2.08-3.15-.61-.57-2.95-.22-3.35-.77-.73-1.02.59-1.52-.91-3.27-1.02-1.19-2.83-.14-3.64-1-.97-1.02,1.29-3.84-.46-6.69-.68-1.11-2.12-.79-3.16-1.31-1.62-.8,1.72-2.5,1.16-5.32-.44-2.2-2.93-1.89-2.44-3.52.39-1.33,1.48-.89,1.87-2.13,1.25-.53,1.21-2.33.91-3.78-.55-2.68-5.52-2.26-4.61-4.11,1.11-2.26,4.89,2.6,7.24-1.43.12.03.26-.07.37-.07.23.84.33,1.74.1,2.82-1.86,8.61-.7,17.27,3.97,24.78,2.54,4.09,6.2,8.27,10.1,10.7.34.22-.17,1.37.53,1.46,1.07-.89,2.91-1.54,4.19-.81,1.46.83,6.08,3.93,6.4.88-2.97-1.64-5.97-3.9-7.92-6.77-.84-1.25-1.92-1.29-2.93-1.94-2.09-1.36-4.22-2.55-6.08-4.07-1.95-1.6-2.56-4.1-3.61-6.2-.85-1.7-1.04-3.58-1.71-5.35-.87-2.3-.93-4.28-.91-6.56.03-2.6-.13-4.95,1.21-7.51.94-1.8,1.66-3.92,3.79-4.7,1.72-.62,3.03-1.76,4.36-3.12l5.77-5.94c.32-.33-.24-1.2.69-1.44-3-1.63-2.15-3.2-3.51-3.74-.3-.12-1.13.16-.97.51.67,1.51-.68,5.19-2.86,6.4-1.6.89-3.53.99-5.23.35,4.35-8.47,4.34-5.19,6.42-6.97,3.92-3.36,8.57-5,13.39-6.44,3.34-1,6.39-1.38,9.87-1,2.89.31,5.63.66,8.43,1.78,3.39,1.35,6.71,2.54,9.23,5.43,1.08.41,2.12,1.04,2.92,2.14.91.23,1.9,1.77,1.21,2.5-1.81.29-6.52-4.36-7.82-4.95l-4.58-2.08c-1.91-.87-8.49-1.81-10.43-1.33-6.83,1.7-12.77,1.19-15.7,7.27,2.2.39,3.68-2.46,4.6-2.44s.99,2.25,4.75,2.27c1.41,0,2.49-.21,3.55-1.42.4-.46,2.05-.91,2.12.04.17,2.3.92,3.98,3.39,4.85.81.29,3.53-.9,4.59-.1s-.75,2.97,1.08,3.73c2.41,1.01,3.44-1.83,4.7-1.36,1.01.38-1.57,2.45-1.77,4.12s.89,2.85,1.77,3.98c2.47,3.14,4.8-.94,7.44-.35.17,2.06-4.47,2.02-5.41,4.5s3.68,3.14,2.16,4.95-1.77,4.81.18,6.44c1.03.86,1.54,1.69,1.06,2.9ZM208.55,65.67c-4.23.3-4.25,3.11-5.85,4.73-.76.77-2.82,1.4-3.89,1.04-2.28-.76-4.6-1.25-6.49,1,4.13,2.81,13.75-.06,17.66-1.24l3.21-.97c1.81-.55,3.73-1.88,4.85-3.5.6-.86-.96-2.18-1.55-2.56-.04-.45.4-.67.57-.82-.17.16.49-3.62-.29-4.49-.53-.59-1.52-.87-2.21-.7-.75.19-1.08,1.02-1.71,1.6-.8.74-2.56.93-2.54,2.08l.04,3.18c0,.6-1.4.47-1.8.64Z"/>
          <path class="cls-75" d="M166.18,32.72c-.18-.64-.13-1.42-.17-2.08,1.89-1.87,3.9-3.83,3.18-6.61-.19-.75-3.24-2.85-1.91-4.01.5-.44,1.16-.33,1.58.18l1.58,1.93c.33.4.73.57,1.1.34,1.7.64,3.63.54,5.23-.35,2.18-1.22,3.52-4.89,2.86-6.4-.16-.36.68-.63.97-.51,1.36.54.51,2.11,3.51,3.74-.93.24-.37,1.11-.69,1.44l-5.77,5.94c-1.32,1.36-2.64,2.5-4.36,3.12-2.13.77-2.85,2.9-3.79,4.7-1.34,2.56-1.18,4.92-1.21,7.51-.03,2.28.04,4.26.91,6.56.67,1.77.86,3.65,1.71,5.35,1.05,2.1,1.66,4.6,3.61,6.2s3.98,2.72,6.08,4.07c1.02.66,2.09.7,2.93,1.94,1.94,2.88,4.95,5.14,7.92,6.77-.31,3.06-4.94-.05-6.4-.88-1.28-.73-3.12-.07-4.19.81-.7-.09-.19-1.25-.53-1.46-3.9-2.44-7.56-6.61-10.1-10.7-4.67-7.51-5.83-16.17-3.97-24.78.23-1.08.13-1.98-.1-2.82Z"/>
          <path class="cls-82" d="M221.12,54.85c-.88.69-1.9,2.17-2.98,2.46-1.82.48-3.41-.73-3.63-2.02-.57-3.32,2.4-3.45,4.2-4.35l.88,1.18c.59.79.61,2.2,1.53,2.73Z"/>
          <path class="cls-78" d="M208.55,65.67c.24,3.89,1.97.59,1.43,5.54-3.92,1.18-13.53,4.04-17.66,1.24,1.89-2.25,4.21-1.76,6.49-1,1.07.36,3.13-.28,3.89-1.04,1.6-1.62,1.62-4.43,5.85-4.73Z"/>
        </g>
      </g>
      <g>
        <path class="cls-15" d="M252.57,137.81c-.42.66-.35,1.53-.62,2.2l-2.04,5.13c-3.85,9.71-9.53,18.7-15.34,27.22-.91.99.5-1.48.32-1.24l2.03-2.56c.94-1.18,7.26-11.63,7.89-14.04-.43-.49-.85-.02-1.22-.16.11-.71.85-.27,1.28-.5.55-1.18-.21-2.54.19-3.77.37-1.13.78-2.08.74-3.1.96.23,1.47-.26,2.03-.84.75-.77.18-1.5.42-2.36l.85-3c.2-.72,1.51-3.94,2.74-3.79.55.07.29.62.73.81Z"/>
        <path class="cls-22" d="M243.69,172.2c-.04,1-.25,2.01-.2,3-.43-.22-.59.33-.75.59-.57.93-3.01,5.04-4.38,4.19.11-1.17,1.35-1.72,1.69-2.9-.1-.35-.87-.36-1.02-.57-.22-.31.63-.68.58-1.01-.08-.58-.68-1.01-.51-1.64,0,0,9.57-14.07,9.73-14.37,1.53.32-1.86,6.46-2.61,7.58-.48.72-1.73.63-2.1,1.42-.59,1.23-.4,2.56-.44,3.7Z"/>
        <path class="cls-67" d="M258.66,136.33c-.69,1.88-1.02,3.96-2.08,5.63-.74-.97-1.63-2.23-3.15-2.41-.57-.07-1.08.89-1.47.45.27-.67.2-1.54.62-2.2s.46-2.49,1.49-2.62c1.18-.15,2.25.59,3.55-.38.17,1.01.77,1.04,1.04,1.53Z"/>
        <path class="cls-5" d="M254.5,147.2c-1.55,4.15-3.47,8.39-5.66,12.31-.17.3-9.72,14.36-9.73,14.37l-2.95,3.19c-1.3-.46-2.01-1.74-3.08-2.51l1.5-2.19c5.81-8.52,11.49-17.51,15.34-27.22,3.01-.13,1.82.47,4.58,2.06Z"/>
        <g>
          <path class="cls-50" d="M261.01,137.17c-.14-.69-.53-1-.72-1.4-3.27-7.13-6.38-13.94-3.51-22.13,4.58-13.05-1.07-10.84-1.36-18.18-.09-2.39-2.77-4.21-1.55-6.8-.5-1.29-2.32-2.13-3.87-2.57.47,5.28-.22,10.35-3.31,14.49-.28.38-.8.63-1.12.73-.22.07-.83-.23-.81-.61.22-4.92.25-9.66-1.09-14.43-1.5-.1-5.76,1.85-6.39.8-.88-1.45-1.38-2.93-2.14-4.71,1.61-1.4,3.13-2.7,5.02-3.57l12.02-5.54c2.85-1.32,5.52-1.75,8.6-.92,3.25.88,6.31,2.16,8.47,4.8.5.61.57,1.48.42,2.03-.48,1.69-6.2,2.06-6.02,4.88.03.42.74.66,1.11,1.04,1.18,1.22,1.54,2.79,2.11,4.41,13.06,11.32,20.89,24.64,25.65,41.3.64,2.24-.24,5.25-2.29,6.21l-17.52,8.24c-6.76,3.18-9.08-3.77-11.68-8.06ZM255.82,87.7l6.2-2.94c-.88-4.7,4.2-4.54,5.99-6.62-3.19-2.82-8.29-5.98-12.43-4.21l-14.58,6.26c.41,1.86,1.02,3.01,1.91,4.31,5.59-1.1,8.67-.67,12.91,3.2ZM240.99,84.88c-.57-1.41-.92-2.43-1.56-3.61-.9.48-1.49.88-2.23,1.49.51.95.55,2.01,1.33,2.77.69.14,1.8-.34,2.47-.65ZM248.23,85.88c-1.1-.17-1.94-.3-2.87.12,1.06,3.78,1.31,7.47,1.21,11.25,2.02-3.62,2.09-7.5,1.67-11.36ZM265.1,89.86c-.68-1.63-.81-2.57-1.64-3.68l-8.15,3.78c.4,1.48.76,2.39,1.49,3.74,2.8-1.29,5.65-2.14,8.3-3.84ZM265.89,141.97c1.26,1.97,3.4,2.83,5.51,1.85l17.48-8.07c1.48-.68,2.49-2.51,2.01-4.24-4.39-15.67-12-29.28-24.54-40.14l-9.03,4.2c-.47.92.23,2.59.79,3.43,1.96,2.93,2.71,6.26,1.91,9.75-1.6,6.98-4.26,10.06-1.45,18.25,1.84,5.36,4.31,10.24,7.32,14.96Z"/>
          <path class="cls-17" d="M265.89,141.97c-3.01-4.72-5.48-9.61-7.32-14.96-2.81-8.19-.15-11.27,1.45-18.25.8-3.49.05-6.83-1.91-9.75-.56-.84-1.26-2.51-.79-3.43l9.03-4.2c12.53,10.86,20.15,24.47,24.54,40.14.48,1.72-.53,3.55-2.01,4.24l-17.48,8.07c-2.1.97-4.25.12-5.51-1.85Z"/>
          <path class="cls-37" d="M265.1,89.86c-2.65,1.71-5.5,2.56-8.3,3.84-.72-1.35-1.08-2.26-1.49-3.74l8.15-3.78c.83,1.11.96,2.04,1.64,3.68Z"/>
          <path class="cls-34" d="M240.99,84.88c-.67.31-1.77.79-2.47.65-.78-.76-.82-1.82-1.33-2.77.74-.61,1.33-1.01,2.23-1.49.65,1.18,1,2.21,1.56,3.61Z"/>
        </g>
        <g>
          <path class="cls-13" d="M221.91,116.7c.72,1.75-2.5,1.9-2.16,5.88.02.19-.52.53-.4.75.06.12.05.12.52.5-.58.95-.07,1.92-.2,2.75-.09.55-.47,1.28-.22,2.09-5.12,2.71-3.4,3.77-5.34,6.32-.18.24.38,1.13.14,1.51-.19.31-.43.62-1.15.85-1.45.46-2.18,2.34-3.62,1.66-2.18-1.02.37-4.54-1.22-5.07-1.15-.38-1.28,2.66-2.56,2.57-1.43-.1-3.12.02-4.52-.57-1.12-.47-1.68-2.03-3.19-1.92-.71.05-.87,1.13-1.34,1.7-2.01,2.41-4.56-2.34-5.98,1.39-1.21,3.2-5.18,2.23-5.77,2.83-.5.5-.02,2.06-.84,2.66-1.11.82-3.16-1.87-4.04-.95.1,1.14,3.21,2.63,2.38,4.19s-3.38.01-3.38,1.78c0,.77,1.08,1.28.99,2.03-.22,1.82-1.62,2.8-3.26,3.48.55,1.25,1.72,1.63,2.27,2.66,1.67,3.16-3.59,5.82.84,7,3.8,1.01.9,6.66,3.4,6.56,3.39-.14,5.79,2.29,5.79,5.57,0,.52.59.92.86,1.08.79.46,3.25-3.5,6-.98.61.56.51,1.96,1.48,2.3.83.29.94-1.76,2.07-2.22,1.8-.73,2.84,1.89,3.75.97s.19-3.02,5.25-2.84c.84.18,2.02,3.4,2.97,2.77.68-.46-1.2-1.51-.85-3.89.09-.61-.29-1.47.21-2.04.46-.52,3.9-.94,4.02-2.5.15-1.88,1.07-3.88,3.21-3.92,1.85-.03,4.11,1.62,4.54.94.72-1.14-2.72-1.35-4.62-3.22-.9-.89.82-1.95,1.32-2.86.33-.61-1.49-1.96-1.16-3.34.38-1.62,3.9-1.94,3.63-3.01-.15-.82-1.57-.49-2.33-.48-1.63.02-2.75-1.77-2.24-3.4s1.58-3.18,2.94-4.2c.94-.71,2.61.36,3.53.63.49-.14.8-.9,1.14-1.08.53-.28,1.34-.45,2.28.34-.03-1.53.68-2.09,1.71-2.87.97-1.14.19-3.11,2.59-3.44-.52-.64-1.26-.74-1.25-1.22l.06-2.11c.02-.7-.57-1.23-.66-2.18-.09-.89-2.89-2.25-2.54-3.53l.17-.63c2.53-1.82,2.88-.83,2.97-3.12.03-.79-.55-1.55.23-2.15.91-.7,1.76-1.41,2.02-2.58.17-.78.93-1.51.39-2.68-.1-.22.59-.78.28-.99-.06-.04.07-.21.01-.29,3.02.27,8.16-1.07,11.7-1.78,1.14,8.07,1.83,15.93,1.43,23.91-.14,2.68-.02,5.2-.5,7.67-2.76.98-1.65,2.28-3.12,3.43s1.94,1-1.19,4.31c-3.53,3.73-2.12,5.92-5.42,8.39-.45.33.05,1.25-.41,1.67-.56.51-1.39.91-1.25,1.71-.88-.32-2.07-.43-2.62-1.43-.7-1.29-.28-2.85-1.59-4.07.1,2.82-1.06,5.61-3.96,5.54-.55-.01-.86-.04-.78.49.15,1.05,4.43.33,4.68,4.71.02.31.34.36.46.37,1.42.08-1.1-3.43,5.36-4.6.19-.03.69.22.74-.14.03-.26-.36-.5-.3-.79.78-3.73.58-1.93,3.41-5.44.59-.73,1.59-1.13,1.13-2.31.86.08,2.8-3.53,2.79-3.47.37.14.79-.33,1.22.16-.63,2.41-6.95,12.86-7.89,14.04l-2.03,2.56c.19-.24-1.22,2.23-.32,1.24l-1.5,2.19-2.76,3.53c-4.08,5.21-10.52,11.76-15.43,15.76l-4.09,3.34c-.95.77-1.66,1.9-2.9,1.96-1.35-.24-1.33-6.63-2.17-5.71-.98,1.07-.54,5.49-2.81,7.73-.98.05-1.93.1-2.79.09-7.46-.13-14.93.26-22.46.86l-5.11.41c-.55.04-1.05-.37-1.49-.3-2.94-4.15-9.1-10.7-14.78-9.17-1.17-.99-1.03-.57-.98-3.06l.3-14.73c.01-.68.15-1.5-.25-2.04.91-.21.38-1.11.56-1.72.35-1.25.41-2.44.43-3.92s.5-2.91.54-4.2l.07-2.17c.26-8.6,1.76-17.02,1.6-25.6-.13-6.76-.66-13.34-1.96-20.12,2.01-.49,3.68-1.15,5.41-.81l.76.15.6-.34c7.97-4.51,19.27-1.2,28.82-.32l12.85,1.19c1.3.12,2.31.24,3.6.6,1.11.31,11.74.64,13.26.76ZM175.58,183.24c2.8,2.11,6.56,1.1,8.18-1.91,1.18-2.19,1.16-5.13-.7-6.88s-4.21-2.1-6.47-1.08c-2.77,1.25-4.13,3.44-3.51,6.49.33,1.6,1.08,2.31,2.5,3.38ZM189.71,186.07c.95-.34,1.38-1.23,1.41-1.85.03-.68-.21-1.41-.88-1.78-.78-.44-1.74-.23-2.35.35-.56.55-.57,1.41-.24,2.3.21.58.99,1.37,2.06.98Z"/>
          <path class="cls-43" d="M244.66,199.48c.06.12-.04.55.06.66l-.22,4.02c-1.33-.57-2.36-.62-3.36-.41-.28-.07-.73.06-1.05-.07.05-.26-.12-.44-.38-.3-.21.12-.44-.08-.7-.07h-.32s-.35,0-.35,0c1.04-.55-4.49-.37-4.2-.24-.28.1-.72,0-1.05-.08.27-.7-10.18-1.25-10.86-.95-.2.22-.5.19-.7-.02-.11-.14-.23-.14-.35,0-2.93-.1-5.86-.47-8.81-.37-.46.02-.85-.35-1.29-.46,1.15-1.55,2.69-2.86,4.47-3.87.33-.19.44-.56.68-.74,2.49-1.92,4.93-3.96,7.43-6.21l3.49-3.14,3.63,1.56c2.02-1.13,3.03-3.35,4.63-5.24.41-.48,1.02-.75,1.67-1.69l1.3-1.87c1.37.84,3.81-3.26,4.38-4.19l.34,10.89c.05,1.54.25,2.98.37,4.45l.35,4.3c.1,1.28-.22,3.08.86,4.03Z"/>
          <path class="cls-25" d="M245.8,146.98c.04,1.02-.37,1.98-.74,3.1-.4,1.23.35,2.59-.19,3.77-.42.24-1.16-.2-1.28.5,0-.06-1.93,3.55-2.79,3.47.47,1.18-.54,1.57-1.13,2.31-2.83,3.51-2.63,1.71-3.41,5.44-.06.29.33.52.3.79-.04.36-.55.11-.74.14.07-.83-.94-.8-1.56-1.02-.14-.8.69-1.2,1.25-1.71.46-.42-.03-1.33.41-1.67,3.31-2.47,1.9-4.65,5.42-8.39,3.13-3.31-.27-3.18,1.19-4.31s.36-2.45,3.12-3.43c-.07.34.13.66.15,1Z"/>
          <path class="cls-41" d="M226.95,128.62c-.34,1.28,2.46,2.65,2.54,3.53.09.95.68,1.48.66,2.18l-.06,2.11c-.01.48.73.57,1.25,1.22-2.4.33-1.62,2.3-2.59,3.44-1.03.78-1.75,1.34-1.71,2.87-.94-.79-1.74-.63-2.28-.34-.34.18-.65.95-1.14,1.08-.92-.27-2.59-1.34-3.53-.63-1.36,1.03-2.45,2.62-2.94,4.2s.61,3.42,2.24,3.4c.76-.01,2.18-.33,2.33.48.28,1.07-3.24,1.39-3.63,3.01-.33,1.38,1.5,2.73,1.16,3.34-.5.91-2.21,1.97-1.32,2.86,1.89,1.87,5.34,2.08,4.62,3.22-.43.68-2.69-.97-4.54-.94-2.14.04-3.07,2.04-3.21,3.92-.12,1.56-3.57,1.99-4.02,2.5-.5.56-.12,1.43-.21,2.04-.36,2.38,1.53,3.43.85,3.89-.95.64-2.13-2.58-2.97-2.77-5.06-.19-4.32,1.89-5.25,2.84s-1.95-1.71-3.75-.97c-1.13.46-1.24,2.51-2.07,2.22-.97-.34-.87-1.74-1.48-2.3-2.74-2.51-5.21,1.44-6,.98-.27-.16-.86-.56-.86-1.08,0-3.28-2.4-5.71-5.79-5.57-2.5.11.4-5.54-3.4-6.56-4.43-1.18.84-3.84-.84-7-.55-1.03-1.72-1.4-2.27-2.66,1.64-.68,3.05-1.66,3.26-3.48.09-.75-.99-1.26-.99-2.03,0-1.77,2.56-.24,3.38-1.78s-2.28-3.05-2.38-4.19c.88-.92,2.93,1.76,4.04.95.82-.6.34-2.16.84-2.66.59-.59,4.55.37,5.77-2.83,1.41-3.72,3.97,1.02,5.98-1.39.47-.57.64-1.65,1.34-1.7,1.51-.11,2.07,1.44,3.19,1.92,1.4.59,3.09.47,4.52.57,1.27.09,1.41-2.95,2.56-2.57,1.59.53-.96,4.05,1.22,5.07,1.45.67,2.17-1.2,3.62-1.66.72-.23.95-.54,1.15-.85.24-.38-.32-1.27-.14-1.51,1.94-2.56.22-3.62,5.34-6.32-.25-.81.14-1.54.22-2.09.12.82.32,1.37.98,1.62.86.33,1.64-.68,2.27-.44l2.73,1.07c.38.15.93-.52,1.3-.23Z"/>
          <path class="cls-2" d="M175.58,183.24c-1.42-1.07-2.17-1.78-2.5-3.38-.62-3.05.74-5.24,3.51-6.49,2.27-1.02,4.7-.6,6.47,1.08,1.86,1.76,1.88,4.69.7,6.88-1.62,3.01-5.38,4.02-8.18,1.91Z"/>
          <path class="cls-64" d="M236.16,177.06c-1.36,1.47-2.53,3.08-3.97,4.66l-5.05,5.5-3.49,3.14c-2.5,2.25-4.94,4.3-7.43,6.21-.41-1.75-1.49-.96-1.33-2.74,4.91-4,11.35-10.55,15.43-15.76l2.76-3.53c1.07.77,1.78,2.05,3.08,2.51Z"/>
          <path class="cls-33" d="M225.68,110.78l-2.41,9.39c.91-1.01,1.85-.34,2.72-.49.73-.13,1.45-.91,2.19-.64.52-.85.56-1.99.81-3.01.3-.09.54.2.75.05.34-.25-.01-.66.35-1.04.45.33.03.69.08.92.06.31.42.62.74.59-.39.81-.65,3.08-.53,3.01-2.82,1.75.62.13-2.58,2.4l-2.42,6.14c.77.22,1.36-.05,1.74-.11l-.17.63c-.38-.29-.92.38-1.3.23l-2.73-1.07c-.63-.25-1.41.76-2.27.44-.66-.25-.86-.81-.98-1.62.13-.83-.38-1.8.2-2.75-.47-.38-.46-.39-.52-.5-.12-.22.41-.56.4-.75-.34-3.98,2.88-4.14,2.16-5.88,3.35.28,2.4-6.52,3.77-5.92Z"/>
          <path class="cls-28" d="M234.26,165.48c.62.22,1.64.19,1.56,1.02-6.46,1.16-3.94,4.68-5.36,4.6-.12,0-.44-.05-.46-.37-.25-4.38-4.53-3.67-4.68-4.71-.08-.53.24-.51.78-.49,2.9.06,4.06-2.72,3.96-5.54,1.31,1.22.89,2.78,1.59,4.07.54,1,1.73,1.11,2.62,1.43Z"/>
          <path class="cls-14" d="M233.01,116.46c.31.21-.38.77-.28.99.54,1.18-.22,1.9-.39,2.68-.26,1.17-1.11,1.88-2.02,2.58-.78.6-.19,1.36-.23,2.15-.09,2.29-.44,1.3-2.97,3.12-.39.05-.97.32-1.74.11l2.42-6.14c3.19-2.28-.25-.65,2.58-2.4-.12.07.15-2.2.53-3.01.7-.22,1.38-.05,2.1-.08Z"/>
          <path class="cls-51" d="M216.22,196.58c-.24.18-.35.55-.68.74-1.78,1.01-3.32,2.31-4.47,3.87-.71.29-1.87.62-2.5-.08-.52-.57-.99-1.11-.67-1.97,1.24-.06,1.95-1.18,2.9-1.96l4.09-3.34c-.16,1.78.92.99,1.33,2.74Z"/>
          <path class="cls-48" d="M189.71,186.07c-1.06.38-1.84-.4-2.06-.98-.32-.89-.32-1.75.24-2.3.6-.58,1.57-.79,2.35-.35.67.38.91,1.11.88,1.78-.03.62-.46,1.51-1.41,1.85Z"/>
          <path class="cls-80" d="M238.36,179.99l-1.3,1.87c-.65.93-1.26,1.2-1.67,1.69-1.6,1.88-2.62,4.1-4.63,5.24l-3.63-1.56,5.05-5.5c1.44-1.57,2.61-3.19,3.97-4.66l2.95-3.19c-.17.63.43,1.06.51,1.64.04.33-.8.7-.58,1.01.15.21.92.22,1.02.57-.34,1.18-1.58,1.73-1.69,2.9Z"/>
        </g>
        <path class="cls-3" d="M228.99,116.02c-.24,1.02-.28,2.16-.81,3.01-.74-.26-1.46.52-2.19.64-.87.15-1.81-.52-2.72.49l2.41-9.39c1.7-6.63,2.06-13.54,2.25-20.59.02-.79.19-1.59.89-1.82,2.8,7.41,1.7,20.39.17,27.65Z"/>
        <path class="cls-56" d="M256.58,141.96l-.37,2.16-1.71,3.08c-2.76-1.59-1.57-2.2-4.58-2.06l2.04-5.13c.39.44.91-.52,1.47-.45,1.52.18,2.41,1.44,3.15,2.41Z"/>
      </g>
      <g>
        <path class="cls-57" d="M171.08,202.21c1.03,1.45,2.38,2.7,3.98,3.79,2.22,1.52,3.5,3.78,5.16,5.77s7.34,6.44,3.69,8.99c-1.88,1.32-4.05,2.33-6.54,2.93-10.85,2.59-21.92,2.86-32.87.97-3.12-.54-12.28-2.22-12.61-5.95-.13-1.43.84-3.05,1.87-4.03,2.97-2.81,5.41-5.78,7.63-9.18,1.68-2.57,3.8-4.5,6.47-5.88,1.53-.79,5.54-5.74,8.45-6.58,5.68-1.53,11.84,5.02,14.78,9.17ZM155.92,224.1c4.43.71,25.14-.97,27.3-5.38.34-1.31-1.45-2.77-2.23-3.53-1.53-1.48-2.68-2.92-3.86-4.63-2.31-3.35-4.49-3.22-7.71-7.7-2.63-3.66-6.84-7.99-11.32-8.22-3.35-.17-6.87,5.09-9,6.23-7,3.74-6.32,7.71-14.09,15.03-.54.51-1.58,1.96-1.29,2.74,1.39,3.72,18.75,5.7,22.2,5.46Z"/>
        <path class="cls-1" d="M141.67,229.8c-.42,2.35-11.74,2.55-10.11-1.28.77-1.8,2.46-3.51,4.46-3.75,3.32-.4,5.95,3.39,5.65,5.03ZM139.91,229.22c-.63-1.25-1.65-2.69-3.16-2.8-1.67-.12-2.98,1.37-3.56,2.77,2.21.93,4.52.93,6.72.03Z"/>
        <path class="cls-71" d="M129.99,224.79c-2.51,1.85-8.8,1.05-7.76-1.46.62-1.51,1.94-2.89,3.63-3.21,2.72-.52,5.47,3.69,4.13,4.67ZM128.37,223.62c-.59-1.41-1.38-1.94-2.3-1.78-.76.13-1.58.86-2,1.88,1.44.46,2.93.69,4.31-.11Z"/>
        <path class="cls-76" d="M158.09,194.64c.06.24-.55.58-.31.87,1.47,1.51,2.53,3.06,3.25,4.91,1.02,2.63,2.27,4.94,3.78,7.47.85,1.42,1.49,3.65.36,4.92-3.19,3.6-.94,4.54-9.08,10.09-.3.2-.78.29-.61.63.09.17.25.42.42.57-3.46.24-20.81-1.74-22.2-5.46-.29-.78.74-2.23,1.29-2.74,7.77-7.32,7.09-11.29,14.09-15.03,2.13-1.14,5.65-6.4,9-6.23ZM152.96,200.94c-.59.43-.39.96-.08,1.19.44.34.82.32,1.12,0s.31-.7.11-.93c-.32-.38-.73-.57-1.15-.26ZM156.76,204.41c-.51.42-.37.99-.07,1.21.39.29.77.22,1.04-.06.26-.26.27-.64.14-.87-.2-.38-.7-.63-1.11-.29ZM144.91,209.02c-.48.42-.27.88-.02,1.12.34.31.81.21,1,0,.34-.36.31-.66.13-.89-.27-.36-.69-.61-1.12-.23ZM145.96,213.34c-.5.58-.09,1.15.36,1.29.22.07.55-.08.78-.4.18-.25.22-.64-.11-.96-.22-.21-.66-.37-1.03.06ZM150.84,214.97c-.52.24-.6.71-.42,1.09s.77.4,1.13.18c.25-.15.37-.66.13-.99-.13-.17-.49-.44-.84-.28ZM156.42,216.68c-.53.24-.53.86-.37,1.11.26.41.76.39,1.1.2.38-.21.44-.67.21-1.06-.13-.22-.52-.45-.95-.25ZM145.88,219.21c-.56.39-.4.96-.1,1.23.21.19.58.13.87-.07.23-.16.45-.56.17-.97-.12-.18-.48-.51-.94-.2Z"/>
        <path class="cls-63" d="M155.92,224.1c-.17-.15-.33-.4-.42-.57-.17-.34.31-.43.61-.63,8.13-5.55,5.89-6.49,9.08-10.09,1.13-1.28.49-3.5-.36-4.92-1.51-2.53-2.76-4.84-3.78-7.47-.72-1.85-1.78-3.4-3.25-4.91-.24-.29.37-.63.31-.87,4.48.23,8.7,4.56,11.32,8.22,3.22,4.49,5.4,4.35,7.71,7.7,1.18,1.71,2.33,3.14,3.86,4.63.78.76,2.57,2.21,2.23,3.53-2.16,4.42-22.87,6.09-27.3,5.38Z"/>
        <path class="cls-69" d="M139.91,229.22c-2.2.9-4.51.9-6.72-.03.59-1.4,1.89-2.89,3.56-2.77,1.5.11,2.53,1.55,3.16,2.8Z"/>
        <path class="cls-16" d="M128.37,223.62c-1.38.8-2.87.57-4.31.11.43-1.02,1.24-1.75,2-1.88.92-.16,1.71.37,2.3,1.78Z"/>
        <path class="cls-73" d="M152.96,200.94c.42-.31.83-.12,1.15.26.2.24.17.63-.11.93s-.67.34-1.12,0c-.31-.24-.52-.76.08-1.19Z"/>
        <path class="cls-66" d="M156.76,204.41c.41-.34.91-.09,1.11.29.13.23.12.61-.14.87-.27.28-.65.34-1.04.06-.3-.22-.44-.79.07-1.21Z"/>
        <path class="cls-23" d="M144.91,209.02c.43-.38.86-.13,1.12.23.18.24.2.53-.13.89-.19.2-.67.31-1,0-.25-.23-.47-.69.02-1.12Z"/>
        <path class="cls-55" d="M156.42,216.68c.43-.2.82.04.95.25.23.39.17.85-.21,1.06-.34.19-.84.21-1.1-.2-.16-.25-.17-.87.37-1.11Z"/>
        <path class="cls-29" d="M145.96,213.34c.37-.43.81-.27,1.03-.06.33.32.29.71.11.96-.22.31-.56.46-.78.4-.45-.14-.87-.71-.36-1.29Z"/>
        <path class="cls-68" d="M150.84,214.97c.35-.16.71.1.84.28.25.33.12.84-.13.99-.35.22-.95.19-1.13-.18s-.1-.85.42-1.09Z"/>
        <path class="cls-54" d="M145.88,219.21c.46-.32.82.02.94.2.28.41.07.8-.17.97-.3.21-.66.26-.87.07-.3-.27-.47-.84.1-1.23Z"/>
      </g>
      <g>
        <path class="cls-79" d="M58.3,37.1c1.21.54,2.7,1.15,3.51,2.27.75,1.04.45,2.64-.08,3.57-.57,1.01-1.79,1.45-3.09,1.53-1.99.11-3.71-.53-4.63-2.32-.76-1.47-.56-2.93.52-4.18.86-.99,2.35-1.14,3.77-.87Z"/>
        <path class="cls-8" d="M38.64,29.26c.23-.29-2.41-.61-3.44-1.37.77-1.92,1.9-3.65,3.1-5.29,1.06-.33,2.53.28,3.34,1.25-.63,1.85-1.86,3.77-3,5.41Z"/>
        <path class="cls-61" d="M38.64,29.26c-.2,1-.76,1.99-1.34,2.81-.06-.02-.12-.13-.16-.35-1.39.1-2.48-.57-3.38-1.47.07-.13.2-.18.03-.32.38-.66,1.12-1.34,1.4-2.04,1.03.76,3.67,1.08,3.44,1.37Z"/>
        <path class="cls-19" d="M37.3,32.07l-1.79,4.91c-2.39,6.57-5.31,13.24-6.77,20.15-1.09.26-1.8-.37-2.86-.51l-2.29-.31c2.7-8.94,5.75-17.8,10.17-26.06.89.9,1.99,1.56,3.38,1.47.04.22.1.33.16.35Z"/>
        <path class="cls-52" d="M28.75,57.13l-1.28,6.09c-1.75,1.01-3.75,1.52-5.61.66l1.24-5.9.51-1.67,2.29.31c1.06.14,1.77.77,2.86.51Z"/>
        <g>
          <path class="cls-58" d="M21.52,75.09c2.16-.77,3.73-2.62,5.52-3.88,2.48-1.74,5.72-1.47,8.01.17l24.24,17.3c2.28,1.63,2.61,4.23.98,6.42,1.43,1.51,1.41,3.67-.29,4.89l-25.53,18.25c-1.83,1.31-4.23,1.7-6.07.39l-19.62-13.94-5.55-3.95C1.15,99.27-.02,97.04,0,94.56s1.11-4.58,3.27-6.16l18.24-13.32ZM48.8,105.8c3.46-2.18,6.7-4.72,10.17-7.19.44-.31.52-.94.59-1.23s-.34-1.01-.67-1c-3.9,2.19-7.22,5.32-11.06,7.94-5.04,3.45-10.24,6.76-15.17,10.66-.49.39-1.08.39-1.38-.03-.28-.39-.21-.94.43-1.39l26.63-19.06c.77-.55,1.13-1.42,1.21-2.06.12-.94-.38-1.75-1.23-2.36l-24.05-17.18c-2.08-1.49-4.25-1.52-6.28-.05L3.94,90.09c-2.91,2.09-3.17,6.67-.22,8.79l25.44,18.3c1.38.99,3.16.57,4.36-.3l15.28-11.08Z"/>
          <path class="cls-27" d="M47.83,104.32c.04.61.66.99.97,1.48l-15.28,11.08c-1.21.86-2.99,1.29-4.36.3L3.72,98.88c-2.95-2.12-2.69-6.71.22-8.79l24.05-17.25c2.04-1.46,4.2-1.43,6.28.05l24.05,17.18c.85.61,1.34,1.42,1.23,2.36-.08.64-.44,1.51-1.21,2.06l-26.63,19.06c-.64.46-.71,1-.43,1.39.3.42.88.42,1.38.03,4.93-3.9,10.13-7.21,15.17-10.66ZM47.73,97.55c-2.91,2.08-6.04,2.07-9.02.54-5.99-3.1-6.48-7.36-9.73-4.27-3.68,3.5-8.86,7.73-14.19,3.98l-8.32-5.86c-.43-.3-1.01-.19-1.28-.06-.25.12-.57.75-.13,1.06,2.98,2.14,9.85,7.52,12.97,8.37,7.95,2.18,16.1,2.27,24.12.49,5.07-1.12,10.66-5.73,14.87-8.97.44-.34.03-.94-.3-1.04-.24-.07-.63-.21-1.02.07l-7.99,5.69Z"/>
          <path class="cls-21" d="M47.73,97.55l7.99-5.69c.39-.28.78-.14,1.02-.07.33.09.73.7.3,1.04-4.22,3.24-9.81,7.85-14.87,8.97-8.02,1.78-16.17,1.69-24.12-.49-3.12-.85-9.99-6.23-12.97-8.37-.44-.31-.12-.94.13-1.06.27-.13.85-.24,1.28.06l8.32,5.86c5.33,3.76,10.5-.48,14.19-3.98,3.25-3.09,3.74,1.17,9.73,4.27,2.97,1.54,6.1,1.54,9.02-.54ZM39.75,100.47c-3.52-1.6-6.09-3.62-8.78-6.33-2.61,3.06-5.51,4.95-8.72,6.41,6.12.98,11.81,1.14,17.5-.08Z"/>
          <path class="cls-24" d="M39.75,100.47c-5.69,1.22-11.37,1.06-17.5.08,3.21-1.46,6.11-3.35,8.72-6.41,2.68,2.72,5.25,4.73,8.78,6.33Z"/>
        </g>
      </g>
    </g>
  </g>
</svg>