<?xml version="1.0" encoding="UTF-8"?>
<svg id="Layer_2" data-name="Layer 2" xmlns="http://www.w3.org/2000/svg" viewBox="0 0 512 272.63">
  <defs>
    <style>
      .cls-1 {
        fill: #838781;
      }

      .cls-2 {
        fill: #7a6447;
      }

      .cls-3 {
        fill: #5a6c77;
      }

      .cls-4 {
        fill: #878a86;
      }

      .cls-5 {
        fill: #f2efdb;
      }

      .cls-6 {
        fill: #4e504a;
      }

      .cls-7 {
        fill: #9b9e9a;
      }

      .cls-8 {
        fill: #464543;
      }

      .cls-9 {
        fill: #566772;
      }

      .cls-10 {
        fill: #d8c27f;
      }

      .cls-11 {
        fill: #f0efe2;
      }

      .cls-12 {
        fill: #818780;
      }

      .cls-13 {
        fill: #7d6164;
      }

      .cls-14 {
        fill: #8a8c85;
      }

      .cls-15 {
        fill: #50504d;
      }

      .cls-16 {
        fill: #56666f;
      }

      .cls-17 {
        fill: #f1f0e5;
      }

      .cls-18 {
        fill: #545350;
      }

      .cls-19 {
        fill: #474a48;
      }

      .cls-20 {
        fill: #eab9b1;
      }

      .cls-21 {
        fill: #f2efdf;
      }

      .cls-22 {
        fill: #747676;
      }

      .cls-23 {
        fill: #7d8182;
      }

      .cls-24 {
        fill: #d7c37e;
      }

      .cls-25 {
        fill: #484947;
      }

      .cls-26 {
        fill: #7a684b;
      }

      .cls-27 {
        fill: #ddcb92;
      }

      .cls-28 {
        fill: #4a4a45;
      }

      .cls-29 {
        fill: #f2eddf;
      }

      .cls-30 {
        fill: #e9b8af;
      }

      .cls-31 {
        fill: #dbc686;
      }

      .cls-32 {
        fill: #d0ad7c;
      }

      .cls-33 {
        fill: #f0eee6;
      }

      .cls-34 {
        fill: #d4b280;
      }

      .cls-35 {
        fill: #535554;
      }

      .cls-36 {
        fill: #ddcb90;
      }

      .cls-37 {
        fill: #ccb579;
      }

      .cls-38 {
        fill: #cfad77;
      }

      .cls-39 {
        fill: #57574f;
      }

      .cls-40 {
        fill: #846e4a;
      }

      .cls-41 {
        fill: #8f928a;
      }

      .cls-42 {
        fill: #f2f0e5;
      }

      .cls-43 {
        fill: #d5b27d;
      }

      .cls-44 {
        fill: #eeede5;
      }

      .cls-45 {
        fill: #a7cab7;
      }

      .cls-46 {
        fill: #dbca8c;
      }

      .cls-47 {
        fill: #d9c683;
      }

      .cls-48 {
        fill: #7b8079;
      }

      .cls-49 {
        fill: #dcca8f;
      }

      .cls-50 {
        fill: #dbc785;
      }

      .cls-51 {
        fill: #796544;
      }

      .cls-52 {
        fill: #9dc1ae;
      }

      .cls-53 {
        fill: #4f5051;
      }

      .cls-54 {
        fill: #ece9e0;
      }

      .cls-55 {
        fill: #f1eedd;
      }

      .cls-56 {
        fill: #eec0b8;
      }

      .cls-57 {
        fill: #927953;
      }

      .cls-58 {
        fill: #484a49;
      }

      .cls-59 {
        fill: #dfa69e;
      }

      .cls-60 {
        fill: #ece0ac;
      }

      .cls-61 {
        fill: #cea86a;
      }

      .cls-62 {
        fill: #7995a6;
      }

      .cls-63 {
        fill: #dcc785;
      }

      .cls-64 {
        fill: #dbc889;
      }

      .cls-65 {
        fill: #715e42;
      }

      .cls-66 {
        fill: #a6cab9;
      }

      .cls-67 {
        fill: #51626f;
      }

      .cls-68 {
        fill: #776345;
      }

      .cls-69 {
        fill: #504f49;
      }

      .cls-70 {
        fill: #f3f1ea;
      }

      .cls-71 {
        fill: #e5d7c3;
      }

      .cls-72 {
        fill: #555b59;
      }

      .cls-73 {
        fill: #866f4b;
      }

      .cls-74 {
        fill: #616761;
      }

      .cls-75 {
        fill: #f3f4ef;
      }

      .cls-76 {
        fill: #50504c;
      }

      .cls-77 {
        fill: #dac88b;
      }

      .cls-78 {
        fill: #836c46;
      }

      .cls-79 {
        fill: #51514e;
      }

      .cls-80 {
        fill: #474945;
      }

      .cls-81 {
        fill: #d1a971;
      }

      .cls-82 {
        fill: #776248;
      }

      .cls-83 {
        fill: #dfa9a1;
      }

      .cls-84 {
        fill: #d2ae7a;
      }

      .cls-85 {
        fill: #866e49;
      }

      .cls-86 {
        fill: #5f6f7a;
      }

      .cls-87 {
        fill: #8f928b;
      }

      .cls-88 {
        fill: #889cae;
      }

      .cls-89 {
        fill: #dac78b;
      }

      .cls-90 {
        fill: #dac78a;
      }

      .cls-91 {
        fill: #eabab1;
      }

      .cls-92 {
        fill: #8096a8;
      }

      .cls-93 {
        fill: #876f49;
      }

      .cls-94 {
        fill: #655c62;
      }

      .cls-95 {
        fill: #ece3bc;
      }

      .cls-96 {
        fill: #d6b683;
      }

      .cls-97 {
        fill: #7f96a5;
      }

      .cls-98 {
        fill: #8498ab;
      }

      .cls-99 {
        fill: #748695;
      }

      .cls-100 {
        fill: #a88e63;
      }

      .cls-101 {
        fill: #d3ad77;
      }

      .cls-102 {
        fill: #4d4f4f;
      }

      .cls-103 {
        fill: #fefefe;
      }

      .cls-104 {
        fill: #605b56;
      }

      .cls-105 {
        fill: #ebdfa9;
      }

      .cls-106 {
        fill: #4b5964;
      }

      .cls-107 {
        fill: #4d514f;
      }

      .cls-108 {
        fill: #dfc986;
      }

      .cls-109 {
        fill: #4c4e4d;
      }

      .cls-110 {
        fill: #dda29b;
      }

      .cls-111 {
        fill: #cda571;
      }

      .cls-112 {
        fill: #b6b4ac;
      }

      .cls-113 {
        fill: #7a5f61;
      }

      .cls-114 {
        fill: #919192;
      }

      .cls-115 {
        fill: #494946;
      }

      .cls-116 {
        fill: #d19a8f;
      }

      .cls-117 {
        fill: #464b49;
      }

      .cls-118 {
        fill: #545752;
      }

      .cls-119 {
        fill: #7a97a9;
      }

      .cls-120 {
        fill: #f1eee2;
      }

      .cls-121 {
        fill: #b9d4df;
      }

      .cls-122 {
        fill: #d0a86b;
      }

      .cls-123 {
        fill: #41413e;
      }

      .cls-124 {
        fill: #5b5e5e;
      }

      .cls-125 {
        fill: #869aac;
      }

      .cls-126 {
        fill: #3d403e;
      }

      .cls-127 {
        fill: #f1edd7;
      }

      .cls-128 {
        fill: #deca8a;
      }

      .cls-129 {
        fill: #f9f1e7;
      }

      .cls-130 {
        fill: #fefdfc;
      }

      .cls-131 {
        fill: #535550;
      }

      .cls-132 {
        fill: #8398a9;
      }

      .cls-133 {
        fill: #828c84;
      }

      .cls-134 {
        fill: #fcfdfd;
      }
    </style>
  </defs>
  <g id="Layer_1-2" data-name="Layer 1">
    <g id="Generative_Object" data-name="Generative Object">
      <g>
        <g>
          <path class="cls-52" d="M117.3,249.33c5.71,3.78,7.9,11.05,4.71,17.59-1.52,3.11-4.58,5.68-8.52,5.68H9.19c-5.62.01-8.35-5.51-9.02-10.13-.83-5.74,1.36-10.23,5.83-13.06,1.16-.15,1.89.74,3.22.74l104.92-.03c1.2-.46,2.37-.94,3.16-.79Z"/>
          <path class="cls-121" d="M47.21,228.71c1.19-.14,2.56-.81,3.71-1.03,2.43.24,4.85.15,7.14-.74.89-.24,2.31-.07,3.26,0,9.5.63,16.52,1.78,25.8,2.6,2.58.23,4.83.48,7.25-.63,1.58-.73,3.18-1.27,4.42-2.72,9.93,1.78,16.89-3.32,22.35,5.83,2.89,4.85,2.22,10.96-2.62,14.8-.7.56-1.17,1.82-1.2,2.53-.79-.15-1.96.33-3.16.79l-104.92.03c-1.33,0-2.06-.89-3.22-.74-.26-3.47-3.73-1.4-5.42-10.39-.95-5.05,2.45-10.5,7.68-11.88,6.2-1.64,13.02.15,19.45-.91,2.52,5.35,14.58,3.07,19.49,2.48Z"/>
        </g>
        <g>
          <path class="cls-105" d="M85.91,190.21c.09,2.01,1.4,3.53,3.49,3.11,1.77-.36,2.47-1.94,2.35-3.7,2.1.1,4.21,1.07,5.57,2.43,2.29,2.29,1.69,32.13,2.06,29.06l-.61,5.07c-1.24,1.46-2.84,2-4.42,2.72-.31-.08-.72.01-.93-.14-.45-.32-.18-1.3-.43-1.73-.9-1.53-2.6-1.81-4.17-1.1-1.25.57-2.15,1.85-1.72,3.6-9.28-.82-16.3-1.97-25.8-2.6-.09-.49.25-.62.48-.86.4-.4.67.21,1.54.03-.89-.79-1.88-2.17-2.94-2.08s-2.78.74-2.93,2.03c-.06.49.82.65.59.89-2.29.89-4.7.98-7.14.74-.12-.7-.59-1.26-1.18-1.62-.83-.51-1.52.04-2.48.56-.86.47-.26,1.14-.04,2.09-4.91.58-16.97,2.87-19.49-2.48-1.65-3.5-.4-8.53-.67-12.22.21-.28-.04-.67.32-1.44,1.29.87,2.93.58,3.85.04,1.59-.94,1.17-2.6.73-3.54-.63-1.33-2-2.1-3.47-1.61-.99.33-1.33.47-1.37-.55-.24-2.27-.35-6.52-.21-9.02.94-.17,2.09.33,3.24-.16,1.53-.65,1.66-2.38,1.1-3.67-.38-.87-1.57-1.68-2.67-1.49,1.19-1.05,1.55-2.62,4-2.84,13.81-1.22,18.37,4.76,37.81,2.47,5.4-.64,10.45-1.9,15.53-2.01ZM62.08,195.71c-1.47.49-1.72,2.46-1.19,3.76.49,1.18,2.44,1.56,3.7.82,1.03-.61,1.48-2.35.87-3.64-.5-1.05-2.02-1.39-3.37-.93ZM75.54,197.63c-1.89.66-1.93,2.52-1.63,3.52.51,1.7,1.86,2.14,3.26,1.68,1.49-.5,2.1-1.75,1.72-3.34-.25-1.05-1.73-2.43-3.35-1.85ZM40.76,199.56c-1.93-.14-2.94.86-2.95,2.5-.01,1.22.63,2.46,2,2.58,1.49.13,2.96-.69,3.19-2.12.2-1.27-.49-2.83-2.24-2.96ZM52.54,200.63c-1.52.63-1.75,2.6-1.02,3.68s2.27,1.21,3.65.46c.79-.43,1.32-1.69.63-2.98-.56-1.03-1.69-1.81-3.26-1.15ZM89.07,202.18c-1.45,1.25-1.21,2.56-.42,3.57,1,1.27,2.47.96,3.36.4,1.42-.88,1.5-2.2,1.04-3.05-.77-1.4-2.57-2.14-3.97-.93ZM75.63,209.39c-1.35,1.13-.87,3.14.11,4.01,1.07.95,2.38.54,3.3-.07,1.51-1,1.31-2.7.38-3.69s-2.65-1.2-3.8-.24ZM62.26,215.48c2.43.12,3.33-1.44,2.96-3.06-.32-1.43-1.5-1.92-3.28-1.74-1.48.15-1.93,1.2-1.89,2.32.04,1.06.46,2.39,2.21,2.48ZM89.79,214.34c-1.65.21-2.23,1.99-1.82,3.21.52,1.53,2.09,1.85,3.32,1.62,1.64-.3,2.09-1.87,1.58-3.45-.33-1.01-1.69-1.55-3.08-1.38ZM46.76,214.85c-1.55.77-1.75,2.61-1.07,3.67.88,1.38,2.54,1.49,3.54.89,1.46-.89,1.66-2.59,1.09-3.68-.66-1.27-2.28-1.51-3.55-.88ZM34.28,219.61c-1.5,1.07-.94,2.98-.32,3.92.68,1.03,2.8,1.3,3.64.59,1.38-1.15,1.53-2.64.86-3.71-.84-1.33-2.73-1.85-4.18-.81ZM75.04,220.22c-1.44.54-1.52,2.39-1,3.54.55,1.22,2.3,1.57,3.45.94s1.38-2.42.79-3.55c-.5-.96-2.05-1.38-3.24-.93Z"/>
          <path class="cls-27" d="M27.05,214.01c-.05-.71-.72-1.3-.14-2.67.44-1.02.31-3.33.2-4.43.04,1.02.38.89,1.37.55,1.46-.49,2.84.28,3.47,1.61.44.94.87,2.6-.73,3.54-.92.54-2.56.83-3.85-.04-.36.76-.11,1.16-.32,1.44Z"/>
          <path class="cls-49" d="M26.9,197.9c.12-2.2.05-3.87,1.67-5.31,1.1-.19,2.29.61,2.67,1.49.56,1.29.43,3.02-1.1,3.67-1.16.49-2.3-.01-3.24.16Z"/>
          <path class="cls-50" d="M91.76,189.62c.11,1.76-.58,3.34-2.35,3.7-2.09.42-3.4-1.09-3.49-3.11,1.97-.04,3.87-.69,5.85-.59Z"/>
          <path class="cls-128" d="M94.36,228.9c-2.42,1.12-4.68.86-7.25.63-.42-1.76.47-3.04,1.72-3.6,1.57-.71,3.27-.43,4.17,1.1.25.43-.02,1.41.43,1.73.21.15.62.05.93.14Z"/>
          <path class="cls-108" d="M61.31,226.93c-.95-.06-2.36-.23-3.26,0,.23-.24-.65-.39-.59-.89.15-1.29,1.88-1.95,2.93-2.03s2.05,1.29,2.94,2.08c-.86.18-1.14-.43-1.54-.03-.23.23-.57.36-.48.86Z"/>
          <path class="cls-37" d="M50.91,227.68c-1.14.22-2.52.89-3.71,1.03-.22-.95-.81-1.62.04-2.09.96-.53,1.65-1.07,2.48-.56.59.36,1.06.92,1.18,1.62Z"/>
          <path class="cls-31" d="M34.28,219.61c1.45-1.04,3.34-.53,4.18.81.67,1.06.52,2.55-.86,3.71-.84.7-2.97.43-3.64-.59-.62-.94-1.18-2.85.32-3.92Z"/>
          <path class="cls-24" d="M75.54,197.63c1.62-.57,3.1.81,3.35,1.85.38,1.59-.23,2.84-1.72,3.34-1.4.47-2.75.02-3.26-1.68-.3-1-.25-2.85,1.63-3.52Z"/>
          <path class="cls-36" d="M46.76,214.85c1.27-.63,2.9-.39,3.55.88.57,1.1.37,2.79-1.09,3.68-.99.6-2.66.49-3.54-.89-.67-1.06-.48-2.9,1.07-3.67Z"/>
          <path class="cls-47" d="M62.08,195.71c1.35-.45,2.87-.12,3.37.93.62,1.29.16,3.03-.87,3.64-1.26.75-3.21.37-3.7-.82-.53-1.3-.28-3.27,1.19-3.76Z"/>
          <path class="cls-64" d="M75.63,209.39c1.15-.95,2.87-.74,3.8.24s1.13,2.69-.38,3.69c-.92.61-2.24,1.02-3.3.07-.98-.87-1.46-2.88-.11-4.01Z"/>
          <path class="cls-63" d="M89.79,214.34c1.38-.17,2.75.37,3.08,1.38.51,1.58.06,3.14-1.58,3.45-1.23.23-2.8-.09-3.32-1.62-.41-1.21.17-3,1.82-3.21Z"/>
          <path class="cls-90" d="M62.26,215.48c-1.75-.08-2.17-1.42-2.21-2.48-.04-1.12.41-2.18,1.89-2.32,1.79-.18,2.96.32,3.28,1.74.37,1.61-.53,3.17-2.96,3.06Z"/>
          <path class="cls-89" d="M75.04,220.22c1.19-.44,2.73-.03,3.24.93.59,1.13.38,2.91-.79,3.55s-2.9.29-3.45-.94c-.52-1.15-.44-3.01,1-3.54Z"/>
          <path class="cls-77" d="M40.76,199.56c1.75.13,2.44,1.69,2.24,2.96-.23,1.43-1.7,2.25-3.19,2.12-1.37-.12-2.02-1.36-2-2.58.02-1.65,1.03-2.64,2.95-2.5Z"/>
          <path class="cls-46" d="M89.07,202.18c1.41-1.21,3.2-.48,3.97.93.46.84.38,2.16-1.04,3.05-.89.55-2.36.87-3.36-.4-.79-1.01-1.03-2.32.42-3.57Z"/>
          <path class="cls-10" d="M52.54,200.63c1.57-.65,2.7.12,3.26,1.15.69,1.29.17,2.55-.63,2.98-1.38.75-2.92.61-3.65-.46s-.5-3.05,1.02-3.68Z"/>
        </g>
      </g>
      <g>
        <path class="cls-62" d="M170.39,123.09c2.25.58,5.29.64,7.59-.08.3-.09.76.23,1.06-.04.82.77,1.99.81,2.9.19.22.32.45.34.68.02.66.61,1.84.43,2.54-.03.23.31.46.31.68,0,.62.74,1.62.12,2.42.4.49.17.81.16.86-.45.76.24,1.57.19,2.31.52,3.39,8.62,6.33,17.33,9.33,26.52l8.4,25.7c1.35,4.14,2.77,8.06,2.77,12.43l-.03,72.92c0,5.58-4.91,10.97-10.6,10.99l-41.26.15c-6.83.02-11.42-5.99-11.4-12.56l.24-69.47c.03-9.15,21.48-19.49,20.72-28.79-.23-2.81-6.71-4.44-3.78-7.51,6.62-6.93-6.1-7.61-1.95-12.06,2.11-2.26,1.89-5.41-.44-7.46-1.66-1.46-2.11-3.66-1.84-5.6.45-3.29,3.35-4.09,5.63-5.32.6-.32,1.3.08,1.84-.41.3-.19.99.03,1.33-.06ZM202.31,256.98v-65.45s-44.04-.03-44.04-.03l-.14,65.62,44.17-.14Z"/>
        <polygon class="cls-20" points="202.31 256.98 158.14 257.12 158.27 191.5 202.31 191.53 202.31 256.98"/>
        <g>
          <path class="cls-17" d="M188.55,108.35c-1.26.06-2.26.99-3.56.72-3.46-.74-7.02-.43-10.17-.19-.58.04-1.63-.47-1.91.37-.29-.39-.89-.36-1.37-.36h-3.27c-.42-.31-.03-.46.11-.75.29-.45.8.11,1.47.15.92-1.54-.11-3.11-1.47-3.71-.42-.18-.75-.75-1.25-.7-2.74-4.79-8.36-8.2-13.58-9.81-.51-.58-2.12-1.85-3.04-1.34l.09-9.77c3.5.1,10.09-2.05,14.21-.56,3.41,1.23,8.32.78,11.53.15,14.35-2.82,28.5,13.07,27.02,19.37-.73,3.12-12.21.49-13.84,1.84-1.42,1.17-.34,1.61-.98,4.58Z"/>
          <path class="cls-101" d="M188.55,108.35c1.6-.08,2.87,1.21,2.87,3.12l.02,12.16c-.73-.33-1.55-.28-2.31-.52l-.39-13.64-.47,14.09c-.81-.28-1.8.34-2.42-.4-.26-4.22.42-8.44-.34-13.04-.78,4.36-.08,8.7-.35,13.05-.71.45-1.88.64-2.54.03-.26-4.01.42-8.03-.33-12.43-.78,4.15-.08,8.27-.35,12.41-.92.62-2.08.58-2.9-.19.99-2.53-.08-9.98-.79-14.15l-.27,14.19c-2.3.72-5.34.65-7.59.08-1.57-1.63.03-9.71-1.02-12.98-.71,4.36-.1,8.69-.3,13.04-.53.49-1.23.08-1.84.41-.18-.52-.88-16.41,1.04-14.67h3.27c.62,4.75-.76,9.45.68,14.81,1.64-5.17.24-9.81.69-14.46.28-.83,1.33-.32,1.91-.37.49,4.77-.78,9.48.62,14.82,1.73-4.96.07-9.39.84-14.01-.63-.19-.76-.35-1.46-.81,3.14-.24,6.7-.55,10.17.19,1.3.28,2.29-.66,3.56-.72Z"/>
          <path class="cls-81" d="M167.13,103.88c-2.81.3-5.42-1.17-8.45-2.25-3.24,6.32-7.36,11.61-13.22,15.12-.61.37-1.04.65-1.54.17-.3-.29-.8-.83-.31-1.52,4.66-6.61,7.54-13.88,9.95-21.34,5.22,1.6,10.84,5.02,13.58,9.81Z"/>
          <path class="cls-111" d="M150.61,82.97l-.09,9.77c-2.55,1.42-5.52-.38-8.57-.59l-.14-8.95c3.12-2.28,6.59-.29,8.81-.23Z"/>
          <path class="cls-103" d="M168.38,108.14c.58-1.17-.43-2.38,0-3.56,1.37.6,2.39,2.17,1.47,3.71-.67-.04-1.18-.59-1.47-.15Z"/>
          <path class="cls-51" d="M179.04,122.97c-.3.27-.76-.05-1.06.04l.27-14.19c.71,4.17,1.78,11.62.79,14.15Z"/>
          <path class="cls-82" d="M189.13,123.11c-.05.6-.37.62-.86.45l.47-14.09.39,13.64Z"/>
          <path class="cls-26" d="M170.39,123.09c-.33.09-1.03-.13-1.33.06.21-4.35-.41-8.68.3-13.04,1.05,3.27-.55,11.35,1.02,12.98Z"/>
          <path class="cls-2" d="M185.85,123.16c-.23.32-.45.32-.68,0,.26-4.35-.43-8.68.35-13.05.76,4.6.07,8.83.34,13.04Z"/>
          <path class="cls-68" d="M182.63,123.19c-.24.32-.46.3-.68-.02.26-4.14-.43-8.26.35-12.41.76,4.4.07,8.42.33,12.43Z"/>
          <path class="cls-57" d="M172.92,109.24c-.45,4.65.95,9.29-.69,14.46-1.45-5.36-.06-10.06-.68-14.81.49,0,1.08-.03,1.37.36Z"/>
          <path class="cls-40" d="M174.83,108.88c.7.46.83.62,1.46.81-.77,4.62.89,9.05-.84,14.01-1.4-5.34-.13-10.05-.62-14.82Z"/>
        </g>
      </g>
      <g>
        <path class="cls-91" d="M512,162.01c-.32,3.65.09,7.35-.46,11.3l-5.67.23c-1.06,3.63-.57,7.11-1.01,10.58-.7,5.59-1.46,10.97-1.7,16.35-1.04.03-.64,1.23-.64,1.93v.64l.03.7c-1.79,1.86.46-11.31.51-11.61.45-2.4-.34-4.55.47-6.83-.07.19,1.25-9.16.95-10.05-.25-.75-1.59-.98-2.48-1.35,1.09-2.52-6.6-.34-7.83-.59-3.72-.76-7-.62-10.68-.27-8.65.82-17.49.15-26.14.25-.59-.02-.67-1.55-1.09-1.78-3.01-1.65-7.53-1.01-9.14,1.86-1.22-1.18-2.53-.34-3.92-.18-4.85.56-9.29-.26-13.79-.29l-23.45-.17c-.27.39-.93.8-.74,1.28h41.85c.29,1.14-1.48,1.78-1.32,3.34.41,3.88,5.29,6.28,8.39,4.44,9.66,13.25,20.04,26.04,32.21,37.38.05.63-1.21.36-1.33,1.09-2.44,14.93-2.05,29.41-15.64,36.66-12.65,6.75-41.61,5.49-57.17,4.7-.66-.03-.67,1.03-1.14.74-1.7-9.44-1.65-19.05-2.66-28.99l-6.05-59.75-6.1-.55c-.23-3.91-.28-7.62-.05-11.2,9.02,1.64,18.03,2.17,27.69,2.59,23.56,1.02,46.67.76,70.05-.41,6.27-.31,12.17-1.09,18.06-2.05Z"/>
        <path class="cls-83" d="M500.05,228.36c-1.06,11.07-1.53,22.01-3.5,33.43-.98,5.67-6.77,10.62-12.84,10.64l-57.99.11c-5.93.01-13.57-4.12-14.66-10.18.48.29.49-.77,1.14-.74,15.55.79,44.51,2.05,57.17-4.7,13.59-7.25,13.2-21.74,15.64-36.66.12-.73,1.38-.46,1.33-1.09,4,3.73,9.21,6.41,13.7,9.18Z"/>
        <path class="cls-116" d="M512,162.01c-5.89.96-11.78,1.74-18.06,2.05-23.38,1.17-46.49,1.42-70.05.41-9.66-.42-18.67-.94-27.69-2.59.08-1.24,1.66-1.46,3.26-1.62,36.64-3.49,73.28-3.32,109.94.06,1.61.15,2.68.84,2.61,1.68Z"/>
        <path class="cls-94" d="M454.78,180.38c8.58,13.67,19.34,26.16,31.56,37.41,2.24,2.06,4.41,3.31,6.42,4.78.12.09,5.38,4.48,7.37,4.34,2.28,1.18,5.76,2.37,8.2-.08,5.62-5.65-2.26-19.7-5.18-23.78-.06-.28-.15-.81-.64-.64,0-.71-.39-1.9.64-1.93,3.05,5.1,5.76,10.36,7.46,16.4,1.01,3.57.59,13.21-5.48,12.08-1.72-.32-3.84.18-5.09-.59-4.5-2.77-9.7-5.45-13.7-9.18-12.17-11.35-22.55-24.13-32.21-37.38-.64-.88-1.15-2.52-1.35-3.89,1.41.37,1.46,1.61,2,2.47Z"/>
        <path class="cls-59" d="M502,173.9c.88.37,2.23.6,2.48,1.35.3.9-1.01,10.24-.95,10.05-.81,2.28-.02,4.44-.47,6.83-.06.31-2.3,13.47-.51,11.61.33,7.69-1.37,15.49-2.41,23.16-2,.14-7.25-4.25-7.37-4.34,1.69-.87-7.11-5.94-6.83-7.81l2.89-19.65c1.05-7.13,1.96-14.1,2.73-21.08,3.48-.15,6.98.21,10.45-.12Z"/>
        <path class="cls-110" d="M457.34,173.3l1.94,1.45c.05,1.38-2.18,5.95-4.5,5.64-.54-.86-.58-2.1-2-2.47.2,1.37.71,3.01,1.35,3.89-3.1,1.84-7.98-.56-8.39-4.44-.17-1.56,1.6-2.2,1.32-3.33-.05-.19-.05-.48.05-.65,1.61-2.87,6.13-3.51,9.14-1.86.42.23.5,1.76,1.09,1.78Z"/>
        <path class="cls-13" d="M447.11,173.38c-.1.18-.1.46-.05.65h-41.85c-.18-.49.48-.9.74-1.29l23.45.17c4.51.03,8.95.85,13.79.29,1.39-.16,2.7-1,3.92.18Z"/>
        <path class="cls-113" d="M502,173.9c-3.47.34-6.97-.03-10.45.12-10.81.47-21.78-.95-32.27.72l-1.94-1.45c8.65-.1,17.5.57,26.14-.25,3.68-.35,6.97-.5,10.68.27,1.23.25,8.92-1.93,7.83.59Z"/>
        <path class="cls-130" d="M503.16,203.05h-.64v-.64c.5-.16.59.36.64.64Z"/>
        <path class="cls-30" d="M491.55,174.03c-.77,6.98-1.68,13.95-2.73,21.08l-2.89,19.65c-.28,1.87,8.53,6.94,6.83,7.81-2.01-1.47-4.18-2.72-6.42-4.78-12.22-11.25-22.98-23.74-31.56-37.41,2.32.32,4.54-4.25,4.5-5.64,10.48-1.67,21.46-.25,32.27-.72Z"/>
      </g>
      <g>
        <g>
          <path class="cls-122" d="M350.38,188.9c-.11-.34.17-.99.38-1.27.6-.79,0-1.57-.29-2.05-.32-1.32.51-3.66-.18-5.03-.1-.2,0-.57.01-.8.28-3.32.55-6.74.03-10.05.59-.23.87-.81.15-.84.29-2.22.08-4.86,0-7.04.56-.13.34-.79.33-1.34-.19-5.77.11-11.55-.45-17.31.76.1.75-.83-.05-.75v-.64c1.14-1.15.98-4.01.08-5.25.05-.29.22-.71.02-.88-.37-.31-.78-.56-1.23-.63l-14.35-2.27c.15-.31.03-.97-.08-1.28l15.62,2.68c.32-4.29.35-7.97,0-11.72-.04-.45-.07-.84.01-1.29.32-1.87.36-3.8-.09-5.65-.06-.23-.03-.58.08-.79.23-.42-.05-.84-.01-1.26l.21-2.55c.31-3.72,1.97-6.06,5.54-6.24,3.3-.16,6.85,1.22,6.95,4.9l.34,11.96c8.76,3.57,14.77,10.67,17.55,19.56,4.72,15.07-1.37,34.5-17.56,40.48l-.24,11.1c-.08,3.58-3.16,5.19-6.39,5.33-3.63.15-6.36-2.08-6.22-5.93.04-1.13.13-2.2-.16-3.12ZM370.59,162.51c4.05-9.6,2.24-24.72-7.41-29.55l.26,37.57c3.97-1.71,5.38-4.79,7.15-8.02Z"/>
          <g>
            <path class="cls-17" d="M350.35,143.18c.56,5.76.26,11.54.45,17.31-1.21,1.32-3.16.64-4.7.86l-5.81.84c-1.78.26-3.97-.48-5.47.88.11-1.41-.74-2.81-.73-4.51l.04-14.82c0-1.02,1.24-2.03.75-3.01,1.07-.65,2.03.07,3.11.26l12.36,2.2Z"/>
            <path class="cls-42" d="M350.37,122.43c.35,3.75.32,7.42,0,11.72l-15.62-2.68c-1.21-.79-.6-2.59-1.03-3.57-1.62-3.7.65-5.09.38-8.69,4.68.69,12.14,1.78,16.28,3.22Z"/>
            <path class="cls-17" d="M350.29,180.55c.69,1.37-.14,3.71.18,5.03l-14.49,2.95c3.06,1.55,13.53-3.44,14.78-.9-.21.28-.49.93-.38,1.27-.76.3-1.69-.69-2.34-.05-1.2,1.18,1.48,4.43-1.79,3.33-1.19,1.75-11.7,3.4-11.81,3.26-1.96-2.6.33-.49-1.24-7.87-.41-1.92,1.15-3.37,1.02-5.05,4.9-.38,11.31-1.35,16.06-1.97Z"/>
            <path class="cls-42" d="M350.35,113.43c-.04.43.25.84.01,1.26l-13.02-3.19c-.63-.15-.78-1.01-1.24-.4-.39.52-.97.71-.05.94l14.23,3.44c.45,1.85.42,3.78.09,5.65l-16.2-3.22c-.54-3.14-1.78-6.87-.62-10.14.71-2.01,3.8-.73,5.11-.63,13.19.97,7.25,7.69,11.69,6.29Z"/>
            <path class="cls-17" d="M350.3,179.75l-16.14,1.96c-.08-.97-.42-1.88-.36-3.18l.37-7.73c2.45-.16,5,.31,7.59-.22l8.57-.88c.52,3.31.25,6.72-.03,10.05Z"/>
            <path class="cls-17" d="M350.47,161.82c.09,2.18.29,4.82,0,7.04-1.11.22-2.52-.56-3.65.55l-7.26.24c-1.77,1.13-3.72.2-5.42.46-1.51-3.1,1.63-4.04.02-6.41l16.3-1.88Z"/>
            <path class="cls-42" d="M350.38,136.53c0-.23-1.18-.34-1.47.11-.96,1.49-.44,3.51-.55,5.14-4.77-.73-9.6-1.45-14.27-2.58-.29-2.18-.26-4.47.73-6.45l14.35,2.27c.44.07.86.32,1.23.63.2.17.03.59-.02.88Z"/>
            <path class="cls-14" d="M350.38,121.14c-.08.45-.05.85-.01,1.29-4.14-1.45-11.6-2.53-16.28-3.22.18-.56-1.15-1.12.08-1.29l16.2,3.22Z"/>
            <path class="cls-41" d="M348.36,141.78c.42.06.86,0,1.29,0-.09.43.22.74.64.64.81-.07.82.85.05.75l-12.36-2.2c-1.07-.19-2.04-.91-3.11-.26-.3.22-1.08-.1-1.29-.53-.13-.26.58-.38.5-1,4.68,1.14,9.5,1.85,14.27,2.58Z"/>
            <path class="cls-48" d="M350.3,179.75c-.02.23-.11.6-.01.8-4.75.62-11.16,1.59-16.06,1.97l-.06-.81,16.14-1.96Z"/>
            <path class="cls-1" d="M350.47,161.82l-16.3,1.88c-.7.03-.81-.49-.3-.66.34-.12.78.16.95.02,1.5-1.35,3.69-.62,5.47-.88l5.81-.84c1.54-.22,3.49.46,4.7-.86.02.55.23,1.21-.33,1.34Z"/>
            <path class="cls-12" d="M350.48,168.87c.72.03.44.61-.15.84l-8.57.88c-2.58.53-5.14.06-7.59.22,0-.19.07-.52-.02-.69,1.7-.25,3.65.67,5.42-.46l7.26-.24c1.13-1.11,2.54-.34,3.65-.55Z"/>
            <path class="cls-87" d="M350.47,185.58c.3.48.89,1.26.29,2.05-1.25-2.54-11.72,2.45-14.78.9l14.49-2.95Z"/>
            <path class="cls-4" d="M350.37,114.69c-.12.21-.14.57-.08.79l-14.23-3.44c-.92-.22-.34-.42.05-.94.46-.62.61.24,1.24.4l13.02,3.19Z"/>
            <path class="cls-42" d="M350.3,141.78c0-1.75-.1-3.51.08-5.25.9,1.25,1.07,4.1-.08,5.25Z"/>
            <path class="cls-42" d="M350.3,142.42c-.43.09-.74-.22-.64-.64h.64v.64Z"/>
          </g>
        </g>
        <g>
          <g>
            <path class="cls-119" d="M371.58,234.82c-.38-.12-.59-.02-1.42-.02l-54.05.43c-.11,0-.22.03-.64,0-1.04-.42-2.15.03-3.79-.41.75-3.03,1.8-5.81,2.78-8.7.47-1.38,1.51-1.83,2.99-1.83h50.22c2.21-.01,3.87.47,4.66,2.71l2.65,7.58c-1.26.45-2.24.6-3.4.24Z"/>
            <path class="cls-103" d="M371.58,234.82c-.18.48-.72,1.17-1.27,1.17-.08-.4-.37-.78-.14-1.19.82,0,1.04-.1,1.42.02Z"/>
            <path class="cls-103" d="M316.16,235.94c-.48.11-.8-.24-.69-.71.43.04.54,0,.64,0,0,.23-.02.48.04.71Z"/>
            <path class="cls-103" d="M316.72,237.85c-.45.16-.78-.23-.47-.62.43-.09.58.26.47.62Z"/>
          </g>
          <g>
            <path class="cls-21" d="M369,243.04c.93.37-.83,12.8-1.05,13.6-.48,1.69.75,3.68-.16,5.11l-48.46-.08c-1.94-2.78-.5-6.76-.92-10.23-.35-2.87-1.06-5.51-.85-8.22l51.44-.17ZM329.8,251.51c.55-2.13.41-3.6-.14-5.28-.79.95.04,2.03-1.08,2.74-1.24-.98-1.42-2.16-2.74-2.7-.33,1.8-.36,3.26-.03,5.25,1.12-.57.58-1.56.77-2.65,1.55.28,1.58,1.79,3.22,2.63ZM335.86,251.54c-.04-2.66-1.17-3.93-2.25-5.72-1.47,1.41-1.65,2.87-2.9,4.61.09,1.27,1.36,1.38,1.59-.15,1.66-.88,2.11.77,3.56,1.26ZM339.2,247.26c.44-.58,1.55-.14,1.44-.99-1.84-.23-3.33-.44-4.59.3,3.46.52.56,3.5,2.46,4.93.74-1.52-.24-3,.69-4.24ZM344.77,247.7c.16,1.35-.03,2.14-.55,2.58-.48.4-1.35.24-1.78-.35-.81-1.12.23-3.44-1.02-3.68-.45,1.9-.52,4.07,1.12,4.96,1.08.59,2.33-.21,2.71-.75.5-.71.42-1.81.57-3.24-.05-1.56-1.7-1.31-1.06.48ZM350.31,246.24c-.7-.21-2.66-.53-2.98.17-.8,1.74-.51,3.69.05,5.06.88-.7.53-1.92,1.3-1.95s1.55,2.07,2.25,1.53c.32-.25.52-.49.33-.53-2.32-.4,1.65-3.51-.95-4.27ZM356.96,250.66c-.78-2.34-1.15-3.48-2.8-4.87-.89,1.95-1.91,3.35-2.05,5.7,1.45-.35,1.39-1.51,2.4-1.46.87.05,1.27.91,2.45.63ZM361.9,251.17c-4.36-.64-1.38-.51-3.59-4.95-.62,1.87-.13,3.34-.27,5.18,1.57-.07,2.67.31,3.85-.23ZM350.31,258.94c1.31-.55.24-1.67,1.12-1.75l1.28-.12c1.95-.19,1.68-2.45.75-3.18-.6-.47-1.85-1.17-3.08-.17s-.31,3.69-.06,5.22ZM334.74,255.26c-.09-.76.22-1.13.46-1.05.3.1,1.37.7,1.5.22.33-1.23-1.35-1.02-2.17-.83-.65.16-1.77,1.13-.82,2.1.83.85,2.26.73,2.29,1.9-.99.5-1.87-.13-2.48.58,1.34.88,2.34.75,2.88.38.71-.47,1.28-1.46.68-2.05-.56-.54-1.33-.8-2.34-1.25ZM339.43,253.88c-1.54.88-1.6,2.65-.85,3.73s2.28,1.42,3.16.98c1.42-.72,2.01-2.39,1.49-3.53-.57-1.24-2.26-2.07-3.8-1.19ZM348.78,257.87c-.52-1.7-.97-2.99-2.33-4.54-1.29,1.69-2.01,3.23-2.23,5.22,1.83-.75.53-1.87,4.56-.68Z"/>
            <path class="cls-95" d="M367.03,266.23c.92-.82.58,4.53.03,4.91-.65.45-1.62,1.41-2.79,1.41l-39.74.08c-2.4,0-4.42-1.5-5.44-3.28-.74-1.3-.26-2.73.94-3.16l47,.04Z"/>
            <path class="cls-60" d="M370.17,234.81c-.23.4.07.79.14,1.19.18.92.07,2.1-.64,2.5l-52.97-.09c.08-.17-.02-.38.02-.55.1-.36-.04-.71-.47-.62.31-.41.02-.84-.09-1.29-.06-.23-.04-.48-.04-.71l54.05-.43Z"/>
            <path class="cls-127" d="M369.67,238.5c.57,1.21.6,2.61.03,3.9l-52.39-.05c0-1.36-1.24-2.56-.61-3.94l52.97.09Z"/>
            <path class="cls-21" d="M367.27,263.2c.67.88-.46,2.18-.23,3.02l-47-.04c-.78-.91-1.35-1.98-.8-3.15l48.04.16Z"/>
            <path class="cls-7" d="M367.79,261.74c-.34.54.66.73.53.97-.2.35-.77.94-1.05.49l-48.04-.16c-1.18-.24.34-.82.1-1.38l48.46.08Z"/>
            <path class="cls-23" d="M369.7,242.39c-.18.4-.16.64-.7.64l-51.44.17c-.28,0-.68-.15-.8-.48-.1-.28.19-.66.54-.38l52.39.05Z"/>
            <path class="cls-58" d="M329.8,251.51c-1.64-.85-1.67-2.35-3.22-2.63-.19,1.1.35,2.08-.77,2.65-.33-1.99-.3-3.45.03-5.25,1.31.54,1.5,1.72,2.74,2.7,1.12-.71.29-1.79,1.08-2.74.55,1.68.69,3.15.14,5.28Z"/>
            <path class="cls-28" d="M339.43,253.88c1.54-.88,3.24-.05,3.8,1.19.52,1.13-.07,2.81-1.49,3.53-.88.44-2.4.12-3.16-.98s-.69-2.85.85-3.73ZM340.16,254.41c-1.08.39-1.44,1.52-1.11,2.3.43,1.02,1.46,1.59,2.39,1.03.82-.49,1.2-1.52.77-2.52-.27-.63-1.11-1.14-2.04-.81Z"/>
            <path class="cls-79" d="M350.31,258.94c-.25-1.53-1.11-4.27.06-5.22s2.48-.3,3.08.17c.93.72,1.21,2.99-.75,3.18l-1.28.12c-.88.08.19,1.2-1.12,1.75ZM351.21,254.86c.05.62.51,1.07.71,1.04.22-.03.48-.53.69-.65.37-.21.1-.64-.11-.61-.42.06-1.33-.23-1.3.22Z"/>
            <path class="cls-15" d="M335.86,251.54c-1.46-.49-1.9-2.14-3.56-1.26-.22,1.53-1.5,1.42-1.59.15,1.25-1.74,1.43-3.2,2.9-4.61,1.07,1.79,2.2,3.06,2.25,5.72Z"/>
            <path class="cls-8" d="M350.31,246.24c2.6.77-1.37,3.87.95,4.27.19.03-.01.28-.33.53-.7.54-1.5-1.56-2.25-1.53s-.43,1.25-1.3,1.95c-.55-1.37-.85-3.31-.05-5.06.32-.7,2.27-.38,2.98-.17ZM348.5,247.15c-.63.49-.31,1.03-.03,1.29s.98.13,1.2-.07c.3-.27.46-.86.22-1.03-.38-.26-1.02-.48-1.39-.2Z"/>
            <path class="cls-115" d="M344.77,247.7c-.65-1.79,1.01-2.04,1.06-.48-.15,1.43-.07,2.53-.57,3.24-.37.53-1.63,1.34-2.71.75-1.64-.9-1.57-3.06-1.12-4.96,1.25.24.2,2.56,1.02,3.68.43.59,1.3.75,1.78.35.52-.43.71-1.23.55-2.58Z"/>
            <path class="cls-18" d="M356.96,250.66c-1.18.28-1.57-.58-2.45-.63-1.01-.06-.95,1.11-2.4,1.46.14-2.34,1.16-3.75,2.05-5.7,1.65,1.39,2.02,2.52,2.8,4.87Z"/>
            <path class="cls-109" d="M334.74,255.26c1.01.45,1.78.71,2.34,1.25.6.58.03,1.57-.68,2.05-.54.37-1.55.5-2.88-.38.61-.7,1.49-.07,2.48-.58-.03-1.17-1.46-1.05-2.29-1.9-.94-.97.17-1.94.82-2.1.82-.19,2.5-.41,2.17.83-.13.49-1.21-.11-1.5-.22-.23-.08-.55.28-.46,1.05Z"/>
            <path class="cls-123" d="M348.78,257.87c-4.03-1.2-2.73-.07-4.56.68.21-1.99.94-3.53,2.23-5.22,1.37,1.55,1.81,2.84,2.33,4.54ZM345.68,255.68c.09,1.04.69,1.11,1.07.9.35-.19.5-.6.32-.97s-.74-.71-1.4.07Z"/>
            <path class="cls-35" d="M361.9,251.17c-1.19.54-2.28.16-3.85.23.14-1.84-.35-3.31.27-5.18,2.2,4.44-.77,4.31,3.59,4.95Z"/>
            <path class="cls-126" d="M339.2,247.26c-.93,1.24.05,2.72-.69,4.24-1.9-1.43.99-4.41-2.46-4.93,1.26-.75,2.75-.53,4.59-.3.11.86-1,.41-1.44.99Z"/>
            <path class="cls-29" d="M340.16,254.41c.93-.33,1.77.18,2.04.81.43,1,.05,2.03-.77,2.52-.93.56-1.95,0-2.39-1.03-.33-.77.03-1.91,1.11-2.3Z"/>
            <path class="cls-129" d="M351.21,254.86c-.03-.45.88-.16,1.3-.22.21-.03.47.4.11.61-.21.12-.47.62-.69.65-.2.03-.67-.42-.71-1.04Z"/>
            <path class="cls-44" d="M348.5,247.15c.37-.29,1.01-.07,1.39.2.24.16.08.76-.22,1.03-.22.2-.93.33-1.2.07s-.6-.81.03-1.29Z"/>
            <path class="cls-112" d="M345.68,255.68c.66-.78,1.22-.44,1.4-.07s.03.78-.32.97c-.38.21-.99.14-1.07-.9Z"/>
          </g>
        </g>
      </g>
      <g>
        <path class="cls-45" d="M250.29,123.66h28.98c8.97,2.21,15.78,9.52,15.8,19.54l.23,119.07c.01,5.54-3.25,9.91-8.91,9.93l-43.09.12c-6.45.02-9.3-5.36-9.29-11.33l.18-117.18c.02-10.07,6.8-18.28,16.1-20.15ZM243.18,233.93c-.67.07-.8.68,0,.8-.39,1.21-.43,2.48-.09,4.36l43.13-.07c.64-1.45.71-3.36-.25-4.25.69.25.74-.96-.03-.87l.8-68.82-43.85-.03.3,68.89Z"/>
        <polygon class="cls-5" points="285.93 233.89 243.18 233.93 242.88 165.04 286.73 165.07 285.93 233.89"/>
        <path class="cls-55" d="M285.97,234.76c.96.89.89,2.8.25,4.25l-43.13.07c-.34-1.88-.3-3.15.09-4.36l42.79.03Z"/>
        <path class="cls-133" d="M285.93,233.89c.77-.09.72,1.12.03.87l-42.79-.03c-.8-.12-.67-.73,0-.8l42.75-.04Z"/>
        <g>
          <path class="cls-61" d="M252.86,101.82c.45.13.84.64,1.34.61,7.3-.36,14.9.72,21.92-.55.55.37,1.64.36,2.8.6l.35,21.18h-28.98s.13-21.45.13-21.45c1.18-.35,1.9.07,2.44-.4Z"/>
          <path class="cls-114" d="M276.12,101.89c-.41-.15-.86-.16-1.28-.1-.42-.29.57-.55.58-.8l.06-17.09c-.3-.12-.67-.53-.8-.81l-20.6.23c.28,6.05-.23,11.29.43,16.45.09.71-.57,1.33-.31,2.03.07.19-.04.44,0,.64-.51.02-.89-.49-1.34-.61l.36-19.44,22.9.04v19.47Z"/>
          <path class="cls-104" d="M272.36,101.62c.84,0,1.63.29,2.48.17.42-.06.87-.05,1.28.1-7.02,1.27-14.62.19-21.92.55-.04-.2.07-.45,0-.64.63.09,1.32-.14,1.93,0,.94.21,1.71-.15,2.43-.64,4.28,1.38,9.27.45,13.79.47Z"/>
          <path class="cls-134" d="M274.84,101.79c-.85.12-1.64-.17-2.48-.17.15-1.86,0-3.81-2.13-4.84l.1-9.83c-3.63-1.01-7.39-.9-10.88-.08l-.1,9.74c-.02,1.6-1.38,3.06-.79,4.54-.73.49-1.49.86-2.43.64-.04-.48.21-1.53-.28-1.89-.29-.21-.99-.02-1.34-.14-.65-5.16-.15-10.4-.43-16.45l20.6-.23c.12.28.5.69.8.81l-.06,17.09c0,.25-1,.52-.58.8Z"/>
          <path class="cls-71" d="M272.36,101.62c-4.53-.02-9.52.91-13.79-.47-.59-1.49.78-2.95.79-4.54l.1-9.74c3.48-.82,7.25-.93,10.88.08l-.1,9.83c2.13,1.03,2.28,2.98,2.13,4.84Z"/>
        </g>
      </g>
      <g>
        <path class="cls-66" d="M321.97,13.71c.92.65,1.91.49,2.47,0-.16.63,1.12.55.76.01.92.63,1.9.43,2.47,0-.22.59.55.38.8.36,1-.07,1.85.17,2.42-.38-.18.63.63.38.89.38l2.31-.05c.52-.01.73,0,.87-.03.71-.21,1.2.71,1.74.23,5.15,4.74,11.21,9.48,11.22,17.28l.05,43.83c0,3.24-3.86,5.67-6.68,5.69l-28.39.14c-2.59.01-4.7-.81-6.25-2.53s-1.88-3.96-1.89-6.55l-.12-35.44c-.03-9.76,4.33-17.24,12.18-22.44,1.12-.42,2.2.04,3.2-.18.59-.13.99.01,1.2-.34-.15.65,1.11.59.75.04ZM342.57,67.65l.03-29.15-32.63.09.16,29.2,32.44-.14Z"/>
        <path class="cls-34" d="M327.69.51l-.02,13.2c-.58.44-1.55.64-2.47,0l-.03-5.36c1.57-.08,1.48-.75.02-.85-.36-2.36.51-4.57-.44-7.04l-.31,13.24c-.56.5-1.55.65-2.47,0-.6-4.41.92-9.11-.75-13.19,1.94-.93,4.34-.41,6.46,0Z"/>
        <path class="cls-43" d="M330.95.49l-.05,13.21c-.57.55-1.42.3-2.42.38-.68-6.39.81-7.69.58-13.55.6-.14,1.35.07,1.89-.03Z"/>
        <path class="cls-38" d="M321.23.52v13.16c-.22.35-.61.21-1.2.34-.1-.95-1.52-1-1.37-2.72.05-.59,1.34-.32,1.31-.78-.03-.38.07-1.1-.08-1.49-1.14-.09-1.45-.5-.9-1.46-.41-2.56-.46-4.89.36-7.1.58-.32,1.39.15,1.89.04Z"/>
        <path class="cls-96" d="M335.48.51c-.25.06-.91-.11-1.26.13l-.13,13.38-2.31.05c.53.35,1.22-15.45-.83-13.58,1.45-.26,3.17-.55,4.53.02Z"/>
        <path class="cls-32" d="M316.2,12.85c-.19-3.06-.94-11.2,1.2-12.25.46.71.63,1.1.74,2.15.1.95-.81.84-1.03,1.39,1.38-1.17,1.54,10.16-.92,8.71Z"/>
        <path class="cls-84" d="M336.71,14.22c-.54.48-1.03-.44-1.74-.23.1-.13.32-.39.45-.72l.07-12.75c1.6.67,1.32,1.99,1.26,3.92-.1,3.41.92,6.78-.04,9.79Z"/>
        <path class="cls-100" d="M319.34.48c-.82,2.21-.77,4.55-.36,7.1-.54.95-.23,1.37.9,1.46.15.39.05,1.11.08,1.49.03.45-1.26.19-1.31.78-.15,1.72,1.27,1.77,1.37,2.72-.99.21-2.08-.24-3.2.18-.43-.31-.6-.82-.63-1.35,2.45,1.45,2.29-9.88.92-8.71.22-.56,1.12-.44,1.03-1.39-.11-1.05-.28-1.45-.74-2.15.48-.24,1.42.17,1.94-.12Z"/>
        <path class="cls-93" d="M329.06.52c.23,5.86-1.27,7.17-.58,13.55-.25.02-1.03.23-.8-.36l.02-13.2c.42.08.95.1,1.37,0Z"/>
        <path class="cls-73" d="M335.48.51l-.07,12.75c-.13.34-.35.6-.45.72-.14.04-.35.02-.87.03l.13-13.38c.35-.24,1.01-.07,1.26-.13Z"/>
        <path class="cls-78" d="M331.78,14.07c-.26,0-1.07.25-.89-.38l.05-13.21c2.06-1.87,1.37,13.94.83,13.58Z"/>
        <path class="cls-85" d="M325.2,13.72c.36.54-.92.62-.76-.01l.31-13.24c.95,2.47.08,4.68.44,7.04,1.46.1,1.54.77-.02.85l.03,5.36Z"/>
        <path class="cls-65" d="M321.97,13.71c.36.56-.91.61-.75-.04V.52c1.68,4.09.15,8.79.75,13.19Z"/>
        <g>
          <path class="cls-11" d="M342.57,67.65l-32.44.14-.16-29.2,32.63-.09-.03,29.15ZM320.93,49.54c1.1.13,1.21-.43.42-.93-.68.02-.98-.08-1.14-.26-.19-.22-.26-.68-.17-.91.18-.48.63-.19,1.76-.43.1-1.18-1.51-.56-2.22-.6-1.09-.06-.75,1.48-.89,2.45-.23,1.54-.09,3.07,1.49,3.03.69-.02,2.22.46,2.03-.94-1.08-.05-1.43-.2-1.9-.72-.33-.35-.5-.71.63-.69ZM327.75,47.36c-1.55-1.95-3.29-1.25-4.06.48-.48,1.09-.75,2.31.57,3.54.96.9,2.42.81,3.57-.44-1.51-.21-2.45.16-3.04-.75-.38-.58-.59-2.28.06-2.53.94-.37,1.87.38,2.91-.31ZM329.74,46.74c-1.64,1.24-1.66,2.94-.85,3.86,1.06,1.2,2.37,1.44,3.55.81,1.36-.74,1.61-2.52.81-3.8-.54-.87-2.33-1.76-3.51-.87ZM318.78,54.57c-1.23-1.33-2.88-1.29-3.86-.1-1.05,1.27-.86,2.96.31,4.01,1.08.97,2.44.76,3.57-.44-1.49-.21-2.38.16-3.04-.72-.6-.8-.37-1.76.35-2.33s1.43-.06,2.66-.41ZM327.71,56.38c-1.17-.98-2.13-.39-2.51-.86-.32-.4.18-.78.43-.87.32-.12,1.1.16,1.71-.29.11-1.16-1.89-.79-2.66-.65-1.16.21-.84,1.91-.86,2.89-.03,1.46.36,2.66,1.64,2.67.93,0,1.86.03,2.3-1.3-1.08-.11-2.61.32-2.79-.66.3-.97,1.98-.32,2.74-.92ZM338.03,58.76c.74-1.8.31-3.14.11-4.8-.86.81-.2,1.63-.95,2.51-1.12-.75-1.26-2.06-2.84-2.8-.36,1.9-.63,3.92.12,5.58l.78-3.12,2.79,2.62ZM323.2,58.42c-1.16-.57-1.97-.6-2.26-1.15s-.43-6.14-1.39-2.64c-.19.68-.46,3.94,1.01,4.39.72.22,2.28.52,2.64-.6ZM332.86,58.66c-.2-2.1-.87-3.72-2.21-4.85-.99,1.71-1.41,2.63-1.56,4.17,1.62-.55,2.5-.24,3.77.68Z"/>
          <path class="cls-76" d="M329.74,46.74c1.18-.89,2.97,0,3.51.87.8,1.28.54,3.06-.81,3.8-1.17.64-2.49.4-3.55-.81-.81-.92-.79-2.62.85-3.86ZM330.34,47.57c-1.15.53-1.02,1.89-.45,2.68.35.49,1.11.72,2.04.31.66-.3.99-1.33.59-2.22-.24-.56-1.16-1.24-2.18-.77Z"/>
          <path class="cls-39" d="M327.71,56.38c-.77.6-2.44-.04-2.74.92.18.98,1.71.55,2.79.66-.43,1.33-1.36,1.3-2.3,1.3-1.28,0-1.67-1.21-1.64-2.67.02-.97-.31-2.67.86-2.89.77-.14,2.77-.51,2.66.65-.6.45-1.39.17-1.71.29-.25.09-.75.47-.43.87.38.47,1.35-.12,2.51.86Z"/>
          <path class="cls-25" d="M338.03,58.76l-2.79-2.62-.78,3.12c-.75-1.66-.48-3.68-.12-5.58,1.58.74,1.72,2.05,2.84,2.8.74-.88.08-1.7.95-2.51.2,1.66.63,3-.11,4.8Z"/>
          <path class="cls-131" d="M320.93,49.54c-1.13-.02-.96.33-.63.69.48.52.82.67,1.9.72.19,1.4-1.34.92-2.03.94-1.58.04-1.72-1.49-1.49-3.03.14-.97-.2-2.51.89-2.45.71.04,2.32-.58,2.22.6-1.13.24-1.58-.06-1.76.43-.09.23-.02.69.17.91.16.19.46.28,1.14.26.79.49.68,1.06-.42.93Z"/>
          <path class="cls-80" d="M327.75,47.36c-1.04.69-1.97-.06-2.91.31-.65.25-.43,1.95-.06,2.53.59.91,1.53.54,3.04.75-1.15,1.25-2.61,1.35-3.57.44-1.32-1.23-1.05-2.45-.57-3.54.77-1.74,2.51-2.43,4.06-.48Z"/>
          <path class="cls-6" d="M318.78,54.57c-1.24.36-1.98-.14-2.66.41s-.95,1.53-.35,2.33c.65.88,1.54.51,3.04.72-1.14,1.19-2.5,1.4-3.57.44-1.17-1.05-1.35-2.74-.31-4.01.98-1.19,2.63-1.23,3.86.1Z"/>
          <path class="cls-69" d="M332.86,58.66c-1.27-.92-2.15-1.23-3.77-.68.15-1.55.57-2.47,1.56-4.17,1.34,1.13,2.01,2.75,2.21,4.85ZM331.49,56.1c0-.35-.28-.63-.63-.63s-.63.28-.63.63.28.63.63.63.63-.28.63-.63Z"/>
          <path class="cls-118" d="M323.2,58.42c-.35,1.12-1.92.82-2.64.6-1.47-.45-1.2-3.71-1.01-4.39.96-3.49,1.12,2.12,1.39,2.64.29.55,1.1.58,2.26,1.15Z"/>
          <path class="cls-33" d="M330.34,47.57c1.02-.47,1.93.21,2.18.77.39.89.07,1.93-.59,2.22-.92.41-1.68.18-2.04-.31-.57-.8-.7-2.16.45-2.68Z"/>
          <circle class="cls-75" cx="330.86" cy="56.1" r=".63"/>
        </g>
      </g>
      <g>
        <path class="cls-56" d="M381.9,34.77c.2-.08.44-.08.64-.01.63.21,1.3.16,1.93,0,.19-.05.5-.11.68-.03.85.39,1.64.12,2.52.1.62-.01,1.34.2,1.97-.05.2-.08.43-.05.64-.06,0,3.6,6.41,5.86,10.92,15.41s3.66,19.76-2.42,27.9c-1.85,2.47-4.8,3.43-7.85,3.32-7.21-.27-14.06.28-21.31-.36-8.05-.71-16.67-23.75-1.54-39.38,2.14-2.21,4.62-3.76,5.67-6.33,1.79-.6,3.88.48,5.57-.5.15.23.47.05.64.09.64.16,1.31.16,1.93-.1ZM396.81,56.97c-1.18-5.67-4.74-9.68-8.98-11.34-5.18-2.03-10.19-1.33-14.52,1.6-6.99,4.74-9.01,13.73-4.6,20.96,4.03,6.61,12.96,9.21,20.24,5.4,6.18-3.24,9.35-9.49,7.86-16.63Z"/>
        <path class="cls-88" d="M376,21.28l.34,13.74c1.4-.82.76-2.27.63-3.11-.56-3.59-.06-7.18-.2-10.68.6-.02,1.23.09,1.83,0l.07,12.21c0,.73-.07,1.34.65,1.33-1.69.98-3.77-.11-5.57.5.02-.17,0-.32-.11-.45,1.37-1.68-.37-9.75,1.25-13.58.35.11.78.27,1.11.04Z"/>
        <path class="cls-99" d="M387.85,21.71l-.17,13.11c-.88.02-1.67.29-2.52-.1l.1-13.39c.89.08,1.76.09,2.59.37Z"/>
        <path class="cls-92" d="M389.62,21.67l.02,13.11c-.62.25-1.34.04-1.97.05l.17-13.11c.46.16,1.5-.98,1.77-.05Z"/>
        <path class="cls-98" d="M381.84,21.84l.06,12.93c-.62.26-1.29.26-1.93.1l.08-13.63c.71.08,1.63-.33,1.8.61Z"/>
        <path class="cls-97" d="M373.5,21.6l.15,13.22c-.08.6-1.9.29-1.96-.35-.08-.99-1.06-16.01,1.81-12.87Z"/>
        <path class="cls-125" d="M384.41,21.24l.07,13.51c-.63.17-1.3.21-1.93,0l.02-11.46c.87-.52.81-1.46.74-2.01.33.19.74.11,1.1-.05Z"/>
        <path class="cls-3" d="M380.05,21.23l-.08,13.63c-.17-.04-.5.14-.64-.09-.72,0-.65-.6-.65-1.33l-.07-12.21c.49-.07.96-.06,1.45,0Z"/>
        <path class="cls-132" d="M390.29,34.71v-13.02c.22.22,1.12.43,1.16.97.32,3.93.03,7.9.13,11.93-.51.25-1.01.11-1.29.12Z"/>
        <path class="cls-9" d="M376,21.28c.26-.18.5-.04.77-.05.14,3.5-.36,7.09.2,10.68.13.85.77,2.29-.63,3.11l-.34-13.74Z"/>
        <path class="cls-86" d="M385.16,34.73c-.18-.08-.49-.02-.68.03l-.07-13.51c.35-.15.55.07.85.1l-.1,13.39Z"/>
        <path class="cls-67" d="M373.64,34.82l-.15-13.22c.36-.33.88-.53,1.39-.36-1.62,3.83.13,11.89-1.25,13.58Z"/>
        <path class="cls-16" d="M382.55,34.76c-.2-.07-.45-.07-.64.01l-.06-12.93c.63.1.81-.93,1.47-.55.07.55.12,1.5-.74,2.01l-.02,11.46Z"/>
        <path class="cls-106" d="M390.29,34.71c-.21,0-.43-.02-.64.06l-.02-13.11c.23-.34.48-.16.66.03v13.02Z"/>
        <path class="cls-120" d="M396.81,56.97c1.49,7.14-1.68,13.39-7.86,16.63-7.27,3.81-16.21,1.21-20.24-5.4-4.41-7.23-2.38-16.23,4.6-20.96,4.33-2.93,9.34-3.63,14.52-1.6,4.23,1.66,7.79,5.67,8.98,11.34ZM376.08,56.71c1.14-.34,1.45-.37,1.67-.61.24-.27.14-.46-.62-.51-1.52-.3-1.2-1.47.68-1.55.3-1.16-1.46-.74-2.11-.64-1.06.17-1.12,5.11.02,5.21.72.06,1.93.06,2.3-.8-.92-.28-1.91-.16-1.95-1.1ZM382.63,53.71c-1.69-1.16-2.9.16-3.35,1.29-.5,1.25-.05,2.63,1.22,3.3.93.5,2.22.6,2.77-.95-1.47-.12-2.45.34-2.93-.62-.3-.61-.24-1.32-.01-1.78.4-.83,1.49-.45,2.31-1.23ZM385.39,53.63c-1.86.98-1.8,2.31-1.04,3.45.92,1.38,2.49,1.9,3.43,1.17,1.39-1.09,1.55-2.7,1.1-3.89-.47-1.26-2.55-1.23-3.49-.73ZM372.24,64.04c-1.07.14-.86-1.81-.41-2.42.48-.65,1.26-.23,2.42-.71-1.26-.89-2.93-.49-3.74.72s-.25,2.88,1.26,3.66c.8.41,2.13.37,3.19-.79-1.06-.47-1.42-.62-2.72-.46ZM382.46,62.8c-.71-.9-2.49.27-2.49-.99s1.73-.2,2.63-.94c-.9-.74-1.96-.25-3.25-.33v4.47c1.5-.11,2.73.39,3.9-.31-1.3-.84-2.44.29-3.59-.81.65-1.47,1.83-.29,2.8-1.08ZM388.39,65.36c-.65-2.21-.92-3.71-2.47-5.2-1.2,1.94-2.39,3.44-2.01,5.63.92-.74.85-1.64,2.16-1.56.7.04.92.8,2.32,1.14ZM390.78,61.55c-.22-.43-.94-1.57-1.43-.73-.74,1.28-.11,2.93-.33,4.85.24,1.06,1.92-3.81,1.76-4.12ZM392.34,65.22c1.73-1.51,1.26-3.23.38-4.75-.11,1.68-1.98,2.98-.38,4.75ZM378.72,64.53c-1.22-.18-1.81-.13-2.36-.78-.57-.68.13-1.54-.58-2.64-.46.82-.56,2.16-.23,3.34.37,1.31,2.47,1.17,3.17.07Z"/>
        <path class="cls-53" d="M385.39,53.63c.94-.5,3.02-.53,3.49.73.45,1.19.29,2.8-1.1,3.89-.93.73-2.5.21-3.43-1.17-.77-1.15-.83-2.47,1.04-3.45ZM385.93,54.25c-.97.54-1.09,1.68-.52,2.4s1.45.93,2.29.36c1.1-.74.42-1.24.14-2.04-.33-.93-.81-1.33-1.91-.72Z"/>
        <path class="cls-72" d="M376.08,56.71c.04.94,1.03.82,1.95,1.1-.37.86-1.58.87-2.3.8-1.14-.1-1.08-5.04-.02-5.21.64-.1,2.41-.52,2.11.64-1.88.08-2.2,1.25-.68,1.55.76.05.86.24.62.51-.22.24-.53.27-1.67.61Z"/>
        <path class="cls-102" d="M388.39,65.36c-1.4-.34-1.62-1.1-2.32-1.14-1.31-.08-1.24.83-2.16,1.56-.38-2.19.81-3.69,2.01-5.63,1.55,1.49,1.81,2.99,2.47,5.2ZM386.5,62.53c0-.35-.28-.63-.63-.63s-.63.28-.63.63.28.63.63.63.63-.28.63-.63Z"/>
        <path class="cls-74" d="M372.24,64.04c1.3-.17,1.66,0,2.72.46-1.05,1.16-2.38,1.2-3.19.79-1.51-.78-2.08-2.43-1.26-3.66s2.47-1.61,3.74-.72c-1.16.48-1.94.07-2.42.71-.45.61-.67,2.56.41,2.42Z"/>
        <path class="cls-107" d="M382.63,53.71c-.81.78-1.9.4-2.31,1.23-.23.46-.29,1.17.01,1.78.48.96,1.46.5,2.93.62-.54,1.56-1.83,1.45-2.77.95-1.26-.67-1.72-2.05-1.22-3.3.45-1.13,1.66-2.45,3.35-1.29Z"/>
        <path class="cls-19" d="M382.46,62.8c-.97.78-2.15-.39-2.8,1.08,1.15,1.11,2.29-.03,3.59.81-1.17.71-2.4.2-3.9.31v-4.47c1.29.08,2.35-.41,3.24.33-.9.73-2.63-.32-2.63.94s1.79.09,2.49.99Z"/>
        <path class="cls-124" d="M390.78,61.55c.16.31-1.52,5.18-1.76,4.12.22-1.92-.41-3.57.33-4.85.48-.84,1.21.3,1.43.73Z"/>
        <path class="cls-22" d="M392.34,65.22c-1.6-1.77.26-3.07.38-4.75.88,1.52,1.35,3.24-.38,4.75Z"/>
        <path class="cls-117" d="M378.72,64.53c-.7,1.1-2.8,1.23-3.17-.07-.33-1.18-.23-2.53.23-3.34.71,1.1,0,1.96.58,2.64s1.14.6,2.36.78Z"/>
        <path class="cls-54" d="M385.93,54.25c1.09-.61,1.57-.21,1.91.72.29.81.97,1.3-.14,2.04-.84.56-1.72.35-2.29-.36s-.46-1.86.52-2.4Z"/>
        <circle class="cls-70" cx="385.86" cy="62.53" r=".63"/>
      </g>
    </g>
  </g>
</svg>