<?xml version="1.0" encoding="UTF-8"?>
<svg id="Layer_2" data-name="Layer 2" xmlns="http://www.w3.org/2000/svg" viewBox="0 0 296.75 272.63">
  <defs>
    <style>
      .cls-1 {
        fill: #a59995;
      }

      .cls-2 {
        fill: #e0e0e0;
      }

      .cls-3 {
        fill: #d8d0cb;
      }

      .cls-4 {
        fill: #b9afaa;
      }

      .cls-5 {
        fill: #ada19d;
      }

      .cls-6 {
        fill: #e6e7e6;
      }

      .cls-7 {
        fill: #fbf1b3;
      }

      .cls-8 {
        fill: #adadab;
      }

      .cls-9 {
        fill: #bababb;
      }

      .cls-10 {
        fill: #846952;
      }

      .cls-11 {
        fill: #eaebea;
      }

      .cls-12 {
        fill: #e3e3e3;
      }

      .cls-13 {
        fill: #d2d2d2;
      }

      .cls-14 {
        fill: #e9e9e8;
      }

      .cls-15 {
        fill: #e8e9e9;
      }

      .cls-16 {
        fill: #d9d9d9;
      }

      .cls-17 {
        fill: #dbdbdb;
      }

      .cls-18 {
        fill: #bda147;
      }

      .cls-19 {
        fill: #ead580;
      }

      .cls-20 {
        fill: #c1c1c1;
      }

      .cls-21 {
        fill: #f2eae8;
      }

      .cls-22 {
        fill: #929493;
      }

      .cls-23 {
        fill: #d0d0cf;
      }

      .cls-24 {
        fill: #f6e698;
      }

      .cls-25 {
        fill: #c2c3c3;
      }

      .cls-26 {
        fill: #706a20;
      }

      .cls-27 {
        fill: #ccc;
      }

      .cls-28 {
        fill: #b2a7a5;
      }

      .cls-29 {
        fill: #c3c3c3;
      }

      .cls-30 {
        fill: #c4c4c4;
      }

      .cls-31 {
        fill: #b9b9b8;
      }

      .cls-32 {
        fill: #b9bab9;
      }

      .cls-33 {
        fill: #ede2ba;
      }

      .cls-34 {
        fill: #faf9f9;
      }

      .cls-35 {
        fill: #bebebe;
      }

      .cls-36 {
        fill: #c7c7c7;
      }

      .cls-37 {
        fill: #fbefae;
      }

      .cls-38 {
        fill: #ddd4d0;
      }

      .cls-39 {
        fill: #c7c7c8;
      }

      .cls-40 {
        fill: #ab944f;
      }

      .cls-41 {
        fill: #e0ca79;
      }

      .cls-42 {
        fill: #e8e8e7;
      }

      .cls-43 {
        fill: #bdbebd;
      }

      .cls-44 {
        fill: #a49894;
      }

      .cls-45 {
        fill: #b6b6b5;
      }

      .cls-46 {
        fill: #caae4c;
      }

      .cls-47 {
        fill: #959495;
      }

      .cls-48 {
        fill: #a6a4a3;
      }

      .cls-49 {
        fill: #fff;
      }

      .cls-50 {
        fill: #8d6c50;
      }

      .cls-51 {
        fill: #9d9e9e;
      }

      .cls-52 {
        fill: #faedad;
      }

      .cls-53 {
        fill: #e6ddda;
      }

      .cls-54 {
        fill: #d0cab1;
      }

      .cls-55 {
        fill: #f2ebe7;
      }

      .cls-56 {
        fill: #e3e1d7;
      }

      .cls-57 {
        fill: #fafafa;
      }

      .cls-58 {
        fill: #e2e3e2;
      }

      .cls-59 {
        fill: #f0e9e4;
      }

      .cls-60 {
        fill: #eee6e0;
      }

      .cls-61 {
        fill: #bdbdbc;
      }

      .cls-62 {
        fill: #ebebea;
      }

      .cls-63 {
        fill: #f8f8f8;
      }

      .cls-64 {
        fill: silver;
      }

      .cls-65 {
        fill: #835d43;
      }

      .cls-66 {
        fill: #b8b8b8;
      }

      .cls-67 {
        fill: #d5cbc8;
      }

      .cls-68 {
        fill: #f7f7f7;
      }

      .cls-69 {
        fill: #b2b673;
      }

      .cls-70 {
        fill: #e1e1de;
      }

      .cls-71 {
        fill: #b0a5a1;
      }

      .cls-72 {
        fill: #fbf2c2;
      }

      .cls-73 {
        fill: #a5a6a6;
      }

      .cls-74 {
        fill: #d4d3d2;
      }

      .cls-75 {
        fill: #b2b3b3;
      }

      .cls-76 {
        fill: #ba9c3f;
      }

      .cls-77 {
        fill: #c0bfbe;
      }

      .cls-78 {
        fill: #9e9e9c;
      }

      .cls-79 {
        fill: #dbdbda;
      }

      .cls-80 {
        fill: #b8b9b9;
      }

      .cls-81 {
        fill: #ede5e0;
      }

      .cls-82 {
        fill: #f6f5f4;
      }

      .cls-83 {
        fill: #e2d38d;
      }

      .cls-84 {
        fill: #f3ebe8;
      }

      .cls-85 {
        fill: #b48a6a;
      }

      .cls-86 {
        fill: #fbfbfb;
      }

      .cls-87 {
        fill: #928580;
      }

      .cls-88 {
        fill: #b5aaa6;
      }

      .cls-89 {
        fill: #f4e28f;
      }

      .cls-90 {
        fill: #fafbfb;
      }

      .cls-91 {
        fill: #f1f1eb;
      }

      .cls-92 {
        fill: #aaaaa9;
      }

      .cls-93 {
        fill: #fcf2b2;
      }

      .cls-94 {
        fill: #fbe9a0;
      }

      .cls-95 {
        fill: #d3d5d7;
      }

      .cls-96 {
        fill: #bebfbe;
      }

      .cls-97 {
        fill: #efefee;
      }

      .cls-98 {
        fill: #a8a8a8;
      }

      .cls-99 {
        fill: #d7d8d9;
      }

      .cls-100 {
        fill: #cda582;
      }

      .cls-101 {
        fill: #989898;
      }

      .cls-102 {
        fill: #cbae4c;
      }

      .cls-103 {
        fill: #ededed;
      }

      .cls-104 {
        fill: #e3c75d;
      }

      .cls-105 {
        fill: #adadad;
      }

      .cls-106 {
        fill: #a5a295;
      }

      .cls-107 {
        fill: #c7c7c6;
      }

      .cls-108 {
        fill: #afafaf;
      }

      .cls-109 {
        fill: #bebebd;
      }

      .cls-110 {
        fill: #939394;
      }

      .cls-111 {
        fill: #beb2ac;
      }

      .cls-112 {
        fill: #9c9d9d;
      }

      .cls-113 {
        fill: #b0b1b3;
      }

      .cls-114 {
        fill: #a0a0a1;
      }

      .cls-115 {
        fill: #a2a4a5;
      }

      .cls-116 {
        fill: #e0e0df;
      }

      .cls-117 {
        fill: #b1b2b3;
      }

      .cls-118 {
        fill: #fcf8d8;
      }

      .cls-119 {
        fill: #ead683;
      }

      .cls-120 {
        fill: #e8d686;
      }

      .cls-121 {
        fill: #ececec;
      }
    </style>
  </defs>
  <g id="Layer_1-2" data-name="Layer 1">
    <g id="Generative_Object" data-name="Generative Object">
      <g>
        <path class="cls-92" d="M37.19,217.12c1.84.02,3.85.38,5.67.15-2.73,3.98,13,.41,13.5.02,7.1-.37,13.41-.32,21.34-.3l21.67.07c1.66,1.83-3.25,3.02-4.09,8.98-.3,2.09.98,4.3,2.76,5.33.89.52,2.08.53,2.22,1.61-.5.38-1.86,1.16-2.02,1.89-.25,1.18,1.52.66,2.06.97,1.95,1.11,3.58,1.97,5.62,2.08-.22-.78.06-1.48.42-.96.19.27.87.16.92.46.04.22-.51.41-.68.75.79.15,1.17.58,2.39-.12-.97,2.47,2.88-.66,6.63,1.56.33.2.49.59.23.77-2.91,2.79,4.46.47,7.58.01.29-.04.44-.53.33-.91l9.45,2.23c.86.2,1.89.56,2.07,1.4l-6.81,2c-6.77,1.99-8.08.29-12.76.68.75,1.27,1.84.53,2.86.76,3.53.79,11.82,1.96,14.56,3.51,4.52,2.56,20.05,2.82,16.75,5.45-1.67.72-34.58-9.1-39.28-9.05l-15.02,1.06-41.52-1.95c-8.65-.41-21.21-1.63-27.23-8.26-2.21-2.44-2.43-5.62-.69-8.4,1.43-2.29,3.42-4.2,5.92-5.34l9.42-4.27c-9.73.11-23.9-1.1-30.45-7.32.14-.46-.19-.54-.58-.45l-.31-1.19c8.14,4.36,17.84,6.66,27.05,6.78ZM49.35,225.49c-2.81,1.16-7.98,2.92-9.23,6.53-.98,2.82,1.22,5.16,3.59,6.03,1.38.51,2.9,3.17,5.1,2.13.9-.42,1.75-1.76,3.06-2.02,1.87-.37,3.79-.98,5.69-1.85-.73-1.3-2.73-1.9-2.67-3.31.1-2.6,3.06-3.9,4.91-5.16.35-1.11-1.03-3.45-2.43-3.59-2.91-.31-5.31.68-8.02,1.25Z"/>
        <path class="cls-105" d="M277.34,214.99c1.99.46,7.91,1.1,7.21,2.85-.11.26-.29.64-.67,1l-9.38,8.91c6.95,1.28,14.42,3.31,19.27,8.04,3.5,3.42,4,8.4,1.07,12.28-1.78,2.35-4.15,4.09-6.77,5.44-14.16,7.34-25.8,6.21-41.38,5.93-5.01,4.29-11.23,12.19-18.31,12.91-6.34.64-12.5.15-18.68-1.3l-9.95-2.33c-.39-.09-.9-.28-.81-.67,2.24.42,7.32,1.11,10.84.52,1.59.57-.61-.24.87-.51.08.46-.26,1,.41,1.05.44.04.97-.1,1.43-.13-.05.31.11.46.29.48.27.04.77-.09,1.08-.16l3.31-.81c1.89-.46,4.85-1.28,6.58-2.77.35.19.78.23,1.36-.16,6.52-4.3,24.46-22.5,30.75-27.99l10.98-9.6c3.04-2.66,5.94-5.19,8.66-8.19.99-1.09,1.26-2.69.17-3.6.52-.36.67-1.42,1.67-1.19Z"/>
        <path class="cls-109" d="M43.71,238.05l-1.97-3.67c-2.05-3.82,8.14-8.31,7.61-8.89,2.71-.57,5.12-1.55,8.02-1.25,1.4.15,2.78,2.48,2.43,3.59-1.85,1.27-4.81,2.57-4.91,5.16-.06,1.41,1.94,2,2.67,3.31-1.9.87-3.82,1.48-5.69,1.85-1.31.26-2.15,1.6-3.06,2.02-2.2,1.03-3.73-1.62-5.1-2.13Z"/>
        <path class="cls-74" d="M43.71,238.05c-2.37-.88-4.57-3.21-3.59-6.03,1.25-3.61,6.42-5.37,9.23-6.53.53.58-9.67,5.07-7.61,8.89l1.97,3.67Z"/>
        <path class="cls-22" d="M223.75,265.72c6.45-5.54,12.57-11.25,18.91-17.52l20.9-20.69c4.04-4,7.68-8.25,12.11-11.32,1.09.91.81,2.51-.17,3.6-2.72,3.01-5.62,5.54-8.66,8.19l-10.98,9.6c-6.28,5.49-24.23,23.7-30.75,27.99-.58.38-1.01.34-1.36.16Z"/>
      </g>
      <g>
        <path class="cls-84" d="M157.77,198.36l-.24,14.47c-.06,3.48.02,6.15,1.48,8.85,3.81,7.08,10.62,9.18,18.15,12.11,4.6,1.79,9.25,2.42,13.73,3.3,8.74,1.72,17.55,2.43,26.73,1.92,3.94-.22,13.61,1.12,14.55,4.56.36,1.32.21,3.18-1.17,3.65-.39.13-.11,1.13-.69,1.45-1.44.81-4.62-3.01-3.97-.65.72,2.59-1.71,4.42-4,5.12-1.74.53-1.15,2.85-1.45,4.08-.22.91-1.18,1.82-.42,2.49-1.3,5.03-.06,4.28-3.3,8.77l-3.31.81c-.31.08-.81.2-1.08.16-.18-.02-.33-.18-.29-.48,3.5-.19,6.1-3.21,6.14-7.11.04-3.33-2.15-6.23-4.68-8.41-4.43-3.82-9.96-5.73-15.89-6.54-12.74-1.75-23.38-4.8-35.28-7.73l-13.41-3.3-10.74-2.87,1.43-4.79c1.87-6.26-5.88-15.52-17.77-14.62-4.24.32-8.19-.52-11.72-2.29.55-1.5,2.24-1.84,3.62-2.75,1.61-1.07,12.95-9.55,13.56-10.13l7.59-7.15c2.01-1.89,16.21-13.75,19.66-14.06l2.51-.23.26,21.35Z"/>
        <path class="cls-5" d="M279.73,205.48c-.51-.06-1.02-.13-1.33.14-.52.45-.52,1.01-.61,1.65-.28,2.15-2.35,2.76-3.61,3.98-.82.78,1.06,1.01-3.22,2.39-.52.17-.11,2.57-3.69,4.84-1.04-.95-1.95.18-2.55.21-2.4.12-3.5,1.53-4.98,3.09-2.9,3.04-6.54,5.32-8.87,8.88-.34.52-.19,1.3-.49,1.66-.5.59-1.03.51-1.96.64-1.48.21-2.17,1.71-3.26,2.34s-2.4,1.33-2.18,2.72c.06.39.5.83.36,1.28-.23.76-1.04,0-1.51.06-1.35.15-2.38,1.96-3.57,2.34-1.45.46-2.19.85-2.05,2.46-.54.52-2.01.44-2.07,1.19l-.29,3.77c-1.63,2.54-3.8,4.51-6.36,5.86-1.34.71-1.36,3.22-2.81,4.25,1.02-.73-4.26,1.69-4.23.5-.76-.67.2-1.58.42-2.49.3-1.23-.3-3.55,1.45-4.08,2.29-.7,4.71-2.53,4-5.12-.65-2.36,2.53,1.46,3.97.65.58-.33.3-1.32.69-1.45,1.39-.46,1.53-2.33,1.17-3.65-.94-3.44-10.6-4.78-14.55-4.56-9.18.51-17.99-.2-26.73-1.92l1.97-.73c11.75.34,22.68-.7,33.67-6.6,3.6-1.93,6.77-4.62,8.27-8.49s.19-9.85,1.55-9.83c5.63.2,11.35.18,17.2,1.01,3.41.49,5.97,1.87,8.5,4.03.84.71,1.96-.67,2.57-.91.65-.25.28-1.72.62-2.28s1.05-.49.68-.96c-.43-.56-.5-.81-1.06-.59,3.64-3.5.93-3.01,2.12-3.93,1.42-1.08,1.55-.2,2.38-1.25.39-.5-.27-1.19-.2-1.56.19-.96,1.62-.62,2.17-.98l1.71-1.11c1.94.99,4.12.41,5.21-1.27.55,1.21,1.35,2,1.46,3.83Z"/>
        <path class="cls-21" d="M272.87,196.06c-.38,1.2-1.51,1.91-2.24,3.02-.58.88-.45,1.99-2.1,2.14-.98.09-1.5,1.58-2.77,1.16-1.81-.6.4,3.53-2.98,4.22-.31-.33-.49-1.08-.98-1.16-.43-.07-2.67,2.38-2.36,1.84-.36.61.06.93.35,1.15,1.72,1.3,4.31-1.14,2.32,1.48-.63.83.77,1.91,1.17,2.64.8-.46,1.12-.63,1.59-.81.56-.22.63.03,1.06.59.37.47-.35.4-.68.96s.03,2.03-.62,2.28c-.61.24-1.74,1.62-2.57.91-2.53-2.16-5.09-3.54-8.5-4.03-5.85-.83-11.57-.82-17.2-1.01.37-.27-.66-.41-.65-.68l.27-21.36c-2.31-.58,11.37,1.88,7.79.98,7.94,1.99,5.17-.38,13.02,1.59,1.42.36,2.76.18,4.17.44,4.37.79,8.5,1.27,11.93,3.64Z"/>
        <path class="cls-111" d="M279.73,205.48c.2,3.11.18,6.13-2.5,8.73-.21.2-.09.6.1.78-1-.23-1.15.82-1.67,1.19-4.43,3.08-8.06,7.32-12.11,11.32l-20.9,20.69c-6.34,6.28-12.46,11.99-18.91,17.52-1.74,1.49-4.69,2.31-6.58,2.77,3.23-4.5,2-3.74,3.3-8.77-.03,1.2,5.25-1.23,4.23-.5,1.45-1.02,1.47-3.54,2.81-4.25,2.57-1.35,4.73-3.33,6.36-5.86l.29-3.77c.06-.75,1.53-.67,2.07-1.19-.14-1.62.6-2.01,2.05-2.46,1.19-.37,2.22-2.19,3.57-2.34.47-.05,1.28.71,1.51-.06.13-.45-.3-.9-.36-1.28-.22-1.38,1.08-2.08,2.18-2.72s1.78-2.13,3.26-2.34c.93-.13,1.46-.05,1.96-.64.3-.36.15-1.14.49-1.66,2.33-3.56,5.97-5.84,8.87-8.88,1.48-1.55,2.58-2.97,4.98-3.09.6-.03,1.51-1.15,2.55-.21,3.58-2.28,3.17-4.68,3.69-4.84,4.28-1.38,2.41-1.61,3.22-2.39,1.26-1.21,3.33-1.83,3.61-3.98.08-.64.09-1.2.61-1.65.31-.27.82-.2,1.33-.14Z"/>
        <path class="cls-88" d="M110.57,211.33c3.54,1.77,7.48,2.61,11.72,2.29,11.89-.9,19.64,8.36,17.77,14.62l-1.43,4.79c-1.52-.41-3.91,0-5.15-1.4.48-1.68,1.51-3.2,1.85-5.18.9-5.33-4.34-10.14-6.27-8.94-.18.11-.1.78.12,1.03,2.81,3.14,3.72,9.51,1.56,12.56-2.21-.27-4.24-.98-6.2-1.82.82.71,3.71-6.09,2.9-7.88-1.87-4.11-6.59-5.48-10.71-5.15,1.66,3.25,6.36,6.06,3.54,10.86-1.51.18-3.31-.26-4.98-1.02-4.93-2.23-10.06-2.86-15.06-1.79-1.14.24-3.02,1.6-2.95,3.14,5.15,7.63,7.64,1.48,9.58,3.74.46.54,1.45.76,2.15.87,1.85-2.9,5.38-.03,7.58.88-.71.99-1.36,2.18-1.2,3.39-2.19-.35-4.86-.17-6.86-1.68-.6-.45-1.07.33-1.86.08-.6-.19-1.23-.6-1.42-1.22-.95.73-1.59.31-1.72-.26-.87.47-2.25-.42-3.22-.25-.14-1.07-1.33-1.09-2.22-1.61-1.78-1.03-3.06-3.23-2.76-5.33.84-5.97,5.75-7.16,4.09-8.98.41,0,1.44.18,1.87-.14l6.41-4.82c1.02-.77,1.85-1.32,2.93-.78Z"/>
        <path class="cls-55" d="M182.03,257.44c-2.4,5.92-2.8-.95-9.71.38-.77-.22-1.89-1.33-2.61-1.15-1.83.47-2.92-.96-4.28-1.33-1.81-.49-4.5-.87-4.84,1.01-1.04.71-2.37.41-3.65.02l-5.82-1.79c-.32-.1-.3.84-.5,1.01-.28.32-.41-.22-.74-.08,3.3-2.63-12.24-2.89-16.75-5.45-2.74-1.55-11.03-2.72-14.56-3.51-1.02-.23-2.11.51-2.86-.76,4.68-.39,5.98,1.31,12.76-.68l6.81-2c.32-.09,1.16-.35,1.49-.26,5.7,1.61,11.17,2.9,16.65,4.76,5.82,1.98,11.63,3.36,17.45,5.57l11.17,4.25Z"/>
        <path class="cls-49" d="M210.64,268.06c-1.48.27.72,1.08-.87.51-3.52.59-8.6-.1-10.84-.52-.59-.11-1.64-.68-2.47-.89-5.46-1.39-10.82-2.75-16.19-3.82-2.08-1.75-4.87-2.12-7.49-2.78.34-.97-.3-1.8-.46-2.74,6.91-1.33,7.31,5.55,9.71-.38l8.42,2.2c7.51,1.96,12.07,7.23,16.9,6.69.88-.1,1.61-.07,2.18-.54,2.35-1.95-1.71-7.28-1.77-7.61-.25-1.52.9-3.63,1.9-4.56,2.51,1.45,5.88,3.08,5.19,7-.08.43-.54,1.44-.36,1.61l1.15,1.12c-.8,1.66-2.27,2.65-3.41,3.79-.31-1.18-.79-1.13-.65,0,0,.56-.66.86-.94.91Z"/>
        <path class="cls-38" d="M278.27,201.65c-1.09,1.68-3.27,2.26-5.21,1.27l-1.71,1.11c-.55.36-1.99.02-2.17.98-.07.37.59,1.07.2,1.56-.83,1.05-.97.16-2.38,1.25-1.2.91,1.51.43-2.12,3.93-.47.18-.79.35-1.59.81-.4-.73-1.8-1.82-1.17-2.64,1.98-2.62-.6-.18-2.32-1.48-.29-.22-.71-.54-.35-1.15-.31.54,1.93-1.91,2.36-1.84.49.08.68.83.98,1.16,3.38-.69,1.16-4.82,2.98-4.22,1.27.42,1.79-1.07,2.77-1.16,1.65-.15,1.52-1.27,2.1-2.14.73-1.11,1.86-1.82,2.24-3.02,2.34,1.61,4.22,2.99,5.4,5.6Z"/>
        <path class="cls-48" d="M160.58,256.35c1.65.35,2.94,1.9,4.63,2.32l7.57,1.88c2.62.65,5.41,1.03,7.49,2.78-.01-.03-.27.54-.57.44-9.85-2.98-20.12-4.35-29.08-8.18.2-.16.18-1.1.5-1.01l5.82,1.79c1.28.39,2.61.69,3.65-.02Z"/>
        <path class="cls-71" d="M212.49,268.98c-.46.03-.99.16-1.43.13-.68-.06-.34-.6-.41-1.05.28-.05.94-.35.94-.91-.14-1.14.34-1.18.65,0,1.14-1.15,2.61-2.14,3.41-3.79l-1.15-1.12c-.18-.17.28-1.18.36-1.61.69-3.92-2.68-5.55-5.19-7-2.81-1.63-5.77-2.78-9.24-3.63l-15.19-3.7c-9.96-2.43-19.82-4.38-29.66-7.39-2.44-.75-4.74-1.29-7.02-1.84.05-.54.7-.66.82-1.16l13.41,3.3c11.9,2.93,22.54,5.98,35.28,7.73,5.92.81,11.46,2.72,15.89,6.54,2.53,2.18,4.72,5.08,4.68,8.41-.04,3.9-2.64,6.92-6.14,7.11Z"/>
        <path class="cls-87" d="M120.25,227.1c.74,1.48,2.81,1.54,4.28,2.17,1.95.84,3.99,1.55,6.2,1.82.87.1,1.88.74,2.75.53,1.25,1.4,3.63,1,5.15,1.4l10.74,2.87c-.12.5-.77.61-.82,1.16-3.12-.76-6.43-1.17-9.52-2.06l-13.48-3.87c-1.14-.33-2.58.3-3.72-.03-.55-.64-1.44-.45-2.34-.95-2.35-1.31-7.28-1.87-9.89-1.91-.28,0-3.76,1.6-4.21-.72-.27-1.38-4.38.95-5.19-3.22,5.01-1.07,10.14-.44,15.06,1.79,1.68.76,3.47,1.2,4.98,1.02Z"/>
        <path class="cls-44" d="M115.35,236.31c2.28.37,4.69.65,6.91,1.35,4.4,1.39,9.04,2.2,13.6,3.17l15.42,3.28c7.79,1.65,15.27,3.07,22.92,5.74,7.16,2.5,13.89,4.42,21.49,4.95,4.39.3,8.49,1.24,12.08,3.39.06.34,4.12,5.67,1.77,7.61-.57.47-1.31.45-2.18.54-4.83.53-9.4-4.73-16.9-6.69l-8.42-2.2-11.17-4.25c-5.82-2.22-11.63-3.6-17.45-5.57-5.48-1.86-10.96-3.15-16.65-4.76-.32-.09-1.17.16-1.49.26-.18-.84-1.21-1.19-2.07-1.4l-9.45-2.23c-1.76-.42-6.29-1.78-7.41-.57-.25.27.35.47.48.73.21.43-.64.82-.99.73.26-.18.11-.57-.23-.77-3.75-2.22-7.6.91-6.63-1.56-1.22.7-1.6.27-2.39.12.17-.34.72-.53.68-.75-.06-.3-.74-.19-.92-.46-.36-.52-.64.18-.42.96-2.04-.12-3.67-.97-5.62-2.08-.54-.31-2.31.21-2.06-.97.16-.74,1.52-1.51,2.02-1.89.98-.17,2.35.72,3.22.25.13.58.77.99,1.72.26.2.61.82,1.03,1.42,1.22.79.25,1.27-.53,1.86-.08,2,1.51,4.67,1.33,6.86,1.68Z"/>
        <path class="cls-81" d="M123.74,239.49c.1.38-.04.87-.33.91-3.12.46-10.49,2.77-7.58-.01.34.09,1.2-.3.99-.73-.13-.26-.73-.46-.48-.73,1.12-1.21,5.64.15,7.41.57Z"/>
        <path class="cls-1" d="M121.82,231.09c0,.71-.79,1.08-1.37,1.44-.65.4-1.23-.85-1.83-.79-.91.09-1.45,1.09-2.07,1.19-2.2-.91-5.72-3.78-7.58-.88-.7-.11-1.69-.33-2.15-.87-1.94-2.26-4.43,3.89-9.58-3.74-.07-1.54,1.82-2.9,2.95-3.14.8,4.17,4.92,1.83,5.19,3.22.45,2.33,3.93.72,4.21.72,2.6.04,7.53.59,9.89,1.91.9.5,1.79.32,2.34.95Z"/>
        <path class="cls-53" d="M124.53,229.27c-1.47-.63-3.54-.69-4.28-2.17,2.83-4.8-1.87-7.61-3.54-10.86,4.13-.33,8.84,1.05,10.71,5.15.81,1.78-2.08,8.59-2.9,7.88ZM124.55,224.3c1.3-2.39.04-5.1-2.28-5.45.85,1.91.98,3.92,2.28,5.45Z"/>
        <path class="cls-67" d="M133.47,231.62c-.86.2-1.88-.43-2.75-.53,2.16-3.05,1.25-9.42-1.56-12.56-.22-.25-.3-.91-.12-1.03,1.93-1.2,7.17,3.61,6.27,8.94-.34,1.98-1.37,3.5-1.85,5.18Z"/>
        <path class="cls-60" d="M125.54,231.12c-.22-.06-.66-.04-.37.61-1.9,1.21-3.32,2.8-4.21,4.95.71,0,1.25.42,1.3.98-2.22-.7-4.63-.98-6.91-1.35-.15-1.21.49-2.4,1.2-3.39.61-.1,1.16-1.09,2.07-1.19.6-.06,1.18,1.19,1.83.79.58-.36,1.37-.73,1.37-1.44,1.14.33,2.58-.3,3.72.03Z"/>
        <path class="cls-3" d="M172.32,257.82c.16.94.8,1.77.46,2.74l-7.57-1.88c-1.69-.42-2.98-1.97-4.63-2.32.35-1.89,3.03-1.5,4.84-1.01,1.36.37,2.45,1.8,4.28,1.33.72-.19,1.85.93,2.61,1.15Z"/>
        <path class="cls-59" d="M148.55,237.05c2.28.55,4.58,1.1,7.02,1.84,9.84,3.01,19.71,4.96,29.66,7.39l15.19,3.7c3.47.85,6.43,2,9.24,3.63-.99.93-2.15,3.04-1.9,4.56-3.59-2.15-7.69-3.08-12.08-3.39-7.6-.53-14.33-2.45-21.49-4.95-7.65-2.67-15.13-4.08-22.92-5.74l-15.42-3.28c1.01-1.98,2.53-3.7,3.16-5.85,3.09.89,6.4,1.3,9.52,2.06Z"/>
        <path class="cls-4" d="M139.03,234.99c-.63,2.15-2.16,3.87-3.16,5.85-4.56-.97-9.2-1.78-13.6-3.17-.06-.56-.6-.99-1.3-.98.89-2.15,2.31-3.74,4.21-4.95-.28-.65.16-.67.37-.61l13.48,3.87Z"/>
        <path class="cls-28" d="M124.55,224.3c-1.3-1.53-1.43-3.54-2.28-5.45,2.31.35,3.57,3.06,2.28,5.45Z"/>
      </g>
      <g>
        <g>
          <path class="cls-100" d="M142.88,139.03c-.8.13-.55,1.42-.67,2.07-1.29,7.24-6.76,12.29-14.39,12.49-6.99.19-13.51-2.76-18.63-7.57-5.76-5.41-8.41-12.4-9.47-20.11l-.62-4.51c-.95-6.9-2.21-13.53-5.81-19.73s-7.54-11.07-12.15-16.48L33.98,29.77l-9.98-12.17c-1.6-1.96-2.73-3.98-3.64-6.15.03-1.31,1.04-2.37,2.08-2.9,3.34-1.71,8.01,3.75,10.26,6.51l31.99,39.42,20.27,25.54c11.23,14.15,15.09,22.43,32.98,29.23,6.99,2.65,13.41,6.17,18.26,12,4.42,5.31,6.83,11.36,6.67,17.79ZM107.19,139.97c3.51,7.49,9.06,8.5,13.22,10.61,1.74.88,2.96,1.85,5.69,1.71,2.1-.11,3.93-.74,6.01-1.34,5.68-1.63,8.85-5.94,9.07-12.14.12-3.43-3.94-12.52-3.94-9.08-.21-.84-1.36-1.67-2.08-2.04-.85-.44-.75-1.26-1.09-1.67,1.06.72,2.12,1.68,3.69,1.78.59-1.44-1.24-2.11-1.44-2.98-.78-3.24-3.71-4.74-5.85-6.73-4.09-3.83-8.54-5.49-13.38-6.29-5.98-.99-12.1,1.05-14.42,7.65-2.12,6.06-1.12,12.69,2.42,18.16.66,1.02,1.05,2.14,2.1,2.34Z"/>
          <path class="cls-50" d="M142.88,139.03c-.18,7.1-4.65,13.42-12.21,15.57-6.97,1.98-14.07.2-19.84-4.19-7.3-5.55-11.08-14.13-11.73-23.19-.74-10.34-3.81-19.72-10.18-28.45-7.45-10.21-15.52-19.24-23.73-28.98L25.74,22.99c-2.39-2.83-7.34-8.43-5.37-11.54.91,2.17,2.03,4.19,3.64,6.15l9.98,12.17,47.17,55.43c4.6,5.41,8.63,10.43,12.15,16.48s4.87,12.83,5.81,19.73l.62,4.51c1.06,7.7,3.71,14.69,9.47,20.11,5.12,4.81,11.64,7.76,18.63,7.57,7.63-.2,13.1-5.26,14.39-12.49.12-.65-.13-1.94.67-2.07Z"/>
          <path class="cls-63" d="M126.91,120.78c.52,1-.35,2.17-.17,3.22.22,1.26.47,2.27-.25,3.44,1.65,1.51,1.65-1.64,2.77-1.2,3.04,1.2-1.34,1.08,1.51,3.85-2.26-.05-3.06,1.64-3.47,3.23-3.08,1.92-4.33,1.81-3.91,5.32.05.44-.31,1.12.24,1.35.34.14,1.05-.53,1.52-.46.6.68-.25,2.94-1.29,2.88-.67-.04-.77.19-.69.56.06.26.89.58.78.82-.73,1.42-2.42,1.93-3.42,3.38.78,1.05.9,2.23.36,3.4-.16-.12-.35-.13-.49.01-4.16-2.11-9.71-3.13-13.22-10.61-.62-1.32-.56-2.64-.5-4.26.09-2.57-.8-5.71,1.47-7.47,1.44-1.12,1.74-2.62,2.61-4.05.63-1.03,2.82-.91,3.02-2.37,5.3.25,3.73.28,7.99-.84,1.44-.38,2.72-1.42,4.05-.42.13.1.74-.39.84-.18.06.13.25.21.24.41ZM123.52,132.1c.79-.79.29-1.44-.34-1.59-.53-.12-1.05.09-1.4.41-.45.39-.24.87-.03,1.66.16.61.7.6,1.04.26l.73-.73ZM119.52,141.26c2.84-2.47.52.07,1.67-3.99-9.08.25-.23,3.18-7.71,5.92,1.16.9,2.48.83,3.34.55,1.36-.44,1.63-1.55,2.7-2.48Z"/>
          <path class="cls-61" d="M134.06,126.03c.34.4.24,1.23,1.09,1.67.72.37,1.87,1.2,2.08,2.04.26,1.02.46,1.76,1.37,2.72.65.69.49,2.05,1.19,2.65.99.85.54,1.61.37,2.63-.35,2.1.38,4.59-.94,6.57-.78,1.17-1.66,3.28-2.98,3.97l-4.24,2.19c-.73.38-2.33.25-3.15.68-2.06,1.06-7.42-.19-7.93-.56.54-1.17.42-2.36-.36-3.4,1-1.45,2.69-1.96,3.42-3.38.1-.24-.72-.56-.78-.82-.08-.36.02-.6.69-.56,1.03.06,1.89-2.19,1.29-2.88-.47-.07-1.18.61-1.52.46-.55-.23-.19-.91-.24-1.35-.43-3.51.83-3.39,3.91-5.32.41-1.59,1.21-3.28,3.47-3.23-2.85-2.77,1.54-2.65-1.51-3.85-1.12-.44-1.12,2.71-2.77,1.2.72-1.17.47-2.18.25-3.44-.18-1.05.69-2.22.17-3.22,3.69,3.49,3.42.9,7.15,5.25Z"/>
          <path class="cls-65" d="M117.08,111.81c-3.03,2.44-5.02,6.42-3.29,10.01-.2,1.47-2.4,1.34-3.02,2.37-.87,1.43-1.17,2.93-2.61,4.05-2.27,1.76-1.37,4.9-1.47,7.47-.06,1.62-.12,2.94.5,4.26-1.05-.2-1.44-1.32-2.1-2.34-3.54-5.48-4.54-12.1-2.42-18.16,2.31-6.6,8.43-8.64,14.42-7.65Z"/>
          <path class="cls-85" d="M134.06,126.03c-3.73-4.35-3.46-1.76-7.15-5.25,0-.2-.18-.28-.24-.41-.1-.2-.71.28-.84.18-1.33-.99-2.61.04-4.05.42-4.26,1.13-2.68,1.09-7.99.84-1.73-3.59.26-7.57,3.29-10.01,4.84.8,9.29,2.45,13.38,6.29,2.13,2,5.07,3.49,5.85,6.73.21.86,2.03,1.54,1.44,2.98-1.57-.1-2.63-1.06-3.69-1.78Z"/>
          <path class="cls-10" d="M120.41,150.58c.15-.15.34-.13.49-.01.51.38,5.87,1.63,7.93.56.83-.43,2.42-.3,3.15-.68l4.24-2.19c1.33-.69,2.2-2.8,2.98-3.97,1.32-1.97.59-4.47.94-6.57.17-1.02.62-1.79-.37-2.63-.7-.6-.54-1.96-1.19-2.65-.91-.95-1.11-1.7-1.37-2.72,0-3.44,4.07,5.65,3.94,9.08-.22,6.19-3.39,10.5-9.07,12.14-2.08.6-3.91,1.23-6.01,1.34-2.73.14-3.95-.83-5.69-1.71Z"/>
          <path class="cls-99" d="M119.52,141.26c-1.07.93-1.34,2.04-2.7,2.48-.86.28-2.18.35-3.34-.55,7.48-2.74-1.38-5.67,7.71-5.92-1.14,4.06,1.17,1.53-1.67,3.99Z"/>
          <path class="cls-95" d="M123.52,132.1l-.73.73c-.34.34-.88.35-1.04-.26-.21-.79-.42-1.27.03-1.66.36-.31.88-.53,1.4-.41.63.15,1.13.81.34,1.59Z"/>
        </g>
        <g>
          <path class="cls-12" d="M65.37,131.09c.14.37-.06.67-.06.93-3.9,3.93-9.6,5.45-15.48,6.34-12.58,1.92-22.59,1-34.68-3.31,2.3,3.32,13.17,4.58,15,5.46-1.54,7.21,6.75,16.05,11.84,20.84,4.24,3.99,8.14,8.01,12.09,12.38-4.08-.8-5.53-4.24-8.81-5.85-6.92-3.38-16.31-13.64-17.34-21.27-.15-1.12,1.39-3.41-.35-3.84-1.2.03-3.13,1.86-3.32,3.14-1.63-1.4-3.83-2.23-6.19-2.4-.95.3-1.51,1.64-2.26,2.47.97,1.02,1.59,1.58,2.33,3.01l-3.71,1.71c-1.28.59-12,2.65-11.94,11.75l.22,37.28c.02,3.7,5.06,8.07,8.4,9.25l.45-44.09c2.98,2.7,5.08,4.4,8.3,5.46-.38.93-.32,2.02-.3,3.29l.4,38.6c6.59,2.48,13.38,3.29,20.1,3.43.67.9-3.08.19-2.87,1.43-9.21-.12-18.91-2.42-27.05-6.78l.31,1.19c-1.77.4-2.99-1.38-4.15-2.74-.16-.18-1.03.08-1.12-.25-.06-.21-.11-.38-.16-.85-3.16-2.57-4.58-6.23-4.79-10.27-.29-5.43-.31-10.8-.01-16.33.14-2.65.4-5.28.04-7.71-.23-1.53.11-2.8.13-4.38l.13-14.56c.01-1.53.61-3.16,1.07-4.64,1.57-5.12,5.43-8.71,8.84-12.54s.07-.61,1.58-3.67c.8.32,1.32,1.18,2.42,1.07-.45-1.34-1.69-1.59-2.47-1.74.1-1.2-1.23-2-.92-3.21,6.82,7.66,24.15,8.76,34,8.31.38-.13.57-.77,1.02-.77,7.12.03,13.64-2.39,19.32-6.15Z"/>
          <path class="cls-12" d="M65.21,134.4c4.02,8.74,9.38,8.76,11.13,19.93.7,4.47-.09,14.91.44,17.43.08.38-.25,10.08-.23,10.41l.23,4.1-.24,13.05c-.05,2.75-1.84,5.89-4.11,8.28l-1.39,1.47c-2.16,2.28-4.97,4.26-8.21,4.3-.57,0-1.61-.36-2.23-.07.22-.18-.16-.65-.47-.62-.83.37-1.51.16-2.07.27-.3-.17-.34-.34,0-.51,1.74-.32,4.68-.71,5.75-2.38,4.06-.64,11.01-6.87,9.86-11.19.86-.1,1.01-1.31,1.02-2.34l.31-28.47c0-.79-.31-1.42-.47-1.89.56-2.99.03-6.06-2.89-8.12-.78.74.51.82.89,1.4,1.05,1.61.55,4.72-1.29,5.74-.55.3-1.67-.66-2.49-.31-.72.3-.99,1.01-1.62,1.84-.72.93-2.48,1.33-2.49,2.55,0,.37.66.61.88.67.32.09.13.61.22.93-2.16,1.69-4.91,2.41-7.57,1.67,2.25-1.68,3.14-.86,3.45-3.32.14-1.11-1.09-2.18-1.92-2.14.21-1.67,1.5-4.22,3.49-3.77.99.22,2.01,1.92,3.54,1.28,1.14-.47.56-2.05.48-3.08-.15-1.89,4.03-.27,3.59-1.91-1.32-.69-.45-1.97-.92-2.51-1.22-1.4-3.2-3.78-5.05-4.54-5.2-2.13-3.68-4.03-10.42-8.79-1.45-1.02-2-3.27-3.66-3.83,4.21-1.57,8.91-2.09,12.63-5.13.39-.32.66-.96,1.14-.83.2.06.28.66.69.43ZM68.12,142.54c-3.16-3.93-2.94-7-4.44-6.78-2.49.35-1.07,6.05,1.05,7.01s3.93,1.53,5.46,3.36c-.11-1.61-1.15-2.45-2.07-3.59Z"/>
          <path class="cls-49" d="M54.02,113.73c2.43,1.02,10.05,5.1,7.19,9.1-.93,1.3-2.28,2.06-3.51,2.72-1.72.29-3.22-.97-5.07-1.55-7.29-2.3-22.71-2.19-30.41.85,1.05,1.2,2.56.46,2.83,1.66-1.73-.74-3.78-.93-5.58-1.37-1.56-.38-3.96-2.15-4.05-3.7-.03-.43-.25-1.46-.07-1.82,1.98-3.79,6.57-6.37,10.61-6.28.6.01,8.19-1.23,8.89-.4-5.76.85-12.09.72-17.08,5.56,10.25-4.48,22.94-5.07,34.66-2.23,2.7.65,4.9,1.86,7.52,3.23-.56-1.46-1.95-2.1-3.28-2.62l-6.27-2.42c-4.3-1.66-9.71-1.45-14.62-1.55-.69-1.01,7.55-.25,9.74-.56.53-.08,7.77,1.36,8.49,1.39ZM55.02,120.58c-2.72-2.67-17.81-3.38-21-2.84-4.56.78-9.56.42-13.37,3.64,14.1-4.12,21.47-3.49,34.37-.8ZM53.58,122.64c-2.7-2.76-17.65-2.44-21.18-2.06-4.29.47-8.54.97-12.11,3.44,2.58-.22,4.6-1.37,7.09-1.87,8.33-1.66,17.43-.87,26.19.49Z"/>
          <path class="cls-58" d="M19.47,125.13c1.8.44,3.85.63,5.58,1.37,3.21,1.38,7.01,1.17,10.9,1.8.06.83-1.17,1.24-.3,1.4,6.52,1.18,12.39-.45,18.31-1.3,2.56-.37,7.75.11,12.23-5.75-.42.91.73,1.59.52,2.2-.49,1.38-1.04,2.77-.97,3.91-7.01,5.29-15.74,7.69-24.9,6.89-1.39-.12-3.21-1.24-4.6.19-.54-.41-.58-1.16-1.16-1.03-.46.11-1.04.45-1.62.48-7.03.26-17.21-2.27-22.29-6.89-.36-.61-1.95-5.01-.26-5.62,1.18,1.67,7.13,5.62,8.58,4.04.42-.46.3-.96-.03-1.69ZM29.16,129.64l-7.26-2.73c-5.24,1,7.23,3.68,7.26,2.73Z"/>
          <path class="cls-49" d="M65.21,134.4c-.41.23-.48-.37-.69-.43-.48-.14-.75.51-1.14.83-3.72,3.04-8.41,3.56-12.63,5.13-1.34.5-3.26-.06-4.66.55-.72.31-2.42-.33-2.3,1.49.27,3.89,1.22-1.66-5.29,3.5-1.28,1.02-1.32,2.7-2.17,3.79-2.03-2.42-3.14-5.29-3.8-8.73-.92-.3-1.72.3-2.38-.02-1.84-.88-12.7-2.14-15-5.46,12.08,4.31,22.1,5.23,34.68,3.31,5.88-.9,11.58-2.41,15.48-6.34,0,.68-.32,1.74-.11,2.38Z"/>
          <path class="cls-12" d="M65.74,128.75c.04.7.24,1.81-.37,2.34-5.67,3.76-12.19,6.18-19.32,6.15-.45,0-.64.64-1.02.77-9.85.45-27.18-.65-34-8.31.13-.51.43-.82.14-1.3,5.08,4.62,15.26,7.15,22.29,6.89.58-.02,1.15-.37,1.62-.48.57-.13.62.62,1.16,1.03,1.39-1.44,3.21-.31,4.6-.19,9.16.8,17.89-1.6,24.9-6.89Z"/>
          <path class="cls-31" d="M66.19,122.64c-4.49,5.86-9.67,5.38-12.23,5.75l2.74-1.13c.81-.34.95-1.05,1-1.72,1.24-.66,2.59-1.42,3.51-2.72,2.86-4-4.76-8.07-7.19-9.1,5.45.2,14.13,4.69,12.17,8.91Z"/>
          <path class="cls-66" d="M35.79,112.91c4.9.1,10.31-.11,14.62,1.55l6.27,2.42c1.33.51,2.71,1.16,3.28,2.62-2.62-1.37-4.82-2.57-7.52-3.23-11.72-2.84-24.41-2.26-34.66,2.23,5-4.84,11.33-4.71,17.08-5.56.36.07.73.19.93-.03Z"/>
          <path class="cls-29" d="M25.97,113.33c-4.04-.09-8.63,2.49-10.61,6.28-.19.35.04,1.39.07,1.82.1,1.55,2.49,3.31,4.05,3.7.32.73.44,1.24.03,1.69-1.44,1.58-7.39-2.37-8.58-4.04-2.3-6.3,11.85-10.02,15.9-10.55.3.74-.23.7-.6.63-.17-.03-.31.24-.26.47Z"/>
          <path class="cls-49" d="M12.01,133.57c.07-.15-.07-.47-.05-.66.79.15,2.03.39,2.47,1.74-1.1.11-1.62-.75-2.42-1.07Z"/>
          <path class="cls-12" d="M11.03,211.99c-.31-.01-.48-.07-.58-.45.39-.09.72-.01.58.45Z"/>
          <path class="cls-12" d="M62.36,213.83c.04-.27.1-.61.46-.47.19.35-.13.56-.46.47Z"/>
          <path class="cls-27" d="M59.71,167.07c.83-.04,2.06,1.03,1.92,2.14-.31,2.46-1.21,1.63-3.45,3.32,2.66.74,5.41.02,7.57-1.67,1.14-.89,4.24.08,5.65-1.4l3.14-3.3c.17.47.48,1.1.47,1.89l-.31,28.47c-.01,1.03-.16,2.24-1.02,2.34-.56-2.13-1.01-4.46-.94-6.95.09-3.15-2.38-5.59-2.6-8.51l-.52-6.95c-.06-.74-.53-1.16-.89-1.31-6.32-2.49-5.67,20.23-4.41,22.78.56,3.65-2.78,11.83-6.25,13.44-.22.1-.32.66-.28.85.03.14,0,.22.27.22-.33.17-.29.34,0,.51-.24.04-3.42.69-3.47.73-1.02.85-3.9.59-5.17,1.01-3.12,1.04-6.4.87-9.34,1.01-6.73-.14-13.51-.95-20.1-3.43l-.4-38.6c-.01-1.27-.07-2.36.3-3.29,1.74.57,5.27-1.31,6.56-.42-1.82,13.13,1.93,13.07,3.32,15.77,2.23,4.33,2.16,9.21,2.23,14.06l.14,10.4c0,.72.61,1.58,1.09,1.58.51,0,8.3-3.69,9.95-5.59,7.62-8.81,12.15-19.95,13.07-31.55.09-1.18-.1-1.96,1.22-2.53-.63-.65-1-1.28-1.5-1.75,2.29-6.91,2.11-3.89,2.97-4.66.13-.12-.08-.26.27-.41.36.54-.43.79-.42,1.09.02.4.65.71.94.7Z"/>
          <path class="cls-43" d="M36.33,149.26c1.06,1.26,1.3,3.29,2.86,4.27.67.42,1.03,2.01,1.83,2.76l14.94,14.06c.49.47.87,1.1,1.5,1.75-1.33.57-1.13,1.35-1.22,2.53-.91,11.61-5.45,22.75-13.07,31.55-1.64,1.9-9.43,5.59-9.95,5.59-.49,0-1.08-.86-1.09-1.58l-.14-10.4c-.07-4.85,0-9.74-2.23-14.06-1.39-2.7-5.14-2.64-3.32-15.77.5.34,1.87-.06,2.46.76,2.34,3.24,7.25,3.1,11.57,3.03,1.74-.03,4.09.62,5.17-.87l-10.39-8.66c-1.7-1.42-11.96-14.12-10.99-18.3.19-1.27,2.12-3.1,3.32-3.14,1.74.43.2,2.72.35,3.84,1.03,7.63,10.42,17.89,17.34,21.27,3.28,1.6,4.73,5.05,8.81,5.85-3.94-4.37-7.85-8.39-12.09-12.38-5.09-4.79-13.38-13.63-11.84-20.84.66.32,1.46-.28,2.38.02.65,3.44,1.77,6.31,3.8,8.73Z"/>
          <path class="cls-68" d="M24.26,145.92c-.96,4.18,9.29,16.88,10.99,18.3-1.19-.14-1.89,2.96-2.95,3.14-.36.06-.64-.42-1.25-.66-2.81-1.08-1.34,4.93-2.16,4.01-.6-.83-1.97-.42-2.46-.76-1.29-.89-4.82,1-6.56.42-3.22-1.06-5.32-2.77-8.3-5.46l-.45,44.09c-3.34-1.19-8.38-5.56-8.4-9.25l-.22-37.28c-.05-9.1,10.66-11.16,11.94-11.75l3.71-1.71c-.74-1.43-1.36-1.99-2.33-3.01.74-.82,1.31-2.16,2.26-2.47,2.35.17,4.56,1,6.19,2.4Z"/>
          <path class="cls-35" d="M50.75,139.93c1.66.57,2.22,2.81,3.66,3.83,6.74,4.76,5.22,6.66,10.42,8.79,1.85.76,3.83,3.14,5.05,4.54.47.54-.4,1.82.92,2.51.44,1.64-3.75.03-3.59,1.91.08,1.02.66,2.6-.48,3.08-1.53.64-2.55-1.06-3.54-1.28-1.98-.44-3.27,2.1-3.49,3.77-.29.01-.92-.3-.94-.7-.01-.3.78-.55.42-1.09-.77-1.17.54-2.44.82-3.8l.67-3.25c.15-.75-.46-1.29-.84-1.54-.47-.3-.97.34-1.58.76-.94.64-2.23-.69-2.48-1.84-.04,1.54-1.09,2.75-2.84,2.95-.72,1.33-1.12,2.87-2.14,3.87-.35.35-1.3,0-1.54-.17-.48-.35-.45-5.88,1.16-7,1.43-1,2.1-1.56,1.84-3.66-.12-1.01,1.48-2.23.73-3.47-.47-.78-.78-1.14-1.68-1.2-.79-.06-.95.72-1.63,1.41-.54.02-1.14-.89-1.72-.62-.47.22-1.74.39-1.78,1.07-3.73-.49.9-4.56-.07-8.29,1.41-.61,3.32-.05,4.66-.55ZM49.29,144.96c.76.14.91-.7.9-1.04s-.11-1.36-1.01-1.22c-.61.09-.58,2.14.11,2.27Z"/>
          <path class="cls-64" d="M73.67,198.86c1.14,4.32-5.8,10.54-9.86,11.19l2.22-3.46c2.98-4.64,2.95-10.85.84-15.81-1.58-1.28-1.38,7.37-2.55,7.15-1.27-2.56-1.91-25.27,4.41-22.78.36.14.83.56.89,1.31l.52,6.95c.22,2.91,2.69,5.35,2.6,8.51-.07,2.49.38,4.82.94,6.95Z"/>
          <path class="cls-108" d="M63.8,210.04c-1.07,1.67-4.01,2.07-5.75,2.38-.28,0-.24-.08-.27-.22-.03-.18.06-.74.28-.85,3.47-1.61,6.81-9.79,6.25-13.44,1.18.22.98-8.43,2.55-7.15,2.11,4.96,2.14,11.17-.84,15.81l-2.22,3.46Z"/>
          <path class="cls-86" d="M74.53,166.16l-3.14,3.3c-1.4,1.47-4.51.5-5.65,1.4-.09-.32.1-.85-.22-.93-.23-.06-.88-.3-.88-.67,0-1.21,1.77-1.61,2.49-2.55.63-.82.9-1.54,1.62-1.84.82-.34,1.95.62,2.49.31,1.84-1.02,2.34-4.14,1.29-5.74-.38-.58-1.67-.67-.89-1.4,2.92,2.06,3.45,5.14,2.89,8.12Z"/>
          <path class="cls-36" d="M68.12,142.54c.92,1.14,1.96,1.98,2.07,3.59-1.53-1.83-3.28-2.37-5.46-3.36s-3.54-6.66-1.05-7.01c1.51-.21,1.28,2.85,4.44,6.78Z"/>
          <path class="cls-103" d="M57.7,125.54c-.05.66-.19,1.38-1,1.72l-2.74,1.13c-5.92.85-11.79,2.48-18.31,1.3-.87-.16.37-.56.3-1.4-3.9-.63-7.69-.41-10.9-1.8-.27-1.19-1.78-.45-2.83-1.66,7.7-3.03,23.12-3.15,30.41-.85,1.85.58,3.35,1.84,5.07,1.55Z"/>
          <path class="cls-39" d="M53.58,122.64c-8.76-1.36-17.86-2.15-26.19-.49-2.49.5-4.52,1.65-7.09,1.87,3.56-2.46,7.81-2.97,12.11-3.44,3.53-.38,18.48-.7,21.18,2.06Z"/>
          <path class="cls-25" d="M55.02,120.58c-12.89-2.69-20.27-3.33-34.37.8,3.81-3.22,8.81-2.86,13.37-3.64,3.19-.54,18.27.17,21,2.84Z"/>
          <path class="cls-45" d="M29.16,129.64c-.04.95-12.5-1.73-7.26-2.73l7.26,2.73Z"/>
          <path class="cls-97" d="M46.08,140.48c.97,3.73-3.66,7.8.07,8.29-.08,1.28-1.34,3.54-1.23,3.44-.53.46-1.18-.44-1.68-.67-1.61.26-2.72,1.53-4.05,1.99-1.56-.98-1.8-3.01-2.86-4.27.85-1.09.88-2.77,2.17-3.79,6.51-5.17,5.56.39,5.29-3.5-.13-1.82,1.57-1.18,2.3-1.49Z"/>
          <path class="cls-116" d="M59.19,165.28c-.35.16-.14.29-.27.41-.85.77-.68-2.25-2.97,4.66l-14.94-14.06c-.8-.75-1.16-2.33-1.83-2.76,1.33-.47,2.44-1.73,4.05-1.99.5.23,1.15,1.12,1.68.67-.11.09,1.15-2.16,1.23-3.44.04-.68,1.31-.85,1.78-1.07.59-.27,1.18.65,1.72.62.68-.69.84-1.47,1.63-1.41.9.07,1.21.43,1.68,1.2.75,1.24-.85,2.46-.73,3.47.26,2.11-.41,2.66-1.84,3.66-1.6,1.12-1.64,6.64-1.16,7,.24.18,1.19.52,1.54.17,1.01-1,1.42-2.54,2.14-3.87,1.75-.2,2.81-1.41,2.84-2.95.25,1.14,1.54,2.48,2.48,1.84.62-.42,1.12-1.05,1.58-.76.39.25,1,.79.84,1.54l-.67,3.25c-.28,1.37-1.59,2.64-.82,3.8Z"/>
          <path class="cls-62" d="M35.26,164.21l10.39,8.66c-1.08,1.49-3.43.84-5.17.87-4.32.07-9.24.21-11.57-3.03.81.93-.65-5.09,2.16-4.01.61.23.89.72,1.25.66,1.06-.18,1.76-3.28,2.95-3.14Z"/>
          <path class="cls-17" d="M49.29,144.96c-.69-.13-.72-2.17-.11-2.27.91-.14,1,.88,1.01,1.22s-.14,1.18-.9,1.04Z"/>
        </g>
      </g>
      <g>
        <path class="cls-16" d="M113.84,25.45c-.22,2.61,7.86,5.83,10.76,5.29,1.69.89,3.69,1.04,5.62,1.32-.51.56-.73,1.31-.88,2.37,2.1,1.18,4.52.53,6.71,1.01.98.21,1.73.5,2.89-.37-.21-.86,0-1.78.16-2.62,1.77.04,3.91,1.08,5.49-.87,8-.64,16.42-1.8,21.63-8.48-1.7,5.36-2.23,3.04-2.34,6.63-1.9-.26-2.45,5.92-.21,5.64.53-1.4.07-2.59.33-3.75,1.36.48,6.94,8.24,6.08,9.71-.43.74.17.9.81,1.34-.56,11.05.21,19.86-.31,30.38-.1,2.03,1.07,6.8-1.15,9.56-1.35,1.68-4.13,4.85-5.89,6.35-1.3,1.11-2.72,1.63-3.79,2.44-12.44,4.86-26.36,5.36-39.04.81.25-1.04-.36-1.16-.95-.49-5.33-1.86-9.26-5.71-12.54-10.21-.22-1.04-.61-2.37-.62-3.77l-.09-32.24c-.02-5.43,3.39-11.17,6.79-14.08.22,1.11-.55,2.22-.07,3.27-4.72.55-5.02,9.99-4.83,13.55.08,1.45-.42,3.01.27,4.38-.51.73-.36,1.66-.34,2.74l.21,21.01c.08,7.82,5.51,11.68,12.4,13.91l-.05-29.3c0-.89.09-1.53.89-1.58,1.31.03,2.73-1.34,4.21-1,2.86.65,5.02,2.56,7.49,3.47l-.1,31.09c-1.71.54-2.84-.86-4.17.14,8.04,1.55,16.67,1.4,24.69-1.06,6.7-2.05,14.91-6.64,14.7-14.77-.2-7.65,1.23-15.43-.47-22.35-.11-.49.95-.97.29-1.46-.41-.3-.78-.75-1.2-.98.69-.47,1.26-1.28,1.53-1.83.31-.64-1.27-5.05-3.27-6.69-.98-.81-2.07-2.75-3.09-3.08-2.46-.78-3.2-2.25-4.83-4.04-.93-1.03-3-2.26-4.29-3.2-.87-.64-3.08.98-4.39-.38-.23-.24-1.3.1-1.66.28-.3.15.4,1.01.01,1.26-.73.82-5.2-.23-4.54,1.44-4.58.5-9.28.17-13.76-.45l-2.72-.38c.2,7.43,6.58,13.67,11.47,18.55,2.69,2.69,6.27,4.22,8.23,7.9-6.72-4.25-12.82-9.97-17.35-16.3-2.04-2.85-4.01-10.55-3.95-10.52-.4-.19-.96-.39-1.41-.26-2.6-1.92-5.87-3.07-8.72-4.63-.33-.18-.53-.98-1.08-.95-.07-2.01-3.84-4.33-2.76-6.54l3.22,2.76Z"/>
        <path class="cls-112" d="M159.72,91.41c.6-.19.05.7.03,1.29-11.45,5.48-25.19,5.97-37.46,1.94-5.68-1.87-15.44-7.46-15.09-13.11,3.28,4.5,7.21,8.35,12.54,10.21.58-.67,1.19-.55.95.49,12.68,4.54,26.6,4.05,39.04-.81Z"/>
        <path class="cls-9" d="M159.75,92.7c.03-.59.57-1.48-.03-1.29,1.07-.8,2.49-1.33,3.79-2.44,1.76-1.5,4.54-4.68,5.89-6.35.06.38.37.08.41.23.06.26-.17.67-.24.84-1.92,4.43-5.79,7.08-9.82,9.01Z"/>
        <path class="cls-96" d="M128.91,35.81c.63,2.3,1.62,4.78,3.14,6.88-.38.71-1,1.11-.73,1.51.42.61,1.44-.02,1.7.25l5.25,5.3c3.46,3.49,6.91,7.22,10.7,10.67,1.25,1.13,2.21,1.08,3.75.46.85-.34,2.09.64,2.87.09.37-.26.97-.08,1.39-.15.77-2.4.25,8.58.23,9.03-.13,3.15-.42,13.03,3.22,14.05,6.1,1.71,4.81-23.28,4.83-26.58l2.85-2.38c1.7,6.91.27,14.7.47,22.35.21,8.13-8,12.72-14.7,14.77-8.02,2.46-16.65,2.62-24.69,1.06,1.32-1,2.46.4,4.17-.14l.1-31.09c1.03.38,2.3-.9,3.28-.78,1.24.14,2.52,1.52,3.9.37-5.08-4.03-9.86-7.72-13.8-12.51.74-.55,1.85-.84,1.72-1.33-.8-2.95-5.4.96-6.28-10.5-.06-.84.28-1.78.9-2.33.45-.12,1.01.08,1.41.26-.07-.03,1.91,7.67,3.95,10.52,4.52,6.33,10.63,12.05,17.35,16.3-1.96-3.68-5.54-5.21-8.23-7.9-4.89-4.88-11.27-11.12-11.47-18.55l2.72.38Z"/>
        <path class="cls-121" d="M121.76,59.42c-.8.05-.89.68-.89,1.58l.05,29.3c-6.9-2.23-12.32-6.09-12.4-13.91l-.21-21.01c-.01-1.07-.17-2.01.34-2.74,1.13-.07,1.86,1.03,2.9,1.72,2.52,1.65,5.36,2.22,8.02,3.32.76.32,1.19,1.72,2.18,1.74Z"/>
        <path class="cls-54" d="M165.26,57.32c-.01,3.29,1.27,28.28-4.83,26.58-3.65-1.02-3.35-10.9-3.22-14.05.02-.45.54-11.42-.23-9.03.99-1.83,6.02-2.77,8.28-3.5Z"/>
        <g>
          <path class="cls-51" d="M129.3,29.15c-.06.47-.06,1.26-.78,1.45,1.67.31,2.75.7,3.9.59.37-.89.51-.42.99.37l9.92-.09c2.31-.02,4.41-1.48,6.51-1.91,3.94-.8,10.01-4.18,13.02-6.19,1.22-.81,4.14-.9,3.87-3.63.42,1.26-.07,1.95-.52,3.37-5.21,6.68-13.63,7.84-21.63,8.48-1.57,1.95-3.72.91-5.49.87-2.96-.06-5.95.03-8.88-.4-1.93-.28-3.93-.43-5.62-1.32,1.11-.21,2.27-.61,3.8-.12.03-1.31-.41-1.43-1.01-1.36-4.1.5-11.17-1.78-13.54-3.82l-3.22-2.76c-.23-.87-.51-1.5-.51-2.36l2.04,2.1c.7-1.02.54-2.08.76-3.04.91-.56.16,2.97,2.48,4.54,4.23,2.87,9.02,4.69,13.9,5.22ZM124.6,30.74c-2.9.54-10.98-2.68-10.76-5.29,2.37,2.03,9.44,4.31,13.54,3.82.6-.07,1.03.04,1.01,1.36-1.53-.49-2.69-.09-3.8.12Z"/>
          <path class="cls-2" d="M166.73,19.73c.27,2.74-2.65,2.82-3.87,3.63-.44-.67.99-1.45,1-2.1.04-3.62-2.75-6.21-5.48-8.07-2.01-1.37-3.61-1.5-5.48-2.04-9.37-2.72-18.82-2.55-28.34-.3-5.1,1.2-9.26,4.14-11.65,8.53-.22.96-.06,2.02-.76,3.04l-2.04-2.1c.03-4.18,5.54-7.93,9.82-9.13,9.06-2.56,14.83-3.02,24.88-2.35,3.88.26,5.34,1.09,8.95,1.85,5.11,1.08,11.26,3.82,12.97,9.04Z"/>
          <path class="cls-47" d="M163.99,31.63c-.26,1.15.2,2.35-.33,3.75-2.23.28-1.69-5.9.21-5.64-.02.58.25,1.31.12,1.9Z"/>
          <path class="cls-110" d="M114.47,30.18c.12,1.15.69,4.07-.4,4.69-.21.12-.69-.11-.85-.17-.48-1.05.29-2.16.07-3.27-.14-.7-.06-1.52.11-2.2.55-.03.75.77,1.08.95Z"/>
          <path class="cls-57" d="M122.28,37.14c.88,11.45,5.48,7.55,6.28,10.5.13.49-.98.78-1.72,1.33,3.95,4.79,8.72,8.48,13.8,12.51-1.39,1.15-2.67-.23-3.9-.37-.99-.11-2.25,1.16-3.28.78-2.47-.91-4.64-2.82-7.49-3.47-1.48-.34-2.91,1.03-4.21,1-.99-.02-1.42-1.43-2.18-1.74-2.66-1.1-5.5-1.67-8.02-3.32-1.04-.68-1.77-1.78-2.9-1.72-.69-1.37-.19-2.93-.27-4.38,1.38-1.18,2.2-2.95,3.45-4.53,2.02-2.56,5.4-3.81,8.11-5.67.46-.32.38-1.08.91-1.23.62-.18.89-.23,1.42.3Z"/>
          <path class="cls-20" d="M167.2,52.5c-.93.64-2.15.42-2.93.15,0-1.53.03-.28.58-2.58.18-.75-.99-.97-1.09-1.51l-.97-5.29-1.91-.35c-.79.86.32,1.75.18,2.56-.26,1.52.52,1.97,1.11,3.17.52,1.05-1.49,2.71-2.53,2.94-3.28-.67.25-1.84-1.57-5.1-.22-.39.05-1.14-.55-1.03-1.98.36.3,2.05-1.08,3.52-.31.34-.77.65-1.43.72-.19-.43-.23-1.2-1.31-1.42.68,1.51-.75,3.35-2.46,3.27-.47-.02-4.33-6.88-.44-4.43,0-.91-.25-1.79.41-2.66,1.22.69,1.47,1.57,2.04,2.89.44-.76,1.91-.37,2.15-1.27.28-1.04-.5-1.8-.47-2.55.04-.89.9-1.3,1.56-2.06.56-.65.07-1.43-.33-1.7-2.42-1.63-2.91,1.15-4.66-1.18l-2.34,1.23c-.92.48-1.78,2.18-3.01,2.55.71,2.53-1.03,1.71-2.96,3.99-.27.32-.66.74-1,.48-.27-.21-.84-.31-.51-.72.73-3.34,2.43-6.65.97-9.86-.66-1.67,3.81-.62,4.54-1.44.39-.25-.31-1.12-.01-1.26.36-.18,1.43-.52,1.66-.28,1.3,1.36,3.52-.26,4.39.38,1.29.95,3.36,2.17,4.29,3.2,1.63,1.79,2.37,3.25,4.83,4.04,1.02.33,2.11,2.27,3.09,3.08,2,1.64,3.59,6.05,3.27,6.69-.27.55-.84,1.35-1.53,1.83Z"/>
          <path class="cls-82" d="M142.67,36.26c1.45,3.22-.24,6.52-.97,9.86l-1.53,1.01c-.95.62-1.11,1.97-1.89,2.61l-5.25-5.3c-.27-.27-1.29.36-1.7-.25-.27-.39.36-.8.73-1.51-1.52-2.1-2.51-4.59-3.14-6.88,4.49.62,9.18.95,13.76.45Z"/>
          <path class="cls-15" d="M123.19,34.8c-.62.55-.97,1.49-.9,2.33-.54-.53-.8-.48-1.42-.3-.53.15-.45.91-.91,1.23-2.71,1.85-6.09,3.1-8.11,5.67-1.25,1.58-2.07,3.34-3.45,4.53-.19-3.57.1-13.01,4.83-13.55.16.06.65.29.85.17,1.09-.62.52-3.54.4-4.69,2.85,1.56,6.12,2.71,8.72,4.63Z"/>
          <path class="cls-91" d="M167.2,52.5c.42.23.79.68,1.2.98.66.48-.4.97-.29,1.46l-2.85,2.38c-2.26.72-7.29,1.67-8.28,3.5-.42.06-1.02-.12-1.39.15.63-1.66,2.42-2.43,3.74-3.76,1.46-1.47-3.04-.22,4.95-4.55.78.27,2,.49,2.93-.15Z"/>
          <path class="cls-34" d="M139.1,32.46c-.16.84-.38,1.77-.16,2.62-1.15.87-1.91.58-2.89.37-2.2-.48-4.61.17-6.71-1.01.15-1.06.37-1.81.88-2.37,2.93.43,5.92.33,8.88.4Z"/>
          <path class="cls-103" d="M162.86,23.37c-3.01,2.01-9.08,5.39-13.02,6.19,0-1-1.94.1-1.43-.65.12-.37.72.07.98-.19-.41-1.67-2.1-2.44-3.33-3.26-1.75-1.16-2.6-3.14-4.38-4.57-.3-.2-.39.43-.67.35-.71-2.65-4.53,1.06-5.53,2.01l-6.18,5.9c-4.88-.54-9.67-2.35-13.9-5.22-2.32-1.57-1.57-5.1-2.48-4.54,2.39-4.39,6.55-7.33,11.65-8.53,9.52-2.24,18.97-2.42,28.34.3,1.87.54,3.47.67,5.48,2.04,2.73,1.86,5.52,4.45,5.48,8.07,0,.65-1.45,1.43-1,2.1ZM151.34,12.56c-2.5-1.71-15.42-3.07-18.74-1.43,5.48.62,10.41-.02,15.49,1.02,1.07.22,1.97,1.17,3.25.41ZM126.88,12.53c1.25-.24,2.85.16,3.5-1.51-2.11.19-15.69,3.02-15.06,7.46,3.36-3.23,6.91-5.04,11.56-5.95ZM158.6,19.08c1.3.71,1.64,2.51,3.48,2.62-5.14-9.68-38.19-11.2-46.07-1.1,4.91-3.15,10.05-5.16,15.96-5.66,9.8-.83,18.54-.29,26.62,4.15ZM161.72,18.26c-.85-2.22-3.14-4.02-5.88-3.95,2.14,1.12,3.97,2.27,5.88,3.95Z"/>
          <path class="cls-90" d="M141.01,21.24c.1,1.31.78,2.44,1.22,3.97.31,1.1-1.29,3.72.3,4.02,2.13.41,4.17.29,5.89-.33-.51.75,1.43-.34,1.43.65-2.1.43-4.2,1.89-6.51,1.91l-9.92.09c-.48-.79-.62-1.25-.99-.37-1.15.11-2.23-.28-3.9-.59.72-.19.72-.98.78-1.45l6.18-5.9c1-.95,4.82-4.66,5.53-2.01Z"/>
          <path class="cls-79" d="M155.03,49.71c-.51.06-.66.24-.65.75.01.47.42.57.77,1.03.55.74-.16,1.74-1.13,2s-2.2,2.63-1.23,3.86c1.15,1.46,3.41-.97,3.9-2.2-.69,1.72,3.74-4.56,2.97-3.55,1.05-.23,3.05-1.89,2.53-2.94-.59-1.2-1.37-1.65-1.11-3.17.14-.81-.97-1.71-.18-2.56l1.91.35.97,5.29c.1.54,1.26.76,1.09,1.51-.55,2.31-.58,1.05-.58,2.58-7.98,4.33-3.49,3.07-4.95,4.55-1.32,1.33-3.11,2.1-3.74,3.76-.78.56-2.02-.43-2.87-.09-1.54.62-2.5.68-3.75-.46-3.79-3.45-7.24-7.18-10.7-10.67.79-.65.95-1.99,1.89-2.61l1.53-1.01c-.34.41.24.51.51.72.33.26.72-.16,1-.48,1.94-2.27,3.68-1.46,2.96-3.99,1.23-.37,2.09-2.07,3.01-2.55l2.34-1.23c1.75,2.33,2.24-.45,4.66,1.18.4.27.88,1.05.33,1.7-.66.77-1.52,1.17-1.56,2.06-.03.74.74,1.51.47,2.55-.24.9-1.71.51-2.15,1.27-.56-1.32-.82-2.2-2.04-2.89-.66.87-.42,1.76-.41,2.66-3.88-2.45-.03,4.41.44,4.43,1.7.08,3.14-1.76,2.46-3.27,1.08.22,1.12,1,1.31,1.42Z"/>
          <path class="cls-23" d="M159.66,51.59c.77-1.01-3.66,5.27-2.97,3.55-.49,1.22-2.75,3.66-3.9,2.2-.97-1.23.22-3.59,1.23-3.86s1.68-1.26,1.13-2c-.34-.46-.76-.55-.77-1.03-.01-.5.15-.69.65-.75.66-.07,1.12-.39,1.43-.72,1.38-1.48-.9-3.16,1.08-3.52.6-.11.33.63.55,1.03,1.82,3.26-1.71,4.43,1.57,5.1Z"/>
          <path class="cls-98" d="M158.6,19.08c-8.08-4.43-16.82-4.98-26.62-4.15-5.91.5-11.05,2.51-15.96,5.66,7.87-10.1,40.92-8.58,46.07,1.1-1.85-.11-2.18-1.9-3.48-2.62Z"/>
          <path class="cls-77" d="M148.41,28.9c-1.72.62-3.76.74-5.89.33-1.59-.31.02-2.92-.3-4.02-.44-1.53-1.12-2.67-1.22-3.97.28.08.38-.56.67-.35,1.79,1.43,2.64,3.4,4.38,4.57,1.22.82,2.92,1.59,3.33,3.26-.26.27-.86-.18-.98.19Z"/>
          <path class="cls-73" d="M151.34,12.56c-1.28.76-2.18-.19-3.25-.41-5.08-1.04-10.01-.4-15.49-1.02,3.32-1.65,16.24-.28,18.74,1.43Z"/>
          <path class="cls-98" d="M126.88,12.53c-4.65.91-8.2,2.71-11.56,5.95-.62-4.44,12.95-7.27,15.06-7.46-.65,1.66-2.26,1.26-3.5,1.51Z"/>
          <path class="cls-101" d="M161.72,18.26c-1.91-1.68-3.74-2.83-5.88-3.95,2.74-.08,5.03,1.73,5.88,3.95Z"/>
        </g>
      </g>
      <g>
        <g>
          <g>
            <path class="cls-6" d="M281.76,32.96c-.89-.63-.9-1.87-2.16-3.01-2.62,4.85-5.84,8.84-9.07,13.25l-16.05,21.96c-.24.32-.89.05-1.08.02s-.39.22-.26.5c-2.32-1.44-5.27-1.9-7.96-2.69-1.54-1.93-3.99-.76-6.01-.8-2.89-.06-5.62.2-8.41-.11-1.58-.17-2.48-.08-3.8.73-1.11.69-2.51.49-3.69.99.23-.35.01-.49-.57-.42-.89.09-2.6-.31-3.34-.94-1.2-1.03-2.29-2.34-4.11-3.09-2.42-.99-2.09-2.2-5.94-3.99-1.86-.86-3.46-2.21-5.42-2.54-.95-.16-1.7-1.47-2.81-.92-.79.39-1.09-.67-1.77-.75,0-1.17.53-2.3,1.35-3.36l11.75-15.31,9.63-12.6,2.22-2.37c-1.11,1.18,11.15-14.59,10.7-13.67.58-1.19,2.51-2.87,3.6-3.75s8.15,4.49,9.14,5.15l3.57,2.38,5.93,3.48,15.78,9.79,10.58,6.9c.69.45.66,1.14.43,2-.31,1.12-2.65,1.67-2.21,3.16Z"/>
            <path class="cls-32" d="M281.76,32.96c-1.1,2.14,4.23,3.64,4.03,5.43-.16,1.44-1.87,2.18-2.33,3.48.37.61.93,1.13,1.45,1.49-.17.34-.17.46-.16.75.01.65-1.51.18-1.84.39-3.15,2.05-5.58,5.56-8.07,8.36l-15.07,16.93-6.64-4.11c-.13-.28.07-.53.26-.5s.84.31,1.08-.02l16.05-21.96c3.23-4.42,6.45-8.4,9.07-13.25,1.26,1.14,1.27,2.37,2.16,3.01Z"/>
            <path class="cls-117" d="M262.59,72.56l-2.81-2.77,15.07-16.93c2.49-2.8,4.92-6.3,8.07-8.36.33-.21,1.85.26,1.84-.39,0-.29,0-.41.16-.75.68.48,1.66.95,1.88,1.61.31.95-.41,1.72-1.02,2.38l-23.18,25.2Z"/>
            <path class="cls-107" d="M219.35,62.44c-.54-.23-.39.49-.55.76-.71.35-.4.82-.78,1.71-.47-.87-.72-1.5-1.6-1.93-.67-1.02-.82-.25-.07.58.18.42.63.65.8.92.3.46-.27.75-.45,1.13l-7.15-5.45c-2.22-1.69-13.41-8.12-10.26-9.01.67.08.97,1.14,1.77.75,1.12-.55,1.86.76,2.81.92,1.96.33,3.57,1.68,5.42,2.54,3.85,1.79,3.52,3,5.94,3.99,1.83.74,2.91,2.06,4.11,3.09Z"/>
            <path class="cls-49" d="M219.35,62.44c.74.63,2.45,1.03,3.34.94.59-.08.8.07.57.42l-6.58,2.73.03-.92c.19-.38.75-.67.45-1.13-.17-.27-.62-.49-.8-.92-.75-.83-.6-1.6.07-.58.88.43,1.13,1.06,1.6,1.93.37-.89.06-1.36.78-1.71.16-.28.01-.99.55-.76Z"/>
          </g>
          <g>
            <path class="cls-104" d="M253.14,65.68l6.64,4.11,2.81,2.77c.35.35.51.72.7.9-.36-.5-.53.25-.55.45-.06.59.87,1.33,1.65,2.26.41.49-.81.89-.22,1.11,1.46-.53.43.77,1.02.98,1.69.57,1.59,2.57,2.3,3.89-.86.46-1.7-.01-1.78.85-2.89-.6-1.67,4.02-5.01,5.65-.85.41-1.17,1.2-1.64,1.75-.89-3.17-7.98,3.71-10.07,3.04-2.62-.84-3.73.59-5.6,1.74-2.55,1.58-6.06.98-8.65,1.63-1.5.38-3.47,1.01-4.81.19-.24.28-.52.65-.6.79-.14.22-.54-.37-.95-.22-.38.14-.98.4-1.18.58-3.88,3.57-6.58,1.42-8.39,1.96-2.61.77-5.03,1.6-7.61,1.76-.41.03-.51,1.44-1.16.72-.6-.65-1.34-.5-1.92-1.46-1.07-1.76-2.76-3.53-3.67-5.4-.75-.28-1.94-.07-2.62-.83-.5-.56-.36-1.45-.88-2.17.53-1.41.21-4.5-.84-4.19-.17.05-.33.21-.26.48-.26.04-.71,0-.53-.4,2.49-2.94,4.37-5.81,5.84-9.38,2.28-5.52,6.74-9.68,11.5-12.71l6.58-2.73c1.18-.5,2.58-.3,3.69-.99,1.32-.82,2.22-.91,3.8-.73,2.79.31,5.53.04,8.41.11,2.03.04,4.48-1.13,6.01.8,2.68.79,5.64,1.25,7.96,2.69ZM221.01,79.17c.36-.28.73-.66,1.09-.79.59-.22.83,1.08,1.45.91,1.42-.4,2.62-.39,3.85-.04,0,.39.46.64.77.77.74.3.91-.64,1.48-.91.84-.4,1.64-.53,2.09-.95,1.34-1.22-.18-6.45-.47-6.67.7.53-3.91-.55-3.74-.52-.02-.49.19-1.48-.28-1.96-.28-.28-.96-.61-1.41-.28-.35.25-.61.75-.81.69l-1.3-.36c-.5-.14-5.58,2.06-5.48,1.98l-4.8,3.85c-.48.38-1.53-.11-1.77.39s.07,1.24-.23,1.79c-.73,1.32-1.82,2.63-1.81,3.97,3.43,4.38.57,2.91,2.15,4.36.62.57,1.4.15,2.04.39,1.19.45,2.93,1.51,4.03.31l2.7-2.93c.27-.29.46-.53.26-.93-.1-.2-.34-.14-.9-.44.96-.57,1.41-1.64,1.09-2.63ZM261.97,80.5c.66-.59.74-1.03.3-1.31-.37.41-.62.56-.71.71-.13.26.08.88.4.6ZM258.82,84.41c0-.25-.21-.46-.46-.46s-.46.21-.46.46.21.46.46.46.46-.21.46-.46ZM207.1,86.53c-.23-.92-1.67-1.34-2.66-1.03-.6.19-1.28.78-1.44,1.71,1.41.87,2.75.15,4.1-.68ZM253.66,88.29c-.93-.35-1.75-.38-2.41.05.93.35,1.75.38,2.41-.05ZM204.57,88.96c-.7-.35-1.19-.5-1.56-.23-.16.12-.44.19-.26.75.26.83.9,1.1,1.55.88.51-.17,1.15-.97.27-1.4ZM234.49,92.96c-.93-.35-1.75-.38-2.41.05.93.35,1.75.38,2.41-.05ZM230.25,94.89c-1.11-.41-1.65-.46-1.91.09.84.18,1.42.28,1.91-.09ZM226.04,96.96l1.42-.7c-.45-.42-.81-.25-1.17-.23-.32.02-.3.56-.25.92-.56-.11-.37-.41-.6-1-.54.78-1.26.44-2.26.62.62.26,3.01,1.31,2.86.39Z"/>
            <path class="cls-102" d="M263.29,73.45c2.44,2.3,3.92,5.03,4.99,7.97,1.54,4.25,9,6.51,4.63,12.28-1.04,1.38-3,2.38-3.57,4.04-4.99,14.66-16.62,20.82-31.33,21.87-12.88.92-27.88-4.27-33.28-17.64-2.06-5.1-5.52-5-5.3-7.77.83.04,1.28-.78,1.54-1.49.53.72.38,1.61.88,2.17.68.75,1.88.55,2.62.83.9,1.87,2.6,3.64,3.67,5.4.58.96,1.32.8,1.92,1.46.65.72.76-.69,1.16-.72,2.58-.17,5-1,7.61-1.76,1.81-.53,4.51,1.61,8.39-1.96.2-.18.8-.44,1.18-.58.41-.15.81.44.95.22.09-.13.36-.51.6-.79,1.34.82,3.32.19,4.81-.19,2.59-.66,6.09-.05,8.65-1.63,1.87-1.16,2.98-2.58,5.6-1.74,2.09.67,9.18-6.22,10.07-3.04-.71.83-2.14.22-3,.99-2.03,1.81-4.32,2.49-6.67,3.26-.84.27-5.99,2.57-6.48,2.59l-8.28.38c-.9.04-2.1.63-2.98.58-3.7-.21-3.93,1.72-8.46,2.79-2.52.59-3.86,2.69-5.34,4.23l-4.2.41c2.22-.21-4.38-1.15-4.69,1.44-.11.89.39,1.36,1.04,1.86l5.17,4c-1.15-2.86,3.67.18,3.91.36,1.4,1.08,12.82,2.86,15.17,3.16,3.25.41,6.26-.14,9.61-.84,1.39-.29,2.78-.24,4.2-.81,3.73-1.5,7.37-2.96,10.22-6.14,1.63-1.82,7.87-6.66,4.48-8.6.03-.64.19-2.39.67-3.07,3.82-3.56,5.32-4.62,4.01-8.91-.47-1.54-.11-4.7-.94-4.89l-.78-.17c.08-.86.91-.39,1.78-.85-.72-1.32-.62-3.32-2.3-3.89-.59-.2.44-1.51-1.02-.98-.59-.22.63-.62.22-1.11-.78-.93-1.71-1.67-1.65-2.26.02-.2.19-.96.55-.45Z"/>
            <path class="cls-69" d="M199.87,89.02c1.23,3.61-.94,3.11-.44,5.19-.54-.99-2.01-1.41-1.68-2.88.29-1.3.85-1.83,1.6-2.71-.18.4.27.43.53.4Z"/>
            <path class="cls-76" d="M265.72,82.99l.78.17c.84.19.47,3.35.94,4.89,1.31,4.29-.19,5.35-4.01,8.91-.49.68-.64,2.43-.67,3.07,3.38,1.94-2.85,6.78-4.48,8.6-2.85,3.18-6.48,4.64-10.22,6.14-1.42.57-2.81.52-4.2.81-3.35.7-6.36,1.25-9.61.84-2.35-.3-13.77-2.08-15.17-3.16-.24-.18-5.06-3.22-3.91-.36l-5.17-4c-.65-.5-1.14-.98-1.04-1.86.31-2.59,6.91-1.65,4.69-1.44l4.2-.41c1.48-1.54,2.82-3.64,5.34-4.23,4.52-1.06,4.76-2.99,8.46-2.79.88.05,2.08-.54,2.98-.58l8.28-.38c.49-.02,5.64-2.32,6.48-2.59,2.35-.77,4.65-1.45,6.67-3.26.86-.77,2.29-.16,3-.99.46-.54.79-1.33,1.64-1.75,3.34-1.62,2.12-6.24,5.01-5.65Z"/>
            <path class="cls-89" d="M227.53,70.96c-1.51-.21-2.91.53-4.46.89-.78.18-2.18-.8-2.85.87-.46-.77-1.08-.84-1.9-.82-.62.02-1.62.66-1.49,1.54.08.52.86.71.34,1.24-.29.29-1.02-.13-1.16.18-.55,1.22-1.14,1.82-1.02,2.45.23,1.2,1.06,1.53,1.81,2.49,1.02,1.31,3.21.67,4.21-.62.32.99-.13,2.06-1.09,2.63.56.3.79.24.9.44.2.4.01.64-.26.93l-2.7,2.93c-1.1,1.2-2.85.14-4.03-.31-.63-.24-1.42.18-2.04-.39-1.58-1.45,1.28.02-2.15-4.36-.01-1.33,1.08-2.65,1.81-3.97.3-.55,0-1.27.23-1.79s1.29-.01,1.77-.39l4.8-3.85c-.1.08,4.98-2.12,5.48-1.98l1.3.36c.21.06.47-.44.81-.69.45-.33,1.13,0,1.41.28.47.47.27,1.46.28,1.96Z"/>
            <path class="cls-72" d="M227.53,70.96c.04,1.21.95,3.74-.16,4.87l-.95.47c-.26.13-.54.9.15,1.09.48.14.95.38,1.06.65.18.43-.14.86-.23,1.2-1.23-.35-2.44-.36-3.85.04-.62.18-.85-1.13-1.45-.91-.36.13-.72.51-1.09.79-1,1.29-3.19,1.93-4.21.62-.75-.96-1.58-1.3-1.81-2.49-.12-.63.48-1.23,1.02-2.45.14-.31.87.12,1.16-.18.52-.53-.26-.72-.34-1.24-.14-.88.86-1.52,1.49-1.54.82-.02,1.44.05,1.9.82.66-1.67,2.07-.68,2.85-.87,1.55-.36,2.95-1.11,4.46-.89Z"/>
            <path class="cls-24" d="M227.4,79.25c.09-.34.41-.77.23-1.2-.11-.27-.58-.51-1.06-.65-.68-.19-.41-.96-.15-1.09l.95-.47c1.11-1.14.2-3.67.16-4.87-.17-.02,4.45,1.06,3.74.52.29.22,1.81,5.45.47,6.67-.45.42-1.25.54-2.09.95-.57.27-.74,1.21-1.48.91-.31-.13-.77-.38-.77-.77Z"/>
            <path class="cls-7" d="M207.1,86.53c-1.35.83-2.69,1.55-4.1.68.16-.93.84-1.53,1.44-1.71.99-.31,2.43.12,2.66,1.03Z"/>
            <path class="cls-26" d="M200.97,92.72c-.27.71-.71,1.53-1.54,1.49-.5-2.08,1.67-1.58.44-5.19-.06-.27.1-.43.26-.48,1.05-.31,1.37,2.77.84,4.19Z"/>
            <path class="cls-93" d="M204.57,88.96c.87.44.24,1.23-.27,1.4-.65.22-1.29-.05-1.55-.88-.18-.57.1-.64.26-.75.36-.27.86-.12,1.56.23Z"/>
            <path class="cls-46" d="M226.04,96.96c.14.92-2.24-.13-2.86-.39,1.01-.18,1.72.17,2.26-.62.23.59.04.89.6,1Z"/>
            <path class="cls-46" d="M253.66,88.29c-.66.44-1.48.41-2.41.05.66-.44,1.48-.41,2.41-.05Z"/>
            <path class="cls-46" d="M234.49,92.96c-.66.44-1.48.41-2.41.05.66-.44,1.48-.41,2.41-.05Z"/>
            <path class="cls-46" d="M261.97,80.5c-.32.28-.54-.34-.4-.6.08-.16.33-.3.71-.71.44.27.35.72-.3,1.31Z"/>
            <path class="cls-46" d="M230.25,94.89c-.49.37-1.07.27-1.91.09.26-.55.79-.5,1.91-.09Z"/>
            <path class="cls-46" d="M226.04,96.96c-.06-.36-.07-.9.25-.92.36-.02.72-.2,1.17.23l-1.42.7Z"/>
            <circle class="cls-46" cx="258.36" cy="84.41" r=".46"/>
          </g>
        </g>
        <g>
          <g>
            <path class="cls-13" d="M234.04,187.7c.24.56.95.61,1.43.81.11.32.27.65.48.91l-.27,21.36c0,.27,1.02.41.65.68-1.36-.02.03,5.78-1.55,9.83s-4.68,6.56-8.27,8.49c-10.99,5.89-21.92,6.93-33.67,6.6-1.19-.03-2.81.3-3.5-1.46,8.76-.19,17.25-.16,25.6-2.28.46-.12.96-.07,1.06-.46.11-.44.46-.93-.02-.82-10.56,2.33-21.51,3.29-31.6.8.04-.27.06-.89-.42-1.02l-4.54-1.2.73-34.89c3.25-1.12,6.23,1.54,8.96,2.6.99,5.74,1.51,11.48,1.46,17.57l-.14,14.92c7.73.41,11.07-5.87,13.1-6.9,2.35-1.19,3.13-3.02,4.45-5.19,5.3-8.74,5.66-11.21,7.27-21.35,2.84-.63,5.46-1.95,8.53-3.14l-7.16-.31c-1.54-1.72,14.2-6.99,15.46-8.85.5.87,1.64,1.32,1.34,2.85-.06.3.33.71.62.46ZM220.87,229.25c2.81-.4,4.86-1.72,7.12-3.16,5.73-3.65,7.46-10.1,5.33-15.5-1.36-3.47.57-13.13-2.8-12.68-.64.08-1.34.93-1.56,1.9l-2.56,11.27c-.58,2.56-2.52,4.75-2.47,7.63-1.8,3.52-4.38,6.61-7.63,9.21-.74.59-1.34,1.32-1.51,2.35,2.05.3,3.97-.71,6.08-1.01Z"/>
            <path class="cls-14" d="M169.6,164.22c1.31.64,2.55,1.51,4.01,2.5-.59.71-1.33,0-2,.43.44,2.25,2.35,3.43,3.53,5.15.22,1.9-3.09-.8-4.19.67-1.22,1.63,2.46,3.22,3.21,4.29-1.16,1-2.37,2.19-3.86,2.61-3.2.92-9.52,3.77-9.82,7.44l-.4,5.02c-.04.54-.42.77-.82.52l-.08-15.02c-.02-3.62,1.15-7.08,3.23-9.9.63-.85.6-1.6.9-2.35.58-1.5,1.42-2.92,1.47-4.55,4.12.19,2.78,2.17,4.84,3.18Z"/>
            <path class="cls-42" d="M229.23,164.36c-1.48,1.61,3.37,4.6,4.36,10.67.71,4.35.42,8.55.45,12.67-.28.25-.67-.16-.62-.46.3-1.53-.84-1.97-1.34-2.85-2.08-3.62-6.57-5.9-10.68-6.51,2.38.35-7.31-2.16-5.11-2.4,1.46.03,5.51-5.25,6.51-7.44.31-.69,1.46-1.48.98-2.63.38-.16.73-.43.88-.8,1.63-.37,2.87-1.75,4.18-2.73-.17.71-.23,1.86.39,2.47Z"/>
            <path class="cls-80" d="M163.29,165.59c-.29.75-.27,1.5-.9,2.35-2.08,2.82-3.25,6.28-3.23,9.9l.08,15.02c0,.63.24,10.84-1.47,5.5l-.26-21.35c-.04-3.16,2.86-11.49,5.78-11.42Z"/>
            <path class="cls-113" d="M235.47,188.51c-.48-.2-1.19-.26-1.43-.81-.02-4.12.26-8.32-.45-12.67-.99-6.06-5.84-9.06-4.36-10.67,7.62,6.19,6.62,15.23,6.24,24.15Z"/>
            <path class="cls-63" d="M179.76,174.5c1.67.5,3.48,1.11,4.98,2.14-1.2,1.19-2.4.7-3.43.77-2.11.14,1.12,4.33,3.03,5.98,3.01,2.6,6.67,3.51,10.36,4.81,2.66.94,5.01,1.89,7.48,2.6,4.75,1.37,9.5,2.23,14.45,2.44l7.16.31c-3.07,1.2-5.69,2.52-8.53,3.14-2.6.57-5.54-.48-8.37-.37-6.64.26-9.7,2.63-17.77,1.33-2.73-1.07-5.71-3.73-8.96-2.6-2.67-1.9-10.56-2.33-14.67-2.97v30.16c-.02,1.23-.97,2.03-.86,3.03-1.32-1.19-3.21-1.96-4.25-3.79-.15-.26-.7-.32-.93-.27-.2.04-.51.12-.45.48-1.46-2.7-1.54-5.37-1.48-8.85l.24-14.47c1.71,5.34,1.47-4.87,1.47-5.5.4.24.78.02.82-.52l.4-5.02c.3-3.67,6.62-6.52,9.82-7.44,1.49-.43,2.69-1.62,3.86-2.61-.75-1.07-4.43-2.66-3.21-4.29,1.11-1.48,4.42,1.23,4.19-.67,1.11,1.61,3.1,1.74,4.62,2.21Z"/>
            <path class="cls-114" d="M164.64,225.27c3.47,3.12,8.17,4.16,12.8,5.86,2.49.91,5.01.55,6.95,1.03,10.09,2.5,21.04,1.54,31.6-.8.48-.11.14.37.02.82-.1.38-.6.34-1.06.46-8.34,2.12-16.84,2.09-25.6,2.28.69,1.76,2.31,1.42,3.5,1.46l-1.97.73c-4.48-.88-9.12-1.51-13.73-3.3-7.53-2.93-14.34-5.03-18.15-12.11-.07-.36.24-.43.45-.48.23-.05.78,0,.93.27,1.04,1.83,2.93,2.6,4.25,3.79Z"/>
            <path class="cls-30" d="M215.27,196.69c-1.61,10.15-1.97,12.61-7.27,21.35-1.32,2.17-2.1,3.99-4.45,5.19-2.03,1.03-5.37,7.31-13.1,6.9l.14-14.92c.06-6.09-.47-11.83-1.46-17.57,8.07,1.3,11.13-1.06,17.77-1.33,2.84-.11,5.77.94,8.37.37Z"/>
            <path class="cls-11" d="M180.17,195.05l-.73,34.89,4.54,1.2c.47.12.46.75.42,1.02-1.94-.48-4.45-.11-6.95-1.03-4.63-1.7-9.33-2.74-12.8-5.86-.11-1,.84-1.8.84-3.03v-30.16c4.12.64,12.01,1.07,14.69,2.97Z"/>
            <path class="cls-35" d="M232.09,184.39c-1.25,1.86-17,7.13-15.46,8.85-4.94-.21-9.7-1.07-14.45-2.44.88-.17.05-1.3.35-1.74,1.33-1.99,3.73-2.75,5.72-3.77l12.31-6.28c.46-.24,1.04-.69.84-1.12,4.11.6,8.6,2.88,10.68,6.51Z"/>
            <path class="cls-75" d="M220.87,229.25c-2.11.3-4.03,1.31-6.08,1.01.17-1.02.77-1.75,1.51-2.35,3.24-2.6,5.82-5.69,7.63-9.21-.05-2.88,1.89-5.07,2.47-7.63l2.56-11.27c.22-.97.93-1.81,1.56-1.9,3.37-.45,1.44,9.21,2.8,12.68,2.12,5.4.39,11.84-5.33,15.5-2.26,1.44-4.31,2.75-7.12,3.16Z"/>
            <path class="cls-8" d="M221.41,177.89c.2.43-.38.89-.84,1.12l-12.31,6.28c-2,1.02-4.39,1.78-5.72,3.77-.3.44.53,1.57-.35,1.74-2.47-.71-4.82-1.66-7.48-2.6-3.69-1.31-7.35-2.21-10.36-4.81-1.91-1.65-5.14-5.84-3.03-5.98.08,2.46,9.95,3.72,11.84,4.21,2.96.76,6.66.59,9.81.11,4.97-.75,8.02-3.05,12.63-5.43.34-.49.18-.83.71-.81-2.2.24,7.49,2.75,5.11,2.4Z"/>
          </g>
          <g>
            <path class="cls-120" d="M225.61,145.55c-.08.15-.1.33-.06.49-.18,2.14-2.54-2.83-4.06-4.29-3.67-3.52-7.87-5.99-12.66-7.64-10.72-3.71-28-4.73-36.06,4.92-4.68,5.6-.08,12.52,4.33,16.21,5.26,4.41,16.7,8.67,23.66,8.98,1.19.74,3.79,1.13,3.79,1.9l-12.61.09c-2.19.02-4.21-.75-6.09-.93.08-.26-.09-.6-.26-.52-.25.11-.81-.19-1.01-.22-6.04-1.04-6.12-1.93-11.81-3.55-1.48-2.03-4.42-1.25-4.38-6.31,0-.31-1.04.43-1.08.22-.07-.36-.28-.84.07-1.06.41-.26.62-.41,1.11.12-.75-1.98-.11-3.76.02-5.61.01-.18-.16-.5-.37-.48.82-.51,1.12-2.26.48-2.78,1.23-2.98,1.95-6.78,5.35-9.27,5.83-4.26,13.41-5.75,20.63-5.43,11.25.5,25.29,4.91,31.03,15.16Z"/>
            <path class="cls-56" d="M172.76,160.99l-2.55.49c2.39,1.53,4.9,1.42,7.18,2.33,2.91,1.17,5.66,1.21,8.46,1.47,1.87.18,3.89.95,6.09.93l12.61-.09c0-.77-2.6-1.16-3.79-1.9,4.78.21,9.64-.25,14.11-2.28.02.46-.39.73-.17,1.11-.73.17-1.72.41-2.29,1.61,6.34-.31,12.23-2.78,17.31-6.36l-.86,3.59c-1.31.99-2.55,2.37-4.18,2.73.22-.28-.03-.51-.23-.78-.25-.34-.6-.17-1.19.08-4.98,2.12-10.02,3.39-15.44,3.89-8.26.75-16.45.79-24.3-.75-4.26-.84-8.43-1.86-12.56-3.86-.27-.13-.85.26-1.15.23s.07.5-.2.79c-2.06-1.01-.72-2.98-4.84-3.18-.86-1.34-3-4.59-2.38-6.13,4.03,5.39,4.39,2.97,3.3,2.78-.34-.06.37-.97-.09-.7-.26-4.76-.6-5.15,2.9-8.63-.13,1.85-.77,3.63-.02,5.61-.48-.52-.69-.38-1.11-.12-.35.22-.14.7-.07,1.06.04.21,1.09-.52,1.08-.22-.05,5.05,2.9,4.28,4.38,6.31Z"/>
            <path class="cls-78" d="M231.19,154.46c.24,0,.53-.02.76.08-.02,1.05-.73,1.56-1.17,2.26-.78.11-.92.87-1.07,1.5-5.08,3.58-10.97,6.04-17.31,6.36.58-1.2,1.57-1.44,2.29-1.61,6.63-1.55,5.71-2.46,10.38-4.42.82-.34,2.67-.79,3.42-1.32,2.59-2.56.33-6.86-1.91-9.29.52-1.1,4.58,3.53,4.04,6.21-.07.35-.75.86-.14,1.13-.02,0,1.03-.79.71-.9ZM231.19,154.46c.32.11-.73.89-.71.9-.61-.27.07-.78.14-1.13.54-2.68-3.52-7.31-4.04-6.21-.49-.54-.71-.97-.46-1.94,1.79,0,7.45,6.32,5.07,8.38Z"/>
            <path class="cls-70" d="M168.12,147.88c-2.18,1.35-3.34,3.65-3.93,6.44-1.31-.5-1.48-1.29-1.91-1.83.82-3.33,3.42-5.58,6.32-7.4.64.52.34,2.28-.48,2.78Z"/>
            <path class="cls-115" d="M168.49,148.35c-3.5,3.48-3.16,3.87-2.9,8.63.46-.28-.25.63.09.7,1.09.19.72,2.62-3.3-2.78-.16-.97-.33-1.45-.09-2.41.43.54.6,1.32,1.91,1.83.58-2.8,1.74-5.09,3.93-6.44.21-.02.38.29.37.48Z"/>
            <path class="cls-56" d="M229.71,158.3c.15-.63.29-1.39,1.07-1.5-.36.59-.53,1.12-1.07,1.5Z"/>
            <path class="cls-49" d="M226.12,146.08c-.19-.04-.38-.05-.57-.04-.04-.17-.02-.34.06-.49.32,0,.7.17.51.53Z"/>
            <path class="cls-118" d="M225.55,146.05c.19-.01.38,0,.57.04-.25.96-.03,1.4.46,1.94,2.24,2.43,4.5,6.73,1.91,9.29-.75.52-2.6.97-3.42,1.32-.56-.74.87-.86.87-1.31-.01-2.82,2.35-4.11.18-6.06-.89,1.67-1.24,3.5-2.2,4.91-2.21,3.28-5.87,4.32-9.06,5.78-4.47,2.04-9.33,2.49-14.11,2.28-6.97-.31-18.4-4.56-23.66-8.98-4.4-3.7-9.01-10.62-4.33-16.21,8.06-9.64,25.34-8.62,36.06-4.92,4.79,1.66,8.99,4.12,12.66,7.64,1.52,1.46,3.88,6.43,4.06,4.29ZM211.06,136.89c-2.39-.18-5.8,5.09-5.86,2.97,1.55-1.09,3.25-1.72,3.76-3.78-3.09-2.09-6.79-3.01-10.5-2.65-.49.05-1.19.75-1.54.41-.23-.22-.49-.3-.87-.79-1.38-.86-13.23-.33-9.58,2.64l10.83,8.83c8.37.61.08,2.19,10.03-.26,3.4-.84,6.71-1.23,10.04-2.29,1.51-1.64-5.09-4.99-6.31-5.08ZM204.54,149.8c-1.18-.14-2.22-1.72-3.84-1.24-1.14.34.31,2.14-.08,3.09-.88-1.08-.85-3.06-2.56-3.32-.39-.06-.98.74-1.15.36l-.45-1.03c-.27-.61-.78-.79-.8-1.36-.02-.49.54-.66,1.09-1.31l-3.9-3.2c-2.61-2.14-5.33-4.1-8.29-6.21-2.02-1.44-5.35.37-6.8,2.11-2.71,3.25,7.2,3.36,8.19,5.03l-9.49-2.13c-1.88-.42-2.83,2.4-2.83,3.84s.54,3.95,2.42,4.29c2.94.54,5.71-.74,8.57-.48-1.87,1.9-6.04.08-8.14,2.51-1.49,1.72,8.3,7.18,9.85,7.19,2.44.38,6.64-6.2,7.22-5.08-1.61,2.16-3.63,3.34-4.29,6,2.52,2.15,12.16,4.78,13.8,1.86.62-1.11-1.36-3.16-.64-4.89,1.85.95.8,6.03,5.44,5.76,2.93-.17,6.62-.25,8.45-2.91.58-1-1.4-2.4-1.93-3.11l3.75,1.23c2.2.72,4.83-2.63,4.87-5.07.03-2.08-1.87-2.51-3.45-2.47-3.22.08-6.01-.74-9.2-1.25,1.56-.44,2.95-.13,4.5.04l4.19.47c1.12.12,2.04.83,2.84-.35.58-.85.29-1.67-.24-2.67-1.22-2.3-3.07-3.15-5.58-2.55l-13.04,3.15c1.04,1.42,2.82.44,4.41,1.16-1.51,1.08-3.33-.48-5.11.17-.04,1.5,1.66,1.52,2.24,2.38Z"/>
            <path class="cls-106" d="M172.76,160.99c5.69,1.63,5.77,2.51,11.81,3.55.2.03.76.33,1.01.22.17-.07.35.26.26.52-2.8-.27-5.55-.31-8.46-1.47-2.27-.91-4.79-.8-7.18-2.33l2.55-.49Z"/>
            <path class="cls-41" d="M183.5,167.06c-.23.73-1.27.67-1.42,1.48-2.69.71-4.97-1.52-8.07-1.25,2.99,1.59,6.27,2.62,9.5,3.17-2.02,2.41-1.01,1.54-3.76,4.04-1.52-.46-3.51-.59-4.62-2.21-1.18-1.72-3.09-2.9-3.53-5.15.67-.44,1.41.28,2-.43-1.46-.99-2.7-1.86-4.01-2.5.26-.29-.09-.82.2-.79s.88-.36,1.15-.23c4.13,2,8.3,3.02,12.56,3.86Z"/>
            <path class="cls-40" d="M224.67,164.62c-.15.36-.5.64-.88.8-20.53,8.8-43.09,3.49-41.71,3.12.15-.81,1.19-.75,1.42-1.48,7.84,1.55,16.03,1.51,24.3.75,5.42-.5,10.46-1.77,15.44-3.89.6-.25.94-.42,1.19-.08.2.27.45.5.23.78Z"/>
            <path class="cls-83" d="M225.08,158.62c-4.67,1.97-3.75,2.88-10.38,4.42-.23-.38.19-.65.17-1.11,3.2-1.46,6.85-2.49,9.06-5.78.95-1.42,1.3-3.24,2.2-4.91,2.17,1.95-.19,3.24-.18,6.06,0,.45-1.43.57-.87,1.31Z"/>
            <path class="cls-18" d="M222.81,168.05c-1,2.19-5.05,7.47-6.51,7.44-.53-.01-.37.33-.71.81-4.61,2.38-7.66,4.67-12.63,5.43-3.15.48-6.85.65-9.81-.11-1.89-.49-11.76-1.74-11.84-4.21,1.03-.07,2.23.42,3.43-.77-1.51-1.03-3.32-1.63-4.98-2.14,2.75-2.5,1.73-1.63,3.76-4.04,11.21,1.92,27.1,1.76,37.97-2.87.26-.11.81-.22,1.04-.08.17.1.12.28.28.54Z"/>
            <path class="cls-33" d="M222.81,168.05c-.16-.26-.11-.44-.28-.54-.23-.14-.78-.03-1.04.08-10.87,4.63-26.77,4.79-37.97,2.87-3.23-.55-6.52-1.58-9.5-3.17,3.1-.27,5.38,1.97,8.07,1.25-1.38.37,21.18,5.68,41.71-3.12.48,1.15-.67,1.94-.98,2.63Z"/>
            <path class="cls-119" d="M204.54,149.8c.55.82,1.14,1.74,2.34,1.39.29.84.69.72,1.4.93.1.57,4.98,3.62,5.72,3.15-1.59-1.63-3.7-2.53-5.72-3.15-.1-.62-.76-1.12-1.4-.93-.32-.72-1.56-1.04-2.34-1.39-.57-.86-2.27-.89-2.24-2.38,1.78-.64,3.61.92,5.11-.17-1.6-.72-3.38.26-4.41-1.16l13.04-3.15c2.5-.6,4.35.25,5.58,2.55.53,1,.82,1.83.24,2.67-.8,1.18-1.72.47-2.84.35l-4.19-.47c-1.54-.17-2.93-.49-4.5-.04,3.19.5,5.98,1.33,9.2,1.25,1.57-.04,3.48.39,3.45,2.47-.04,2.44-2.66,5.79-4.87,5.07l-3.75-1.23c.52.71,2.5,2.12,1.93,3.11-1.83,2.66-5.52,2.74-8.45,2.91-4.65.27-3.59-4.81-5.44-5.76-.72,1.73,1.26,3.78.64,4.89-1.64,2.92-11.28.29-13.8-1.86.66-2.66,2.68-3.84,4.29-6-.58-1.12-4.77,5.47-7.22,5.08-1.54,0-11.34-5.47-9.85-7.19,2.11-2.43,6.28-.62,8.14-2.51-2.86-.25-5.63,1.03-8.57.48-1.88-.35-2.43-2.8-2.42-4.29s.96-4.26,2.83-3.84l9.49,2.13c-.99-1.67-10.89-1.78-8.19-5.03,1.45-1.74,4.78-3.55,6.8-2.11,2.96,2.11,5.68,4.07,8.29,6.21l3.9,3.2c-.55.65-1.11.82-1.09,1.31.02.57.54.75.8,1.36l.45,1.03c.17.38.76-.42,1.15-.36,1.71.26,1.68,2.25,2.56,3.32.39-.95-1.06-2.75.08-3.09,1.62-.47,2.66,1.1,3.84,1.24ZM189.38,143.92c-.93-1-2.04-1.18-3.13-1.04.71,1.09,1.82.97,3.13,1.04ZM193.8,147.19c-2.12-.8-1.75.57-5.65.3.01,1.76,4.37.05,5.65-.3Z"/>
            <path class="cls-19" d="M211.06,136.89c1.22.09,7.82,3.44,6.31,5.08-3.33,1.05-6.64,1.45-10.04,2.29-9.95,2.45-1.66.87-10.03.26l-10.83-8.83c-3.65-2.97,8.2-3.5,9.58-2.64.39.5.64.58.87.79.35.33,1.04-.37,1.54-.41,3.71-.36,7.41.57,10.5,2.65-.51,2.06-2.21,2.69-3.76,3.78.06,2.12,3.46-3.15,5.86-2.97Z"/>
            <path class="cls-52" d="M208.28,152.12c2.01.62,4.12,1.52,5.72,3.15-.73.47-5.62-2.58-5.72-3.15Z"/>
            <path class="cls-94" d="M193.8,147.19c-1.27.35-5.63,2.06-5.65.3,3.9.27,3.53-1.1,5.65-.3Z"/>
            <path class="cls-37" d="M189.38,143.92c-1.31-.07-2.42.05-3.13-1.04,1.09-.13,2.2.04,3.13,1.04Z"/>
            <path class="cls-52" d="M206.88,151.19c-1.19.35-1.79-.56-2.34-1.39.78.35,2.02.66,2.34,1.39Z"/>
            <path class="cls-52" d="M208.28,152.12c-.71-.22-1.11-.09-1.4-.93.64-.19,1.3.31,1.4.93Z"/>
          </g>
        </g>
      </g>
    </g>
  </g>
</svg>