<?xml version="1.0" encoding="UTF-8"?>
<svg id="Layer_2" data-name="Layer 2" xmlns="http://www.w3.org/2000/svg" viewBox="0 0 59.17 125.51">
  <defs>
    <style>
      .cls-1 {
        fill: #abc4c9;
      }

      .cls-2 {
        fill: #b8d87f;
      }

      .cls-3 {
        fill: #f3f3f3;
      }
    </style>
  </defs>
  <g id="Layer_1-2" data-name="Layer 1">
    <path class="cls-2" d="M22.16,1.59l.83-1s12.74-2.04,12.7,1.46c0,0-1.33.96-1.33,1.33s14.85,0,14.85,0l9.49,1.01s.79.98,0,3.24l-12.53-.44-11.89.44-.29,11.65-.84.49.1,6.29s5.8.39,6.83,1.62l.2,14.2s-.29,1.03-1.77.79c0,0,.64.69-1.28,1.57l.25,2.75s1.38,1.72,2.02,1.13c0,0,7.03.29,8.26,1.23,1.23.93,5.8,2.41,7.62,6.39,1.82,3.98,2.41,5.8,2.26,9.34-.15,3.54.24,46.55.24,46.55,0,0-1.97,7.82-4.18,8.55,0,0-4.15,4.19-10.79,4.98-6.64.78-30.87,0-30.87,0,0,0-6.38-3-7.94-5.47-1.56-2.47-3.13-4.04-3.78-9.9-.65-5.86,0-46.09,0-46.09,0,0,.52-6.13,2.6-8.35,2.08-2.21,3.13-4.95,7.68-5.86,4.56-.91,9.64-1.95,9.64-1.95,0,0,.99-1.54.35-3.59,0,0-1.27-.32-1.13-1.45,0,0-2.02-.5-2.02-.81s.42-14.4.42-14.4c0,0,2.05-1.37,2.42-.89l4.57-.32.16-6.47s-.74.11-.68-.42c.05-.53-.89-16.24-.89-16.24l-1.25-1.36Z"/>
    <path class="cls-1" d="M22.28,1.57l.83-.99s12.74-2.01,12.7,1.44c0,0-1.33.94-1.33,1.31s14.85,0,14.85,0l9.49.99s.79.97,0,3.2l-12.53-.44-11.89.44-.29,11.49-.84.48.1,6.21s5.8.39,6.83,1.6l.2,14.01s-.29,1.02-1.77.78c.72.12-1.07,1.46-1.15,1.5-1.42.54-3.77-.05-5.3-.12-2.43-.11-4.87-.18-7.3-.21-1.22-.01-5.56.79-5.3-1.33,0,0-2.02-.49-2.02-.8s.42-14.21.42-14.21c0,0,2.05-1.35,2.42-.88l4.57-.31.16-6.38s-.74.1-.68-.41c.05-.52-.89-16.02-.89-16.02l-1.25-1.34Z"/>
    <rect class="cls-1" x=".8" y="68.6" width="56.22" height="20.89" rx="3.32" ry="3.32"/>
    <g>
      <path class="cls-3" d="M20.91,72.69h-2.88c-.27,0-.5.38-.5.85v10.34s-.05.85.24,1.02c.24.14.42.25.58.34.38.21.62.83.6,1.51l-.19,6.3c.01.07.02.15.05.21.28.8,2.17,3.09,1.69-.59-.49-3.77-.91-12-.91-12-.01-.48.21-.89.5-.89h.59c.82,0,1.43-.32,1.83-.96.78-1.11.8-4.11.05-5.24-.37-.6-.92-.9-1.65-.9ZM20.9,77.15c-.5.61-1.39.41-1.32-.5v-.81c0-.47.22-.85.5-.85h.08c.38,0,.64.12.78.37.27.46.29,1.36-.03,1.8Z"/>
      <path class="cls-3" d="M15.43,80.63c-.38-.34-1.02-.67-1.91-1-.36-.13-.59-.27-.68-.42-.23-.32-.17-.82.03-1.11.27-.4.96-.31,1.21.09.09.13.16.3.22.51.09.35.3.58.53.55l.87-.09c.36-.04.59-.67.45-1.24-.14-.58-.34-1.04-.62-1.38-.65-.94-2.62-1.06-3.53-.36-.39.3-.69.7-.88,1.22-.45,1.14-.39,2.87.28,3.82.38.57,1.01,1.03,1.9,1.37.54.21.89.42,1.04.65.3.45.3,1.15-.01,1.6-.45.62-1.29.38-1.57-.33-.07-.15-.12-.33-.16-.54-.08-.4-.3-.67-.55-.64l-.74.08c-.41.04-.64.82-.43,1.42.42,1.19,1.23,2.56,2.2,2.72,4.28.72-.04,3.93.61,8.47.15,1.06,3.43,4.47,1.69-7.1-.11-.76.57-2.76.8-3.37.42-1.08.48-2.59.09-3.67-.17-.5-.45-.92-.84-1.25Z"/>
      <path class="cls-3" d="M25.64,82.38c.12-2.3.37-7.46.46-10.39.09-2.44-2.06-2.47-1.98-.02.08,3.16.36,8.88.45,10.9.02.47.01.95-.03,1.42-.11,1.18-.3,3.58-.31,5.01,0,1.02.14,3.76.7,3.76s1.6-1.43.85-3.48c-.04-.12-.08-.25-.1-.39-.55-2.94-.43-4.45-.28-5.14.12-.54.2-1.1.23-1.68Z"/>
      <path class="cls-3" d="M32.76,78.77h-2.34c-.23,0-.42-.32-.42-.71v-7.08c0-.39-.19-.71-.42-.71h-1.82c2.07,7.64-1.86,19.91-.12,23.74,3.68,5.27.71-11.31,1.2-12.05,1.06-1.59,2.95.96,4.11-.15.13-.12.21-.36.21-.62v-1.7c0-.39-.19-.71-.42-.71Z"/>
      <path class="cls-3" d="M38.91,74.3c-.24-.52-.54-.92-.91-1.19-.37-.28-.85-.42-1.44-.42h-2.52c-.27,0-.5.38-.5.85,0,0,.24,9.03,0,10.44-1.99,11.77,4.76,13.02.95,1.84-1.04-3.05,1.56-1.6,2.06-1.84.36,0,.76-.1,1.21-.31.33-.15.63-.45.91-.9.28-.45.51-1.01.67-1.67.29-1.15.32-3.58.08-4.99-.11-.69-.28-1.29-.52-1.81ZM37.22,79.95c-.1.4-.24.69-.42.85-.18.16-.48.24-.9.24h0c-.27,0-.5-.38-.5-.85v-4.46c0-.47.22-.85.5-.85h0c.53,0,.9.22,1.13.66.41.59.42,3.61.19,4.42Z"/>
      <path class="cls-3" d="M46.83,75.74h-5.79c-.1,0-.19.15-.19.33v2.14c0,.18.09.33.19.33h1.69c.1,0,.19.15.19.33v7.63c0,.14-.02.29-.05.42-3.5,10.22,2.6,13.63,1.25.69-.04-.37.12-.72.34-.73.24-.01.49-.05.49-.15v-7.85c0-.18.08-.33.19-.33h1.69c.1,0,.19-.15.19-.33v-2.14c0-.18-.08-.33-.19-.33Z"/>
    </g>
  </g>
</svg>